<svg xmlns="http://www.w3.org/2000/svg" id="Layer_1" data-name="Layer 1" viewBox="0 0 109 34.6"><path d="m14.2,19h.8v-.3c0-3.1-2-4.2-4.6-4.2s-6.6,2.3-6.6,2.3l-2.2-4.3s3.7-3,9.4-3,9.9,3.5,9.9,9.5v14.9h-5.5v-2c0-.9,0-1.7,0-1.7h0s-1.8,4.2-7.3,4.2S0,31.9,0,27.1c0-7.6,10.3-8.1,14.2-8.1m-4.5,10.9c3.1,0,5.4-3.4,5.4-6.3v-.6h-1c-3,0-8,.4-8,3.7s1.2,3.1,3.6,3.1"></path><path d="m37.3,14.9h-6.6s0,19.2,0,19.2h-6V14.9h-3v-4.7h3v-.7C24.8,1.6,31.2.6,34.5.6s2,.1,2,.1v5.1s-.5,0-1.2,0c-1.7,0-4.6.4-4.6,3.9v.6h12.6v23.9h-6V14.9Z"></path><path d="m46.8,10.1h5.7v2.8c0,.9,0,1.6,0,1.6h0c1-2,3.7-5,8.5-5s8.3,2.8,8.3,9.1v15.4h-5.9v-14.2c0-2.9-.8-4.9-3.8-4.9s-5.5,2-6.4,4.9c-.3,1-.4,2.1-.4,3.2v11h-6V10.1Z"></path><rect x="72.5" y="10.1" width="6" height="23.9"></rect><path d="m83.6,15.2h-3.1v-4.7h3.2V3.6h5.8v6.9h5.4v4.7h-5.4v9.3c0,3.9,3.1,4.5,4.7,4.5s1.1,0,1.1,0v5.2s-.7.1-1.8.1c-3.3,0-9.9-1-9.9-9v-10Z"></path><rect x="97.6" y="10.1" width="6" height="23.9"></rect><path d="m75.5,7.2c2,0,3.6-1.6,3.6-3.6S77.5,0,75.5,0c-1.9,0-3.5,1.6-3.5,3.7s1.6,3.6,3.5,3.6"></path><path d="m100.5,7.2c2,0,3.6-1.6,3.6-3.6S102.5,0,100.5,0C98.5,0,97,1.6,97,3.7s1.6,3.6,3.5,3.6"></path><path d="m107,30.2c1.1,0,2,.9,2,2s-.9,2-2,2-2-.9-2-2,.9-2,2-2m0,3.8c.9,0,1.7-.8,1.7-1.7s-.7-1.7-1.7-1.7-1.6.8-1.6,1.7.7,1.7,1.6,1.7m-.7-2.8h.8c.4,0,.7.3.7.6s-.2.5-.4.6h0s0,0,0,.1l.4.8h-.3l-.4-.9h-.4v.9h-.3v-2.2Zm.7,1c.2,0,.4-.2.4-.4s-.2-.4-.4-.4h-.4v.8h.4Z"></path></svg>