<svg xmlns="http://www.w3.org/2000/svg" xmlns:xlink="http://www.w3.org/1999/xlink" id="a" viewBox="0 0 495 45"><defs><clipPath id="d"><rect x="1.18" y="13.17" width="134.22" height="28.65" fill="none" stroke-width="0"></rect></clipPath><clipPath id="am"><rect x="183.99" y="17.28" width="284.18" height="20.58" fill="none" stroke-width="0"></rect></clipPath></defs><rect id="b" width="495" height="45" fill="#0a2133" stroke-width="0"></rect><g id="c"><g clip-path="url(#d)"><g id="e"><path id="f" d="m6.35,13.17c1,.65,1.08,1.19.44,2.25-4.22,6.95-4.22,13.9,0,20.85.15.21.28.44.38.68.19.64-.17,1.32-.82,1.51-.51.15-1.05-.04-1.35-.48-.66-.9-1.22-1.87-1.68-2.88C.02,28.3.57,20.26,4.78,13.99c.22-.33.5-.61.84-.82h.73Z" fill="#fff" stroke-width="0"></path><path id="g" d="m129.51,13.73c-.44.13-.77.51-.86.96,0,.45.13.88.4,1.24,4.22,6.95,4.22,13.9,0,20.85-.15.21-.28.44-.38.68-.19.64.17,1.32.81,1.51.51.15,1.05-.04,1.35-.48.66-.9,1.22-1.87,1.68-2.88.89-1.95,1.52-4,1.87-6.11.32-1.99.35-4.02.07-6.02-.3-2.04-.88-4.03-1.74-5.9-.33-.72-.69-1.43-1.09-2.12-.33-.58-.69-1.41-1.33-1.69-.25-.11-.53-.12-.79-.03" fill="#fff" stroke-width="0"></path><path id="h" d="m100.7,20.84c2.65-3.37,6.27-3.31,8.45.08.22-.27.45-.54.66-.8,1.26-1.56,3.35-2.16,5.25-1.53,1.79.41,3.15,1.85,3.46,3.66.19.8.27,1.61.25,2.43,0,2.58,0,5.16,0,7.73,0,.37-.07.51-.48.51-1.57-.03-3.14-.02-4.71,0-.36,0-.43-.12-.43-.44.01-2.38.01-4.77,0-7.15,0-.47-.04-.94-.12-1.4-.07-.68-.68-1.18-1.36-1.11h0c-.69-.12-1.35.31-1.53.98-.15.59-.21,1.2-.18,1.81,0,2.27-.01,4.53,0,6.79,0,.4-.09.53-.52.52-1.54-.03-3.07-.02-4.61,0-.39,0-.5-.09-.5-.48.02-2.37.01-4.74,0-7.1,0-.44-.04-.87-.1-1.3-.16-.82-.96-1.36-1.78-1.2-.53.1-.97.49-1.15,1-.14.56-.21,1.13-.19,1.71,0,2.3-.01,4.6,0,6.89,0,.4-.11.49-.5.49-1.55-.02-3.11-.02-4.66,0-.38,0-.46-.12-.46-.47.01-4.4.01-8.81,0-13.22,0-.34.09-.44.44-.44,1.43.02,2.87.02,4.3,0,.33,0,.47.06.44.42-.03.5,0,1,0,1.62" fill="#fff" stroke-width="0"></path><path id="i" d="m20.55,28.51h2.31c.23,0,.35.02.42.31.39,1.13,1.62,1.72,2.75,1.33,0,0,0,0,0,0,.22-.08.42-.19.6-.33.42-.33.5-.95.16-1.37-.11-.14-.25-.24-.41-.3-.77-.32-1.58-.55-2.41-.66-1.18-.21-2.34-.54-3.45-1-1.95-.95-2.77-3.3-1.82-5.25.32-.65.81-1.2,1.42-1.59,1.13-.7,2.42-1.11,3.75-1.19,1.86-.23,3.75,0,5.5.68,1.38.53,2.38,1.75,2.62,3.22.07.35.05.5-.37.49-1.43-.02-2.86-.02-4.3,0-.22.03-.43-.12-.47-.34-.5-.96-1.67-1.33-2.63-.84-.08.04-.16.09-.24.14-.33.25-.4.72-.15,1.05.07.09.16.17.26.22.51.28,1.05.46,1.62.56,1.23.23,2.45.54,3.65.92.33.11.65.25.96.4,1.33.53,2.23,1.79,2.29,3.23.12,1.53-.62,3.01-1.93,3.81-1.1.68-2.35,1.09-3.64,1.18-2.03.32-4.1.13-6.04-.55-1.64-.56-2.83-2-3.06-3.72-.05-.3,0-.4.32-.39.77.02,1.54,0,2.31,0" fill="#fff" stroke-width="0"></path><path id="j" d="m95.09,32.9h-4.44c-.57,0-1.27.17-1.69-.09s-.56-.96-.82-1.47c-.39-.78-.78-1.56-1.16-2.34-.01-.02-.04-.04-.1-.09-.6,1.17-1.21,2.32-1.77,3.49-.12.34-.47.55-.83.5-1.85-.02-3.69,0-5.55,0,.03-.2.13-.39.27-.53,1.48-2.15,2.96-4.3,4.45-6.45.21-.23.21-.58,0-.81-1.37-1.93-2.71-3.88-4.06-5.83-.13-.13-.23-.3-.26-.49h2.4c1.1,0,2.2.02,3.3,0,.3-.04.58.14.67.42.49,1.01,1.01,2.01,1.56,3.1.56-1.03,1.1-1.95,1.56-2.91.14-.41.56-.67.99-.61,1.8.04,3.59.01,5.39.01.04.21-.11.31-.2.43-1.41,1.96-2.82,3.93-4.25,5.88-.21.21-.22.55-.02.77,1.46,2.17,2.89,4.35,4.32,6.53.13.13.22.31.24.49" fill="#fff" stroke-width="0"></path><path id="k" d="m62.58,31.35c-.16.17-.21.23-.27.29-1.38,1.58-3.61,2.13-5.57,1.36-1.47-.6-2.41-2.05-2.37-3.63-.16-2.5-.04-5.01-.07-7.52,0-.24.06-.34.32-.34,1.31.01,2.62.02,3.93,0,.37,0,.32.21.32.44v5.53c-.01.37.01.73.08,1.09.07.68.63,1.19,1.31,1.2.71.15,1.43-.23,1.71-.9.18-.44.26-.91.26-1.38,0-1.83.02-3.65,0-5.48,0-.38.07-.51.48-.5,1.22.03,2.44.02,3.66,0,.32,0,.45.05.45.42-.01,3.53-.01,7.07,0,10.6,0,.33-.07.46-.43.45-1.13-.02-2.27-.02-3.41,0-.36,0-.45-.13-.43-.46.02-.35,0-.69,0-1.18" fill="#fff" stroke-width="0"></path><path id="l" d="m69.54,29.4h1.73c.22,0,.37,0,.42.3.23,1.27,2.03,1.34,2.7.78.35-.26.43-.76.16-1.12-.1-.13-.23-.23-.39-.28-.68-.27-1.39-.46-2.12-.55-.86-.15-1.7-.39-2.51-.73-1.06-.4-1.79-1.37-1.87-2.5-.16-1.24.42-2.46,1.48-3.12.83-.53,1.78-.84,2.76-.91,1.46-.2,2.94-.07,4.35.38,1.27.36,2.24,1.4,2.49,2.7.07.34.01.46-.37.45-1.12-.02-2.24,0-3.35,0-.22,0-.36-.02-.46-.29-.42-.78-1.4-1.07-2.18-.64,0,0,0,0,0,0-.05.02-.09.05-.13.08-.28.19-.34.57-.15.85.07.1.17.18.28.22.49.24,1,.4,1.54.48,1.03.19,2.04.46,3.03.81,1.33.36,2.26,1.54,2.31,2.91.09,1.45-.77,2.79-2.12,3.3-2.36,1.03-5.04,1.09-7.45.16-1.22-.43-2.11-1.48-2.32-2.75-.08-.37-.04-.59.44-.55.57.05,1.15.01,1.73.01" fill="#fff" stroke-width="0"></path><path id="m" d="m43.55,23.7c.13-.26.25-.53.4-.78.66-1.22,2.01-1.9,3.38-1.71.19.01.33.03.33.28,0,1.43,0,2.85,0,4.3-.4-.09-.82-.12-1.23-.11-1.27-.08-2.36.89-2.44,2.17,0,0,0,0,0,0v.06c-.11,1.37-.14,2.74-.09,4.12-.02.95,0,.95-.96.95-1.06,0-2.13,0-3.19,0-.33,0-.41-.1-.41-.42,0-3.55,0-7.09,0-10.64,0-.31.07-.42.4-.41,1.12.02,2.23.02,3.35,0,.35,0,.4.12.39.42-.02.59,0,1.18,0,1.76h.07" fill="#fff" stroke-width="0"></path><path id="n" d="m53.2,27.22c0,1.76-.01,3.52.01,5.27,0,.4-.12.5-.5.49-1.22-.02-2.44-.02-3.66,0-.35,0-.44-.1-.44-.45.01-3.53.01-7.07,0-10.6,0-.36.12-.43.45-.42,1.24.02,2.48.02,3.72,0,.35,0,.44.1.44.44-.02,1.76,0,3.51,0,5.27" fill="#fff" stroke-width="0"></path><path id="o" d="m38.12,27.28c0,1.74-.01,3.48.01,5.22,0,.4-.11.49-.5.49-1.2-.02-2.41-.02-3.62,0-.31,0-.47-.04-.46-.42.01-3.55.01-7.1,0-10.65,0-.35.13-.39.42-.39,1.24.01,2.48.02,3.72,0,.35,0,.43.11.43.44-.02,1.77,0,3.55,0,5.33" fill="#fff" stroke-width="0"></path><path id="p" d="m130.47,26.02c-.03,3.06-1.01,6.03-2.82,8.5-.26.47-.79.74-1.32.66-.66-.1-1.12-.72-1.02-1.38.03-.22.13-.43.27-.6,3.19-4.3,3.23-10.17.1-14.52-.29-.31-.44-.72-.42-1.14.05-.48.4-.89.87-1.01.5-.16,1.05.03,1.34.47.98,1.27,1.73,2.7,2.24,4.22.51,1.55.76,3.16.75,4.79" fill="#fff" stroke-width="0"></path><path id="q" d="m6.21,25.89c-.02-3.15.99-6.22,2.87-8.74.31-.61,1.06-.85,1.66-.54.61.31.85,1.06.54,1.66-.06.12-.14.22-.23.32-3.2,4.3-3.21,10.19-.03,14.51.48.49.47,1.27-.02,1.75s-1.27.47-1.75-.02c-.09-.09-.16-.19-.22-.3-1.85-2.5-2.84-5.53-2.83-8.65" fill="#fff" stroke-width="0"></path><path id="r" d="m14.47,19.44c.43.02.81.27,1,.65.23.41.2.91-.09,1.28-.51.66-.91,1.41-1.17,2.2-.73,2.19-.34,4.6,1.04,6.45.2.22.34.49.42.77.1.53-.16,1.06-.64,1.31-.52.27-1.15.13-1.51-.33-.84-1.01-1.45-2.19-1.77-3.45-.8-2.81-.24-5.84,1.51-8.18.25-.43.71-.7,1.21-.7" fill="#fff" stroke-width="0"></path><path id="s" d="m125.26,26.11c-.04,1.99-.73,3.92-1.96,5.48-.35.6-1.13.81-1.73.46-.03-.02-.06-.03-.08-.05-.55-.41-.66-1.18-.26-1.73,0,0,0,0,0,0,.03-.04.06-.07.09-.11,1.99-2.53,2.02-6.08.07-8.64-.47-.5-.44-1.28.06-1.75.5-.47,1.28-.44,1.75.06h0c.07.07.13.16.18.25,1.3,1.74,1.97,3.86,1.9,6.03" fill="#fff" stroke-width="0"></path><path id="t" d="m50.92,20.58c-.63,0-1.26-.02-1.88,0-.36.02-.45-.12-.42-.45.05-.57-.24-1.31.12-1.66.33-.32,1.06-.08,1.62-.09.8-.01,1.61.01,2.41,0,.33,0,.48.06.45.42-.03.45-.03.91,0,1.36.02.31-.06.43-.4.42-.63-.03-1.26,0-1.89,0" fill="#fff" stroke-width="0"></path><path id="u" d="m35.86,18.4c.63,0,1.26,0,1.89,0,.25,0,.39.03.38.33-.02.52-.02,1.05,0,1.57,0,.24-.08.29-.3.29-1.31,0-2.62,0-3.93,0-.25,0-.34-.07-.33-.32.02-.5.02-1.01,0-1.51,0-.28.09-.36.36-.35.65.02,1.29,0,1.94,0" fill="#fff" stroke-width="0"></path><path id="v" d="m101.8,41.8c-1.05.07-1.96-.72-2.04-1.77,0-.06,0-.12,0-.17.03-1.13.97-2.03,2.1-2,1.09.03,1.96.89,2,1.98.03,1.07-.82,1.95-1.88,1.98,0,0,0,0,0,0h-.18m-1.13-1.93c-.02.64.49,1.18,1.13,1.19,0,0,0,0,0,0h.05c.64-.03,1.14-.56,1.13-1.2.02-.65-.48-1.19-1.13-1.21,0,0,0,0,0,0h-.04c-.62-.01-1.14.48-1.15,1.11,0,0,0,0,0,0v.11" fill="#fff" stroke-width="0"></path><path id="w" d="m82.95,41.73c-.52.23-1.12,0-1.35-.51v-.03c-.16-.28-.26-.71-.77-.66-.24.02-.36.06-.33.32.02.16-.01.32,0,.47.05.36-.09.47-.46.47-.39,0-.41-.17-.41-.47.01-1.01.01-2.01,0-3.02,0-.29.07-.4.38-.39.54.02,1.08,0,1.62.02.54-.02,1.03.33,1.18.86.23.54.02,1.16-.49,1.45-.22.15-.21.25-.07.44.24.33.46.68.7,1.04m-1.88-1.93c.12,0,.24,0,.36,0,.31,0,.57-.24.57-.54,0,0,0,0,0-.01,0-.36-.25-.51-.58-.55-.23-.02-.45-.02-.68-.01-.1,0-.2,0-.26.12-.19.31-.09.71.22.9.11.07.23.1.35.1" fill="#fff" stroke-width="0"></path><path id="x" d="m90.87,39.86c0-.52,0-1.05,0-1.56,0-.25.04-.39.34-.37.47.02.94-.01,1.41.02,1.05.05,1.87.95,1.82,2-.04.88-.68,1.62-1.55,1.78-.59.07-1.18.1-1.77.07-.23,0-.24-.15-.24-.31v-1.62m.86,0v.83c0,.14-.02.31.17.31.48.1.99-.03,1.36-.36.31-.34.39-.84.2-1.26-.17-.43-.6-.71-1.06-.7q-.67-.05-.67.6v.57" fill="#fff" stroke-width="0"></path><path id="y" d="m71.43,39.82c0-.52.01-1.05,0-1.57,0-.24.06-.33.32-.33.77.02,1.53.02,2.3,0,.29,0,.3.15.3.36s.02.42-.31.4c-.45-.02-.91.02-1.36-.01-.33-.02-.41.1-.41.41,0,.34.13.42.43.4.35-.02.7.01,1.05,0,.28-.02.36.09.35.36,0,.25,0,.44-.35.41-.33-.03-.66,0-.99,0-.27,0-.5-.05-.49.38,0,.4.17.46.5.44.44-.02.87,0,1.31-.01.32-.01.31.17.31.4,0,.21,0,.37-.29.36-.78-.01-1.57-.01-2.35,0-.28,0-.3-.14-.3-.36,0-.54,0-1.08,0-1.62" fill="#fff" stroke-width="0"></path><path id="z" d="m48.27,39.86c0-.54.01-1.08,0-1.62,0-.25.08-.33.33-.32.77.01,1.53.01,2.3,0,.28,0,.3.14.3.36s.02.41-.31.4c-.49-.02-.98.01-1.46-.01-.33-.02-.31.17-.31.39s-.05.43.3.41c.4-.02.8.01,1.2-.01.32-.02.31.16.32.39s-.02.4-.33.38c-.38-.02-.77.02-1.15-.01-.35-.03-.34.17-.34.41,0,.26.02.43.36.41.47-.03.94,0,1.41-.01.29-.01.35.11.34.36s-.04.41-.36.4c-.73-.02-1.46-.03-2.2,0-.35.01-.41-.12-.4-.42.02-.5,0-1.01,0-1.51" fill="#fff" stroke-width="0"></path><path id="aa" d="m41.27,41.79c-.23.09-.49-.02-.58-.25,0,0,0,0,0,0-.02-.05-.03-.1-.03-.15-.09-.41-.34-.52-.72-.47-.16.02-.31.02-.47,0-.46-.07-.76.06-.87.56s-.52.29-.82.29c-.2,0-.09-.18-.05-.28.48-1.13.97-2.26,1.44-3.4.11-.27.34-.17.53-.19.19-.05.39.05.46.23.47,1.12.94,2.24,1.43,3.35.2.47-.18.25-.33.3m-2.11-1.66c.33.04.72.16.89-.04.15-.17-.14-.49-.23-.75-.02-.13-.1-.25-.21-.33l-.46,1.11" fill="#fff" stroke-width="0"></path><path id="ab" d="m84.76,41.75c.52-1.23,1.05-2.46,1.58-3.68.12-.26.81-.24.93.02.53,1.21,1.04,2.42,1.56,3.66-.56.13-1,.1-1.12-.55-.01-.16-.16-.28-.32-.27h0c-.4,0-.8.01-1.21,0-.16-.01-.31.11-.32.27h0c-.12.63-.54.67-1.1.55m2.03-2.81c-.16.38-.29.67-.41.97-.04.09-.09.23.07.24.25.05.51.03.75-.05.13-.07-.08-.32-.13-.49-.06-.19-.15-.38-.28-.67" fill="#fff" stroke-width="0"></path><path id="ac" d="m34.35,41.8c-.39.03-.78-.07-1.1-.29-.15-.1-.52-.12-.31-.45.16-.24.31-.56.71-.23.3.23.68.31,1.05.21.17-.01.29-.15.3-.32.02-.14-.08-.28-.22-.32-.31-.11-.63-.2-.94-.31-.67-.23-.91-.57-.86-1.19.05-.56.51-1,1.08-1.02.45-.08.92,0,1.31.23.15.08.49.11.25.42-.15.19-.21.57-.6.29-.25-.17-.55-.23-.85-.18-.17.02-.31.08-.34.27-.04.16.06.32.22.37.23.08.46.15.7.22.89.26,1.19.63,1.09,1.33-.09.65-.57.97-1.48.97" fill="#fff" stroke-width="0"></path><path id="ad" d="m67.72,37.93h1.15c.27,0,.5-.04.49.38,0,.39-.17.41-.47.41-.72,0-.72,0-.72.71,0,.64-.02,1.28,0,1.93.01.33-.07.46-.44.45-.32,0-.47-.07-.45-.43.03-.7-.03-1.4.02-2.08.04-.5-.16-.64-.61-.58-.37.05-.65.02-.59-.49.03-.22.09-.3.31-.3.44.01.87,0,1.31,0" fill="#fff" stroke-width="0"></path><path id="ae" d="m44.57,37.93c.44,0,.87.02,1.31,0,.34-.02.3.18.3.4s.02.39-.31.4c-.87.04-.87.06-.87.93,0,.56-.02,1.11,0,1.67.02.35-.07.48-.45.48s-.43-.15-.42-.46c.02-.65,0-1.29,0-1.93,0-.7,0-.72-.7-.69-.39.01-.54-.09-.5-.49.02-.22.08-.31.3-.3.44.01.87,0,1.31,0" fill="#fff" stroke-width="0"></path><path id="af" d="m58.25,39.86c0-.54.02-1.08,0-1.62-.02-.38.22-.31.44-.32s.45-.04.43.33c-.03.47-.03.94,0,1.41.02.43-.19.98.09,1.26.26.25.8.05,1.22.08.1,0,.21,0,.31,0,.31-.03.33.16.32.39,0,.22.03.42-.31.41-.73-.02-1.47-.01-2.2,0-.23,0-.3-.09-.3-.31.01-.54,0-1.08,0-1.62" fill="#fff" stroke-width="0"></path><path id="ag" d="m54.26,39.57c.03.4-.2,1.03.09,1.33s.92.08,1.4.09c.28,0,.44.02.44.38s-.12.44-.45.42c-.65-.02-1.29-.02-1.94,0-.27,0-.41-.04-.4-.36.02-1.06.02-2.12,0-3.18,0-.37.2-.33.43-.32s.46-.06.44.32c-.03.41,0,.83,0,1.33" fill="#fff" stroke-width="0"></path><path id="ah" d="m97.54,39.88c0,.52-.02,1.04,0,1.56.02.39-.22.34-.46.35s-.42-.02-.41-.35c.02-1.06.02-2.11,0-3.17,0-.34.15-.36.41-.35.24.01.49-.06.47.35-.03.54,0,1.07,0,1.61" fill="#fff" stroke-width="0"></path><path id="ai" d="m64.01,39.86c0,.54-.02,1.08,0,1.62.01.33-.19.31-.4.3s-.46.09-.46-.3c.02-1.1.01-2.19,0-3.29,0-.36.24-.26.43-.26s.44-.11.43.26c-.02.56,0,1.11,0,1.67" fill="#fff" stroke-width="0"></path><path id="aj" d="m119.01,18.36l-.46-.65c0,.35,0,.56,0,.77,0,.11.05.3-.11.3-.21,0-.13-.2-.14-.32-.01-.31,0-.63,0-.94,0-.1-.03-.22.11-.26.11-.03.22.02.26.12.04.07.11.14.14.22.18.39.33.28.5-.02.08-.14.13-.38.35-.32.27.07.12.32.13.48.02.28.02.56,0,.83,0,.08.02.19-.1.2-.16.02-.15-.11-.15-.21v-.69c-.28.07-.29.34-.52.47" fill="#fff" stroke-width="0"></path><path id="ak" d="m117.42,17.25c.09,0,.17,0,.26,0,.11.01.27-.06.3.1.04.19-.13.16-.24.17-.38.04-.18.34-.23.52-.06.25.13.71-.13.71-.29,0-.08-.45-.14-.7-.05-.2.14-.52-.28-.54-.11,0-.22-.02-.2-.16s.15-.1.25-.11c.14,0,.28,0,.41,0" fill="#fff" stroke-width="0"></path></g></g></g><g id="al"><g clip-path="url(#am)"><g id="an"><path id="ao" d="m278.48,27.57v-8.59c0-.94.31-1.24,1.23-1.25h1c.87,0,1.2.33,1.21,1.23v5.13c0,.47.01.93,0,1.39,0,.29.07.44.41.44,2.42-.01,4.84-.01,7.25,0,.4,0,.4-.21.4-.49v-6.13c0-1.37.18-1.55,1.59-1.55h.84c.52-.04.96.35,1,.87,0,0,0,0,0,0v.04c.02.19.02.38.02.56v16.72c0,1.24-.24,1.48-1.46,1.48h-.89c-.75-.02-1.07-.35-1.08-1.11v-7.08c0-.51-.24-.77-.73-.77-2.23,0-4.47.01-6.69,0-.48,0-.64.11-.63.61.03,2.32,0,4.64,0,6.97,0,1.11-.28,1.38-1.38,1.38h-.85c-.9-.01-1.21-.32-1.21-1.21v-8.64h-.03Z" fill="#fff" stroke-width="0"></path><path id="ap" d="m206.2,22.97c-.1.21-.13.44-.09.67v12.21c0,1.45-.14,1.58-1.6,1.57h-.28c-.48.05-.92-.3-.97-.78,0-.07,0-.13,0-.2-.02-.59,0-1.19,0-1.78v-13.49c0-1.05.24-1.29,1.28-1.29.67,0,1.35.01,2.01,0,.75-.06,1.44.39,1.69,1.1,1.89,4.23,3.8,8.44,5.71,12.65.08.18.16.36.29.62.11-.22.15-.46.11-.7v-12.28c0-1.18.2-1.38,1.41-1.38h.34c.81,0,1.1.3,1.1,1.11v15.28c0,.86-.28,1.13-1.13,1.14-.75,0-1.49-.01-2.24,0-.69.05-1.33-.37-1.55-1.02-1.92-4.29-3.85-8.57-5.8-12.85-.08-.16-.15-.34-.27-.58h0Z" fill="#fff" stroke-width="0"></path><path id="aq" d="m393.63,32.5c0,1.13-.02,2.27,0,3.4.04.44-.22.84-.64.98-2.31.93-4.82,1.22-7.28.85-1.97-.14-3.82-1.03-5.16-2.49-1.13-1.32-1.85-2.95-2.05-4.68-.41-2.37-.33-4.8.25-7.14.64-3.13,3.21-5.51,6.38-5.9,2.52-.49,5.13-.25,7.52.69.86.35.89.42.73,1.33-.09.59-.21,1.17-.32,1.75-.05.23-.05.5-.34.59-.26.05-.53-.06-.68-.29-.8-.89-1.85-1.53-3.02-1.82-2.59-.83-5.37.6-6.2,3.19h0c-.03.09-.05.18-.07.26-.91,2.84-.91,5.89.02,8.72.57,2.25,2.68,3.75,4.99,3.55.62,0,1.23-.05,1.84-.15.45-.07.62-.24.61-.73-.03-1.84-.01-3.69-.01-5.52,0-.84.08-.92.93-.93.6,0,1.19.01,1.79,0,.51-.01.73.2.73.73-.02,1.19,0,2.37,0,3.57v.03Z" fill="#fff" stroke-width="0"></path><path id="ar" d="m187.44,25.44v5.74c-.03.73.06,1.45.26,2.15.31,1.02,1.13,1.81,2.17,2.06.94.26,1.93.27,2.87.05,1.55-.31,2.64-1.71,2.56-3.29.05-.89.03-1.78.03-2.68v-10.49c0-1.1.31-1.41,1.38-1.41,1.75,0,1.87.11,1.87,1.86,0,4.01.03,8.03-.03,12.05.13,3.21-2.33,5.92-5.53,6.11-1.46.21-2.95.15-4.38-.2-2.68-.52-4.6-2.86-4.59-5.59-.09-4.4-.04-8.81-.03-13.22-.05-.52.34-.97.85-1.01,0,0,0,0,0,0,.05,0,.11,0,.16,0,.41-.02.82-.02,1.23,0,.8.02,1.16.36,1.17,1.16.02,1.07,0,2.16,0,3.23v3.47h0Z" fill="#fff" stroke-width="0"></path><path id="as" d="m356.83,28.64v-7.53c0-.97.25-1.23,1.22-1.23h1.11c.73.01,1.05.32,1.05,1.06,0,1.84.02,3.68,0,5.52,0,.5.12.67.65.66,1.86-.03,3.73-.03,5.58,0,.44,0,.58-.14.57-.57-.02-1.82-.01-3.65,0-5.47,0-.94.26-1.2,1.18-1.2h1.17c.7,0,1.03.32,1.03,1.03.01,1.19,0,2.37,0,3.57v11.72c0,.98-.24,1.22-1.21,1.23h-1c-.92,0-1.17-.24-1.17-1.15v-5.69c.07-.49-.27-.93-.76-1-.08-.01-.17-.01-.25,0-1.75,0-3.5.01-5.24,0-.42,0-.54.11-.53.53.02,2.04,0,4.09,0,6.13,0,.93-.26,1.18-1.2,1.18h-1.12c-.79-.01-1.06-.27-1.07-1.08v-7.7h-.01Z" fill="#fff" stroke-width="0"></path><path id="at" d="m397.72,28.66v-7.64c0-.87.27-1.16,1.13-1.14,2.34.04,4.69-.14,7.03.11,2.11.07,3.9,1.58,4.31,3.65.69,2.32-.64,4.76-2.96,5.45l-.05.02c-.44.15-.39.31-.21.63,1.13,2.09,2.26,4.18,3.37,6.28.12.21.22.43.29.66.11.27-.03.57-.3.68,0,0,0,0,0,0-.07.03-.15.04-.23.03-.69.02-1.37,0-2.07,0-.33,0-.62-.21-.72-.52-1.38-2.7-2.78-5.39-4.14-8.09-.39-.76-.18-1.05.68-1.06.17,0,.33,0,.5-.02,1.01.11,1.99-.42,2.45-1.34.53-1.12.44-2.43-.23-3.47-.4-.55-1.03-.9-1.71-.93-1.1-.13-2.2-.04-3.29-.07-.42-.01-.38.26-.38.53v13.79c0,.94-.25,1.19-1.19,1.19h-1.23c-.77,0-1.03-.28-1.03-1.05v-7.7.02Z" fill="#fff" stroke-width="0"></path><path id="au" d="m441.99,26.84v-5.75c0-.93.28-1.21,1.19-1.21.34,0,.67-.01,1,0,.46-.04.87.29.91.76,0,.05,0,.1,0,.16,0,3.94.05,7.88-.03,11.82,0,2.25-1.53,4.21-3.7,4.77-1.84.57-3.82.58-5.66.02-2.18-.58-3.72-2.53-3.79-4.78-.14-2.65-.03-5.31-.06-7.97-.01-1.23,0-2.46,0-3.68,0-.78.31-1.07,1.1-1.08h1.28c.76.01,1.05.3,1.05,1.05v7.14c0,1.45-.04,2.91.02,4.35.09,2.46,1.2,3.48,3.56,3.4,1.58.13,2.96-1.05,3.08-2.62h0c0-.13,0-.26,0-.39.06-1.98.01-3.98.01-5.97h.03Z" fill="#fff" stroke-width="0"></path><path id="av" d="m245.1,28.63v-7.58c0-.88.29-1.17,1.17-1.17h8.87c.43,0,.86.03,1.04.47.23.49.21,1.07-.04,1.55-.2.38-.61.38-.99.38-1.97,0-3.95.02-5.91-.01-.56,0-.73.14-.71.72.05,1.21.03,2.42,0,3.63,0,.42.11.54.53.53,1.79-.02,3.57,0,5.36-.01.43,0,.86.01,1.05.46.23.49.22,1.07-.03,1.55-.2.38-.6.39-.99.39-1.75,0-3.5.02-5.24-.01-.53,0-.7.14-.69.68.04,1.39.03,2.78,0,4.18-.01.49.12.67.65.66,2.12-.03,4.24,0,6.36-.01.43,0,.86.04,1.02.49.22.5.2,1.08-.05,1.57-.18.34-.56.33-.9.33h-9.49c-.8,0-1.03-.24-1.03-1.03v-7.74Z" fill="#fff" stroke-width="0"></path><path id="aw" d="m298,28.71v-7.64c0-.93.27-1.19,1.2-1.19h8.82c.42,0,.86.01,1.05.46.24.49.23,1.07-.03,1.55-.2.38-.6.39-.99.39h-5.92c-.35-.05-.68.2-.73.56,0,.06,0,.12,0,.17v3.35c0,.51.24.76.73.76h5.2c.86,0,1.15.31,1.16,1.19,0,.91-.26,1.21-1.13,1.21-1.79,0-3.57.02-5.36,0-.46,0-.62.13-.61.59.03,1.45.02,2.91,0,4.35,0,.42.11.58.57.57,2.16-.02,4.31,0,6.47,0,.45,0,.87.06,1.01.51.2.51.17,1.08-.08,1.57-.16.22-.42.33-.69.3h-9.82c-.65,0-.88-.27-.88-.95v-7.74h0Z" fill="#fff" stroke-width="0"></path><path id="ax" d="m449.01,28.64v-7.53c0-.97.27-1.24,1.22-1.24h5.74c.56,0,1.12.04,1.66.15,2.56.55,4,2.57,3.92,5.45-.09,3.09-1.86,4.88-4.96,5.01-.74.04-1.49,0-2.22-.13-.18-.03-.36-.09-.53-.18-.35-.13-.55-.49-.48-.86.06-.39.4-.66.79-.66.55-.04,1.12-.02,1.67-.09,1.3-.09,2.34-1.11,2.46-2.41.1-.65.08-1.3-.04-1.94-.2-1.42-1.47-2.44-2.91-2.33-.8-.04-1.61.02-2.4-.02-.48-.02-.59.16-.58.61.02,3.85,0,7.7,0,11.55v2.4c-.01.72-.26.96-.99.97h-1.17c-.95,0-1.2-.25-1.2-1.18v-7.58h0Z" fill="#fff" stroke-width="0"></path><path id="ay" d="m345.15,29.58c0-2.2-.01-4.38,0-6.58,0-.49-.09-.69-.64-.67-1.15.04-2.3.02-3.46.01-.8,0-1.05-.3-1.05-1.22s.27-1.24,1.05-1.25h11.61c.68,0,.98.31,1,.99v.56c-.04.63-.31.91-.94.92-1.13.01-2.27,0-3.41,0-.35-.05-.67.19-.73.53h0c0,.06,0,.12,0,.18v13.05c0,1.07-.23,1.31-1.31,1.31h-1.07c-.77-.01-1.07-.31-1.07-1.1v-6.73Z" fill="#fff" stroke-width="0"></path><path id="az" d="m233.84,29.64c0-2.23-.01-4.46,0-6.69,0-.46-.11-.62-.59-.61-1.07.03-2.16.02-3.24,0-.73,0-1-.28-1.01-1v-.51c.03-.62.32-.95.93-.95h11.22c.47-.05.89.28.94.75,0,0,0,0,0,0,0,.06,0,.12,0,.18v.61c.05.46-.28.87-.74.92-.07,0-.14,0-.21,0-1.1,0-2.2.03-3.29,0-.47-.01-.59.14-.58.6.02,4.41,0,8.81,0,13.22,0,1.02-.24,1.26-1.24,1.26h-1.11c-.78-.01-1.08-.31-1.08-1.08v-6.69Z" fill="#fff" stroke-width="0"></path><path id="ba" d="m330.31,28.66v-7.58c0-.92.28-1.2,1.19-1.21h1.17c.77,0,1.08.31,1.08,1.08v6.69c0,2.24,0,4.5-.01,6.74,0,.45.13.56.56.56,1.67-.02,3.35,0,5.02-.01.46,0,.92.05,1.05.53.22.54.17,1.15-.13,1.66-.17.21-.43.31-.7.28h-8.31c-.67,0-.94-.34-.94-1.11v-7.63Z" fill="#fff" stroke-width="0"></path><path id="bb" d="m225.9,28.66v7.58c0,.89-.27,1.16-1.16,1.17h-1.28c-.68-.02-.97-.32-1-1v-15.21c0-1.07.25-1.31,1.3-1.33h1.06c.76.01,1.07.32,1.07,1.1v7.68Z" fill="#fff" stroke-width="0"></path><path id="bc" d="m273.86,24.82c-.53-2.31-2.33-4.12-4.64-4.66-.81-.2-1.65-.29-2.49-.28h-5.8c-.92,0-1.2.28-1.2,1.19v15.28c.01.73.28,1.06.92,1.06,2.36,0,4.73.06,7.09-.03,2.97.02,5.55-2.05,6.18-4.95.68-2.49.67-5.12-.05-7.61h-.01Zm-3.32,7.45c-.47,1.89-2.2,3.19-4.14,3.11-.95.02-1.9-.01-2.84.02-.42.01-.49-.16-.48-.53.01-2.08,0-4.17,0-6.25s.01-4.13,0-6.19c0-.42.11-.56.53-.54,1.04.05,2.08-.04,3.12.06,1.82.07,3.38,1.34,3.8,3.11.71,2.35.72,4.85.03,7.2h-.01Z" fill="#fff" stroke-width="0"></path><path id="bd" d="m427.87,24.06c-.63-2.27-2.53-3.96-4.86-4.34-1.06-.2-2.14-.26-3.22-.17-2.92.04-5.44,2.05-6.12,4.89-.38,1.36-.56,2.77-.53,4.19-.04,1.58.18,3.15.67,4.65.7,2.33,2.7,4.03,5.12,4.33,1.06.18,2.15.21,3.22.09,2.66-.11,4.95-1.9,5.7-4.45.98-2.99.98-6.22,0-9.21h.02Zm-3.22,8.63c-.36,2.09-2.35,3.49-4.44,3.12h0c-.14-.02-.28-.06-.42-.1-1.18-.23-2.14-1.08-2.52-2.22-.54-1.57-.77-3.22-.68-4.88-.05-1.43.11-2.86.46-4.25.77-2.65,2.86-3.23,5.01-2.74,1.09.28,1.96,1.08,2.34,2.14.39,1.01.61,2.07.65,3.15.2,1.93.06,3.88-.4,5.76" fill="#fff" stroke-width="0"></path><path id="be" d="m327.02,36.24c-1.65-5.14-3.32-10.29-4.98-15.43-.12-.6-.68-1-1.29-.94-.65-.01-1.3,0-1.95,0-1,0-1.25.19-1.55,1.16l-2.3,7.17c-.87,2.73-1.74,5.45-2.61,8.17-.24.74-.03,1.03.77,1.03h.73c.66.11,1.3-.33,1.41-.99v-.05c.28-.87.54-1.74.79-2.61.04-.26.28-.45.54-.42,1.86.01,3.72.01,5.58,0,.27-.03.51.15.55.42.19.68.43,1.34.63,2.02.25,1.03,1.21,1.72,2.26,1.64h.56c.92,0,1.14-.29.86-1.17h0Zm-5.64-5.08c-1.39-.02-2.79-.01-4.18,0-.28,0-.42-.04-.31-.36.81-2.66,1.61-5.32,2.41-7.98.04-.07.08-.13.14-.18.48,1.7.95,3.35,1.42,5,.29,1.02.56,2.04.87,3.05.11.36.08.5-.34.49h-.01Z" fill="#fff" stroke-width="0"></path><path id="bf" d="m465.64,19.53c-1.38,0-2.51,1.11-2.52,2.49,0,0,0,0,0,0h0c-.02,1.41,1.1,2.56,2.5,2.57s2.55-1.1,2.56-2.5-1.1-2.55-2.5-2.56c0,0,0,0,0,0h-.04Zm.03,4.66c-1.13.01-2.05-.9-2.06-2.03v-.13c-.06-1.12.81-2.07,1.93-2.13s2.07.81,2.13,1.93h0v.19c.07,1.13-.79,2.1-1.92,2.17h-.07" fill="#fff" stroke-width="0"></path><path id="bg" d="m466.39,22.71c-.18-.25-.35-.46.09-.65.28-.17.41-.51.32-.82-.03-.33-.29-.59-.62-.63-.17-.03-.35-.05-.53-.05-1.08.02-1-.14-1,.87,0,.52-.01,1.05,0,1.55,0,.19-.12.51.23.52s.24-.3.26-.49c.01-.11,0-.22,0-.33.02-.15-.08-.36.14-.43s.33.09.44.26c.17.28.34.53.5.8.11.18.29.3.46.19.22-.14-.03-.28-.09-.41-.06-.13-.14-.26-.23-.38l.02-.02Zm-.74-.9c-.39.06-.47-.14-.47-.48,0-.33.14-.43.44-.4s.69-.03.7.43-.36.42-.67.45h0Z" fill="#fff" stroke-width="0"></path></g></g></g></svg>