<svg xmlns="http://www.w3.org/2000/svg" xmlns:xlink="http://www.w3.org/1999/xlink" id="Layer_1" x="0px" y="0px" viewBox="0 0 1114 45" style="enable-background:new 0 0 1114 45;" xml:space="preserve"><style type="text/css">	.st0{fill:#0A2133;}	.st1{clip-path:url(#SVGID_00000115512766565184635380000003959267918873936806_);}	.st2{fill:#FFFFFF;}	.st3{clip-path:url(#SVGID_00000122705336836777359100000000897890879181042845_);}	.st4{clip-path:url(#SVGID_00000091727412941961426700000007860591787637534338_);}	.st5{clip-path:url(#SVGID_00000028287065760689529250000011430973224409039530_);}	.st6{clip-path:url(#SVGID_00000029767790068496959670000007320976815685522571_);}	.st7{clip-path:url(#SVGID_00000059303151459596905880000003570433327332857005_);}	.st8{clip-path:url(#SVGID_00000010304187069028840740000015185334092738835592_);}	.st9{clip-path:url(#SVGID_00000143577316804996626620000003580542219951509413_);}	.st10{fill-rule:evenodd;clip-rule:evenodd;fill:#FFFFFF;}</style><rect id="Rectangle_7269_00000003802979158859662040000005792074138343076268_" class="st0" width="1114" height="46"></rect><g id="Group_19385_00000079469230728443235960000003447982557022137532_" transform="translate(778 1441)">	<g>		<defs>			<rect id="SVGID_00000098927552571912415020000013861436652313001384_" x="-428.9" y="-1423" width="92.9" height="18"></rect>		</defs>		<clipPath id="SVGID_00000125578396686619793290000010947822174114505090_">			<use xlink:href="#SVGID_00000098927552571912415020000013861436652313001384_" style="overflow:visible;"></use>		</clipPath>					<g id="Group_19384_00000085954777674611381200000013835568185035753358_" transform="translate(0 0)" style="clip-path:url(#SVGID_00000125578396686619793290000010947822174114505090_);">			<path id="Path_7654_00000151526179892480811570000010001755686945662103_" class="st2" d="M-428.9-1415.3c0-0.2,0.1-0.4,0.1-0.6    c0.1-0.6,0.2-1.3,0.3-1.9c0-0.1,0.1-0.2,0.2-0.2c3.2,0,6.3,0,9.5,0c0,0,0.1,0,0.1,0c-0.1,0.3-0.1,0.7-0.2,1    c-0.1,0.5-0.2,1.1-0.3,1.6c0,0.2-0.1,0.2-0.2,0.2c-0.9,0-1.8,0-2.6,0c-0.3,0-0.3,0-0.3,0.3c-0.2,1.3-0.4,2.5-0.7,3.8    c-0.3,1.5-0.5,3-0.8,4.5c-0.1,0.3-0.1,0.6-0.2,0.9c0,0.1-0.1,0.2-0.2,0.2c-1,0-2,0-3,0c0,0-0.1,0-0.2,0c0-0.2,0.1-0.4,0.1-0.6    c0.2-1.4,0.5-2.8,0.7-4.1c0.3-1.6,0.6-3.2,0.8-4.8c0-0.2,0-0.2-0.2-0.2c-1,0-2,0-3,0c-0.1,0-0.1,0-0.2,0V-1415.3"></path>			<path id="Path_7655_00000140733394287795180000000004992647447464475793_" class="st2" d="M-336-1422.4c-0.1,0.2-0.1,0.4-0.2,0.6    c-0.3,0.7-0.7,1.4-1.1,2.1c-0.1,0.1-0.2,0.2-0.3,0.2c-0.7,0.1-1.5,0.1-2.2,0.1c0,0-0.1,0-0.1,0c0.6,0.4,1.2,0.7,1.8,0.8    c-0.2,0.2-0.4,0.4-0.6,0.7c-0.1,0.1-0.3,0.3-0.4,0.4c-0.1,0.1-0.2,0.1-0.4,0.1c-0.9-0.1-1.8-0.3-2.6-0.6c0,0-0.1,0-0.1,0    c0.1,0.2,0.3,0.4,0.5,0.6c0.2,0.2,0.4,0.3,0.7,0.4c0.2,0.1,0.5,0.2,0.7,0.4c-0.7,0.5-1.4,0.7-2.2,0.8c-1.2,0-2.4-0.4-3.3-1.2    c0.2-0.2,0.3-0.4,0.5-0.5c0.8-0.8,1.6-1.4,2.6-1.9c0.7-0.4,1.5-0.7,2.2-1.1c0.1,0,0.1-0.1,0.2-0.1c-1.6,0.3-3,0.9-4.3,1.8    c-1.3,0.9-2.5,2-3.4,3.2c-0.2-0.2-0.2-0.6,0-0.8c0.3-0.4,0.7-0.8,1-1.1c0.2-0.2,0.4-0.4,0.6-0.6c0.1-0.1,0.1-0.1,0.1-0.2    c0.3-2.1,1.9-3.8,4-4.3c0.8-0.2,1.7-0.2,2.5,0c0.7,0.1,1.3,0.2,2,0.2c0.5,0,1-0.1,1.5-0.3c0.1,0,0.1-0.1,0.2-0.1h0.2V-1422.4z"></path>			<path id="Path_7656_00000003808309261915855800000012021531909184541611_" class="st2" d="M-419.7-1405.4c0-0.2,0.1-0.5,0.1-0.7    c0.2-1.1,0.4-2.2,0.6-3.3c0.2-1.2,0.4-2.5,0.7-3.7c0.2-1,0.3-1.9,0.5-2.9c0.1-0.6,0.2-1.2,0.3-1.8c0-0.1,0.1-0.1,0.2-0.1    c1.8,0,3.7,0,5.5,0c0.7,0,1.3,0.1,1.9,0.4c0.6,0.3,1,0.8,1.3,1.4c0.6,1.2,0.4,2.7-0.3,3.8c-0.3,0.4-0.7,0.8-1.1,1    c0,0-0.1,0.1-0.2,0.1c0,0,0.1,0.1,0.1,0.1c0.4,0.3,0.6,0.8,0.6,1.3c0.1,0.6,0.1,1.3,0.1,1.9c0,0.8,0.2,1.5,0.5,2.2    c0,0.1,0,0.1,0.1,0.2c-0.1,0-0.1,0-0.2,0c-1.1,0-2.2,0-3.3,0c-0.2,0-0.2-0.1-0.2-0.2c-0.1-0.5-0.2-1-0.2-1.5c0-0.6,0-1.2,0-1.7    c0-0.2,0-0.4-0.1-0.5c-0.2-0.4-0.6-0.7-1-0.7c-0.5,0-1.1,0-1.6,0c-0.1,0-0.2,0.1-0.2,0.2c-0.1,0.8-0.3,1.6-0.4,2.4    c-0.1,0.7-0.2,1.3-0.4,2c0,0.1,0,0.1-0.1,0.1c-1,0-2.1,0-3.1,0C-419.6-1405.4-419.6-1405.4-419.7-1405.4 M-415-1412.9    C-415-1412.9-415-1412.9-415-1412.9c0.8,0,1.6,0,2.3,0c0.5,0,1-0.3,1.1-0.8c0-0.2,0.1-0.3,0.1-0.5c0-0.3-0.1-0.5-0.3-0.7    c-0.2-0.1-0.3-0.2-0.5-0.2c-0.7,0-1.4,0-2.1,0c-0.1,0-0.2,0.1-0.2,0.2c-0.1,0.4-0.1,0.8-0.2,1.2    C-414.9-1413.5-415-1413.2-415-1412.9"></path>			<path id="Path_7657_00000094613768317470974950000018249225804293054849_" class="st2" d="M-396-1417.9c-0.1,0.5-0.2,1.1-0.3,1.6    c-0.2,1-0.3,2-0.5,3c-0.2,1.3-0.5,2.6-0.7,4c-0.2,1-0.6,1.9-1.2,2.6c-0.5,0.6-1.2,1-1.9,1.2c-0.7,0.3-1.5,0.4-2.3,0.4    c-1.2,0-2.3-0.3-3.3-0.9c-0.8-0.5-1.3-1.3-1.5-2.3c-0.1-0.7-0.1-1.5,0-2.3c0.2-1.5,0.5-3,0.8-4.6c0.2-0.9,0.3-1.8,0.5-2.7    c0-0.1,0-0.2,0.2-0.2c1,0,2,0,3,0c0,0,0.1,0,0.2,0c-0.1,0.4-0.1,0.7-0.2,1.1c-0.2,0.9-0.3,1.9-0.5,2.8c-0.2,1-0.4,2.1-0.6,3.1    c-0.1,0.5-0.1,1-0.2,1.4c-0.1,0.6,0.4,1.2,1,1.3c0.6,0.2,1.2,0.1,1.7-0.1c0.4-0.2,0.7-0.6,0.9-1c0.2-0.5,0.4-1.1,0.4-1.7    c0.1-0.8,0.3-1.6,0.4-2.5c0.2-0.9,0.3-1.8,0.5-2.8l0.3-1.6c0-0.1,0-0.1,0.1-0.1C-398.2-1417.9-397.1-1417.9-396-1417.9    C-396.1-1417.9-396-1417.9-396-1417.9"></path>			<path id="Path_7658_00000176039608882700818070000011184825451793701268_" class="st2" d="M-390.7-1410.3c0-0.2,0-0.3,0.1-0.5    c0.1-0.4,0.1-0.9,0.2-1.3c0-0.2,0.1-0.2,0.3-0.2c1.8,0,3.7,0,5.5,0c0.2,0,0.2,0,0.2,0.2c-0.1,0.5-0.2,1-0.3,1.5    c-0.2,1.1-0.4,2.2-0.6,3.3c-0.1,0.6-0.2,1.2-0.3,1.9c0,0.1-0.1,0.2-0.2,0.2c-0.6,0-1.2,0-1.7,0c-0.2,0-0.2,0-0.2-0.2    c0-0.1,0-0.2,0-0.3c-0.2,0.1-0.4,0.2-0.6,0.3c-0.9,0.4-1.9,0.5-2.8,0.4c-0.9-0.1-1.8-0.4-2.5-0.9c-0.7-0.5-1.3-1.1-1.7-1.9    c-0.4-0.7-0.7-1.6-0.7-2.4c-0.1-0.8,0-1.7,0.1-2.5c0.2-1.1,0.7-2.2,1.3-3.1c0.9-1.2,2.2-2.1,3.6-2.5c1.2-0.3,2.4-0.3,3.6,0.1    c1.6,0.5,2.7,1.8,3,3.4c0.1,0.3,0.1,0.6,0.2,0.9c0,0.2,0,0.2-0.2,0.2c-0.6,0-1.2,0.1-1.9,0.1c-0.1,0-0.2-0.1-0.2-0.2    c-0.1-0.4-0.2-0.9-0.3-1.3c-0.3-0.7-0.8-1.2-1.5-1.3c-1.1-0.3-2.4-0.1-3.3,0.5c-0.8,0.6-1.4,1.4-1.8,2.3    c-0.4,0.9-0.5,1.9-0.4,2.9c0,0.6,0.2,1.2,0.4,1.7c0.4,0.9,1.2,1.5,2.1,1.6c0.7,0.1,1.4,0.1,2.1-0.1c0.9-0.3,1.6-1,2-1.9    c0.1-0.3,0.2-0.6,0.3-0.9c0.1-0.2,0-0.2-0.2-0.2c-1.1,0-2.2,0-3.4,0L-390.7-1410.3"></path>			<path id="Path_7659_00000116954942043010554230000002482572637492614325_" class="st2" d="M-374.3-1405.2c-0.1,0-0.1,0-0.2,0    c-0.7,0-1.3,0-2,0c-0.1,0-0.2-0.1-0.3-0.2c-0.3-0.6-0.5-1.3-0.5-2c0-0.7-0.1-1.3-0.1-2c0-0.6-0.5-1-1-1.1    c-0.6-0.1-1.2-0.1-1.8-0.1c-0.3,0-0.6,0-0.9,0c-0.1,0-0.2,0-0.2,0.2c-0.2,1.3-0.5,2.6-0.7,4c-0.1,0.3-0.1,0.7-0.2,1    c0,0-0.1,0.1-0.1,0.1c-0.7,0-1.4,0-2,0c0,0,0,0-0.1,0c0-0.3,0.1-0.5,0.1-0.8c0.1-0.8,0.3-1.7,0.4-2.5c0.1-0.8,0.3-1.5,0.4-2.3    c0.2-0.9,0.3-1.8,0.5-2.8c0.1-0.8,0.3-1.5,0.4-2.3c0.1-0.7,0.3-1.5,0.4-2.2c0-0.1,0.1-0.1,0.2-0.1c1.5,0,3,0,4.6,0    c0.9,0,1.8,0.3,2.5,0.8c0.6,0.5,1,1.1,1.1,1.9c0.1,0.7,0,1.4-0.2,2.1c-0.3,0.8-0.9,1.4-1.6,1.8c-0.2,0.1-0.2,0.1,0,0.3    c0.3,0.4,0.6,0.9,0.6,1.4c0.1,0.5,0.1,1.1,0.1,1.6c0,1,0.3,1.9,0.7,2.8C-374.4-1405.4-374.3-1405.3-374.3-1405.2 M-379.1-1416.2    L-379.1-1416.2c-0.3,0-0.7,0-1,0c-0.1,0-0.2,0-0.2,0.2c0,0.2-0.1,0.4-0.1,0.7c-0.1,0.9-0.3,1.7-0.4,2.6c0,0.1,0,0.2,0.1,0.2    c0.2,0,0.3,0,0.5,0c0.7,0,1.5,0,2.2-0.1c1-0.1,1.7-0.9,1.9-1.8c0.1-0.5-0.1-1-0.5-1.3c-0.2-0.1-0.5-0.2-0.7-0.2    C-378-1416.1-378.5-1416.1-379.1-1416.2"></path>			<path id="Path_7660_00000134942126849620624070000008810167401062836362_" class="st2" d="M-351.5-1414c0,0.3-0.1,0.5-0.1,0.8    c-0.1,0.7-0.2,1.3-0.3,2c-0.1,0.9-0.3,1.7-0.4,2.6c-0.2,0.9-0.3,1.8-0.5,2.8c0,0.2-0.1,0.4-0.1,0.6c0,0.1-0.1,0.1-0.1,0.1    c-0.6,0-1.3,0-1.9,0c-0.1,0-0.1,0-0.1-0.1c0.2-1,0.3-2,0.5-3c0.2-0.9,0.3-1.8,0.5-2.7c0.1-0.7,0.3-1.5,0.4-2.2    c0.2-1.2,0.4-2.4,0.6-3.6c0.1-0.4,0.1-0.8,0.2-1.1c0-0.1,0.1-0.2,0.2-0.2c0.5,0,1,0,1.6,0c0.1,0,0.3,0.1,0.3,0.2    c0.4,0.8,0.8,1.7,1.2,2.5c0.8,1.8,1.7,3.6,2.5,5.4c0.1,0.3,0.2,0.5,0.3,0.8c0,0,0.1,0.1,0.1,0.1c0-0.2,0.1-0.4,0.1-0.6    c0.1-0.8,0.3-1.7,0.4-2.5c0.2-0.9,0.3-1.8,0.5-2.8c0-0.3,0.1-0.5,0.1-0.8c0-0.2,0.1-0.1,0.2-0.1c0.3,0.2,0.7,0.4,1.1,0.5    c0.2,0.1,0.4,0.2,0.6,0.2c0.1,0,0.1,0.1,0.1,0.2c0,0,0,0,0,0c-0.3,1.4-0.5,2.9-0.7,4.3c-0.2,1.3-0.5,2.7-0.7,4    c-0.1,0.4-0.2,0.9-0.2,1.3c0,0.1-0.1,0.2-0.2,0.2c-0.6,0-1.2,0-1.8,0c-0.1,0-0.2,0-0.2-0.1c-0.3-0.6-0.5-1.1-0.8-1.7    c-0.6-1.3-1.2-2.5-1.7-3.8c-0.5-1-0.9-2-1.4-3.1C-351.4-1413.9-351.4-1414-351.5-1414L-351.5-1414"></path>			<path id="Path_7661_00000133503108311800512470000016239666915200775308_" class="st2" d="M-354-1418.2c-0.1,0.7-0.2,1.3-0.4,1.9    c0,0-0.1,0.1-0.1,0.1c-0.1,0-0.1,0-0.2,0c-1.8,0-3.6,0-5.3,0c-0.4,0-0.4,0-0.4,0.3c-0.1,0.9-0.3,1.9-0.5,2.8c0,0.2,0,0.3,0.2,0.3    c1.7,0,3.5,0,5.2,0c0.3,0,0.3,0,0.2,0.3c-0.1,0.5-0.2,1.1-0.3,1.6c0,0.1-0.1,0.1-0.2,0.1c-1.1,0-2.3,0-3.4,0c-0.7,0-1.3,0-2,0    c-0.1,0-0.2,0.1-0.2,0.2c-0.1,0.5-0.2,1.1-0.3,1.6c-0.1,0.5-0.2,1-0.3,1.5c0,0.3,0,0.3,0.2,0.3c1.6,0,3.2,0,4.9,0h0.9    c0.2,0,0.3,0,0.2,0.2c-0.1,0.4-0.1,0.8-0.2,1.2c0,0.1-0.1,0.3-0.1,0.4c0,0.1-0.1,0.1-0.2,0.1c-0.1,0-0.1,0-0.2,0h-8    c-0.2,0-0.2,0-0.2-0.2c0.2-0.9,0.3-1.9,0.5-2.8c0.1-0.7,0.3-1.5,0.4-2.2c0.2-0.9,0.3-1.8,0.5-2.8c0.1-0.8,0.3-1.6,0.4-2.4    c0.1-0.8,0.3-1.5,0.4-2.3c0-0.1,0.1-0.2,0.2-0.2c2.6,0,5.2,0,7.8,0L-354-1418.2"></path>			<path id="Path_7662_00000067918411879603486020000018214382664734174340_" class="st2" d="M-374-1405.2c0.1-0.5,0.1-0.9,0.2-1.3    c0.1-0.7,0.3-1.5,0.4-2.2c0.1-0.7,0.2-1.4,0.4-2c0.2-1.2,0.4-2.4,0.6-3.5c0.1-0.8,0.3-1.6,0.4-2.4c0.1-0.4,0.1-0.8,0.2-1.2    c0-0.1,0.1-0.2,0.2-0.2c2.6,0,5.2,0,7.9,0c0,0,0.1,0,0.2,0c0,0.2,0,0.3-0.1,0.4c-0.1,0.4-0.2,0.9-0.3,1.3c0,0.2-0.1,0.2-0.3,0.2    c-1.8,0-3.5,0-5.3,0c-0.6,0-0.4-0.1-0.5,0.5c-0.1,0.7-0.3,1.5-0.4,2.2c0,0.2-0.1,0.4-0.1,0.5c0,0.1,0,0.1,0.1,0.1    c0.1,0,0.1,0,0.2,0h5.2c0.2,0,0.3,0,0.2,0.3c-0.1,0.5-0.2,1.1-0.3,1.6c0,0.1-0.1,0.1-0.2,0.1c-0.2,0-0.3,0-0.5,0    c-1.5,0-3,0-4.4,0c-0.2,0-0.4,0-0.5,0c-0.1,0-0.1,0.1-0.1,0.1c-0.2,1.1-0.4,2.1-0.6,3.2c0,0.1,0,0.2,0.1,0.2c0.2,0,0.3,0,0.5,0    c1.8,0,3.6,0,5.5,0c0.1,0,0.2,0,0.2,0.2c-0.1,0.6-0.2,1.1-0.3,1.7c0,0.1-0.1,0.2-0.2,0.2c-2.7,0-5.5,0-8.2,0    C-373.9-1405.2-373.9-1405.2-374-1405.2"></path>			<path id="Path_7663_00000131345719902778192740000003983317519195425963_" class="st2" d="M-343.1-1407.3c0.6,0,1.1,0.4,1.1,1    c0,0,0,0,0,0.1c0,0.6-0.4,1.1-1,1.1c0,0,0,0,0,0c-0.6,0-1.1-0.4-1.1-1c0,0,0,0,0,0c-0.1-0.6,0.4-1.1,0.9-1.1    C-343.2-1407.3-343.2-1407.3-343.1-1407.3 M-343.1-1405.3c0.5,0,0.9-0.4,0.9-1s-0.4-0.9-1-0.9c-0.5,0-0.9,0.4-0.9,1    C-344.1-1405.7-343.7-1405.3-343.1-1405.3"></path>			<path id="Path_7664_00000183209349484822504420000006631882271287470519_" class="st2" d="M-343.5-1405.6c0,0,0-0.1,0-0.1    c0-0.3,0-0.6,0-0.9c0-0.1,0.1-0.2,0.2-0.2c0.1,0,0.3,0,0.4,0c0.1,0,0.3,0,0.3,0.2c0,0.2,0,0.3-0.2,0.4c0,0,0,0,0,0l-0.1,0    l0.3,0.5c0,0,0,0,0,0c-0.1,0-0.1,0-0.2-0.1c-0.1-0.1-0.1-0.3-0.2-0.4c-0.1-0.1-0.1-0.1-0.2-0.1c0,0-0.1,0.1-0.1,0.2    C-343.4-1405.9-343.4-1405.8-343.5-1405.6L-343.5-1405.6 M-343.1-1406.7C-343.2-1406.7-343.2-1406.7-343.1-1406.7    c-0.2,0-0.3,0.1-0.3,0.2c0,0.1,0.1,0.2,0.2,0.1c0,0,0.1,0,0.1,0c0.2,0,0.4,0,0.4-0.2C-342.8-1406.6-342.9-1406.7-343.1-1406.7"></path>		</g>	</g></g><g id="Group_19387_00000047038697291396856740000013226952862195711369_" transform="translate(1036.52 1439)">	<g>		<defs>			<rect id="SVGID_00000173119386447689919360000005631475215358421654_" x="-526.5" y="-1421" width="101" height="21.6"></rect>		</defs>		<clipPath id="SVGID_00000072249177208410485680000000121598794065675168_">			<use xlink:href="#SVGID_00000173119386447689919360000005631475215358421654_" style="overflow:visible;"></use>		</clipPath>					<g id="Group_19386_00000083801828567503173480000009476290888320870308_" transform="translate(0 0)" style="clip-path:url(#SVGID_00000072249177208410485680000000121598794065675168_);">			<path id="Path_7665_00000168814364591484891390000010925181170282994057_" class="st2" d="M-522.6-1421c0.8,0.5,0.8,0.9,0.3,1.7    c-3.2,5.2-3.2,10.5,0,15.7c0.1,0.2,0.2,0.3,0.3,0.5c0.1,0.5-0.1,1-0.6,1.1c-0.4,0.1-0.8,0-1-0.4c-0.5-0.7-0.9-1.4-1.3-2.2    c-2.5-5.5-2.1-10.8,1.1-15.9c0.2-0.2,0.4-0.5,0.6-0.6H-522.6z"></path>			<path id="Path_7665_00000117640560242614203680000006139196209457312942_" class="st2" d="M-430-1420.5c-0.3,0.1-0.6,0.4-0.6,0.7    c0,0.3,0.1,0.7,0.3,0.9c3.2,5.2,3.2,10.5,0,15.7c-0.1,0.2-0.2,0.3-0.3,0.5c-0.1,0.5,0.1,1,0.6,1.1c0.4,0.1,0.8,0,1-0.4    c0.5-0.7,0.9-1.4,1.3-2.2c0.7-1.5,1.2-3,1.4-4.6c0.2-1.5,0.3-3,0.1-4.5c-0.2-1.5-0.7-3-1.3-4.4c-0.2-0.5-0.5-1.1-0.8-1.6    c-0.2-0.4-0.5-1.1-1-1.3C-429.6-1420.6-429.8-1420.6-430-1420.5z"></path>			<path id="Path_7667_00000166634607985417310870000014325365388031985825_" class="st2" d="M-451.6-1415.2c2-2.5,4.7-2.5,6.4,0.1    c0.2-0.2,0.3-0.4,0.5-0.6c1.1-1.3,2.4-1.5,4-1.1c1.3,0.3,2.4,1.4,2.6,2.8c0.1,0.6,0.2,1.2,0.2,1.8c0,1.9,0,3.9,0,5.8    c0,0.3,0,0.4-0.4,0.4c-1.2,0-2.4,0-3.5,0c-0.3,0-0.3-0.1-0.3-0.3c0-1.8,0-3.6,0-5.4c0-0.4,0-0.7-0.1-1.1c-0.1-0.5-0.5-0.9-1-0.8    c0,0,0,0,0,0c-0.5-0.1-1,0.2-1.2,0.7c-0.1,0.4-0.2,0.9-0.1,1.4c0,1.7,0,3.4,0,5.1c0,0.3-0.1,0.4-0.4,0.4c-1.2,0-2.3,0-3.5,0    c-0.3,0-0.4-0.1-0.4-0.4c0-1.8,0-3.6,0-5.3c0-0.3,0-0.7-0.1-1c-0.1-0.6-0.7-1-1.3-0.9c-0.4,0.1-0.7,0.4-0.9,0.8    c-0.1,0.4-0.2,0.9-0.1,1.3c0,1.7,0,3.5,0,5.2c0,0.3-0.1,0.4-0.4,0.4c-1.2,0-2.3,0-3.5,0c-0.3,0-0.3-0.1-0.3-0.4    c0-3.3,0-6.6,0-9.9c0-0.3,0.1-0.3,0.3-0.3c1.1,0,2.2,0,3.2,0c0.2,0,0.4,0,0.3,0.3C-451.7-1416-451.6-1415.6-451.6-1415.2"></path>			<path id="Path_7668_00000123429170324766555770000012029619781300174009_" class="st2" d="M-511.9-1409.4c0.6,0,1.2,0,1.7,0    c0.2,0,0.3,0,0.3,0.2c0.3,0.8,1.2,1.3,2.1,1c0.2-0.1,0.3-0.1,0.5-0.2c0.3-0.3,0.4-0.7,0.1-1c-0.1-0.1-0.2-0.2-0.3-0.2    c-0.6-0.2-1.2-0.4-1.8-0.5c-0.9-0.2-1.8-0.4-2.6-0.8c-2.2-1-2.1-4-0.3-5.2c0.9-0.5,1.8-0.8,2.8-0.9c1.4-0.2,2.8,0,4.1,0.5    c1,0.4,1.8,1.3,2,2.4c0,0.3,0,0.4-0.3,0.4c-1.1,0-2.2,0-3.2,0c-0.2,0-0.3-0.1-0.4-0.3c-0.4-0.7-1.3-1-2-0.6    c-0.1,0-0.1,0.1-0.2,0.1c-0.2,0.2-0.3,0.5-0.1,0.8c0.1,0.1,0.1,0.1,0.2,0.2c0.4,0.2,0.8,0.3,1.2,0.4c0.9,0.2,1.8,0.4,2.7,0.7    c0.2,0.1,0.5,0.2,0.7,0.3c1,0.4,1.7,1.3,1.7,2.4c0.1,1.2-0.5,2.3-1.5,2.9c-0.8,0.5-1.8,0.8-2.7,0.9c-1.5,0.2-3.1,0.1-4.5-0.4    c-1.2-0.4-2.1-1.5-2.3-2.8c0-0.2,0-0.3,0.2-0.3C-513.1-1409.4-512.5-1409.4-511.9-1409.4"></path>			<path id="Path_7669_00000175286933321938266130000013182428715271794058_" class="st2" d="M-455.9-1406.1c-1.1,0-2.2,0-3.3,0    c-0.4,0-1,0.1-1.3-0.1c-0.3-0.2-0.4-0.7-0.6-1.1c-0.3-0.6-0.6-1.2-0.9-1.8c0,0,0,0-0.1-0.1c-0.4,0.9-0.9,1.7-1.3,2.6    c-0.1,0.3-0.4,0.4-0.6,0.4c-1.4,0-2.8,0-4.2,0c0-0.2,0.1-0.3,0.2-0.4c1.1-1.6,2.2-3.2,3.3-4.9c0.2-0.2,0.2-0.4,0-0.6    c-1-1.5-2-2.9-3.1-4.4c-0.1-0.1-0.2-0.2-0.2-0.4h1.8c0.8,0,1.7,0,2.5,0c0.2,0,0.4,0.1,0.5,0.3c0.4,0.8,0.8,1.5,1.2,2.3    c0.4-0.8,0.8-1.5,1.2-2.2c0.1-0.3,0.4-0.5,0.7-0.5c1.4,0,2.7,0,4.1,0c0,0.2-0.1,0.2-0.1,0.3c-1.1,1.5-2.1,3-3.2,4.4    c-0.2,0.2-0.2,0.4,0,0.6c1.1,1.6,2.2,3.3,3.3,4.9C-455.9-1406.4-455.9-1406.2-455.9-1406.1"></path>			<path id="Path_7670_00000085930545573953131950000004251839196896885636_" class="st2" d="M-480.3-1407.3    c-0.1,0.1-0.2,0.2-0.2,0.2c-1,1.2-2.7,1.6-4.2,1c-1.1-0.5-1.8-1.5-1.8-2.7c-0.1-1.9,0-3.8-0.1-5.7c0-0.2,0-0.3,0.2-0.3    c1,0,2,0,3,0c0.3,0,0.2,0.2,0.2,0.3c0,1.4,0,2.8,0,4.2c0,0.3,0,0.6,0.1,0.8c0.1,0.5,0.5,0.9,1,0.9c0.5,0.1,1.1-0.2,1.3-0.7    c0.1-0.3,0.2-0.7,0.2-1c0-1.4,0-2.8,0-4.1c0-0.3,0.1-0.4,0.4-0.4c0.9,0,1.8,0,2.8,0c0.2,0,0.3,0,0.3,0.3c0,2.7,0,5.3,0,8    c0,0.2-0.1,0.3-0.3,0.3c-0.9,0-1.7,0-2.6,0c-0.3,0-0.3-0.1-0.3-0.3C-480.3-1406.6-480.3-1406.9-480.3-1407.3"></path>			<path id="Path_7671_00000050655253342452987520000002934289407792238244_" class="st2" d="M-475.1-1408.7c0.4,0,0.9,0,1.3,0    c0.2,0,0.3,0,0.3,0.2c0.2,1,1.5,1,2,0.6c0.3-0.2,0.3-0.6,0.1-0.8c-0.1-0.1-0.2-0.2-0.3-0.2c-0.5-0.2-1-0.3-1.6-0.4    c-0.6-0.1-1.3-0.3-1.9-0.5c-0.8-0.3-1.3-1-1.4-1.9c-0.1-0.9,0.3-1.9,1.1-2.4c0.6-0.4,1.3-0.6,2.1-0.7c1.1-0.1,2.2-0.1,3.3,0.3    c1,0.3,1.7,1.1,1.9,2c0.1,0.3,0,0.3-0.3,0.3c-0.8,0-1.7,0-2.5,0c-0.2,0-0.3,0-0.3-0.2c-0.3-0.6-1.1-0.8-1.6-0.5    c0,0-0.1,0-0.1,0.1c-0.2,0.1-0.3,0.4-0.1,0.6c0.1,0.1,0.1,0.1,0.2,0.2c0.4,0.2,0.8,0.3,1.2,0.4c0.8,0.1,1.5,0.3,2.3,0.6    c1,0.4,1.7,1,1.7,2.2c0.1,1.1-0.6,2.1-1.6,2.5c-1.8,0.8-3.8,0.8-5.6,0.1c-0.9-0.3-1.6-1.1-1.7-2.1c-0.1-0.3,0-0.4,0.3-0.4    C-476-1408.7-475.5-1408.7-475.1-1408.7"></path>			<path id="Path_7672_00000135650287814747555540000005561686658914214292_" class="st2" d="M-494.6-1413c0.1-0.2,0.2-0.4,0.3-0.6    c0.5-0.9,1.5-1.4,2.5-1.3c0.1,0,0.3,0,0.3,0.2c0,1.1,0,2.1,0,3.2c-0.3-0.1-0.6-0.1-0.9-0.1c-1-0.1-1.8,0.7-1.8,1.6c0,0,0,0,0,0    c-0.1,1-0.1,2.1-0.1,3.1c0,0.7,0,0.7-0.7,0.7c-0.8,0-1.6,0-2.4,0c-0.2,0-0.3-0.1-0.3-0.3c0-2.7,0-5.3,0-8c0-0.2,0.1-0.3,0.3-0.3    c0.8,0,1.7,0,2.5,0c0.3,0,0.3,0.1,0.3,0.3C-494.7-1413.9-494.7-1413.5-494.6-1413L-494.6-1413"></path>			<path id="Path_7673_00000004536138588318845520000016481272103375564681_" class="st2" d="M-487.4-1410.4c0,1.3,0,2.6,0,4    c0,0.3-0.1,0.4-0.4,0.4c-0.9,0-1.8,0-2.8,0c-0.3,0-0.3-0.1-0.3-0.3c0-2.7,0-5.3,0-8c0-0.3,0.1-0.3,0.3-0.3c0.9,0,1.9,0,2.8,0    c0.3,0,0.3,0.1,0.3,0.3C-487.4-1413-487.4-1411.7-487.4-1410.4"></path>			<path id="Path_7674_00000097492847065333316740000009197057448416803738_" class="st2" d="M-498.7-1410.3c0,1.3,0,2.6,0,3.9    c0,0.3-0.1,0.4-0.4,0.4c-0.9,0-1.8,0-2.7,0c-0.2,0-0.3,0-0.3-0.3c0-2.7,0-5.3,0-8c0-0.3,0.1-0.3,0.3-0.3c0.9,0,1.9,0,2.8,0    c0.3,0,0.3,0.1,0.3,0.3C-498.7-1413-498.7-1411.7-498.7-1410.3"></path>			<path id="Path_7675_00000141442248636401221610000014089340560139520160_" class="st2" d="M-429.2-1411.3c0,2.3-0.8,4.5-2.1,6.4    c-0.2,0.4-0.6,0.6-1,0.5c-0.5-0.1-0.8-0.5-0.8-1c0-0.2,0.1-0.3,0.2-0.5c2.4-3.2,2.4-7.7,0.1-10.9c-0.2-0.2-0.3-0.5-0.3-0.9    c0-0.4,0.3-0.7,0.7-0.8c0.4-0.1,0.8,0,1,0.4c0.7,1,1.3,2,1.7,3.2C-429.4-1413.7-429.2-1412.5-429.2-1411.3"></path>			<path id="Path_7676_00000169536848632684084460000010999374255393046913_" class="st2" d="M-522.7-1411.4c0-2.4,0.7-4.7,2.2-6.6    c0.2-0.5,0.8-0.6,1.3-0.4c0.5,0.2,0.6,0.8,0.4,1.3c0,0.1-0.1,0.2-0.2,0.2c-2.4,3.2-2.4,7.7,0,10.9c0.4,0.4,0.4,1,0,1.3    c-0.4,0.4-1,0.4-1.3,0c-0.1-0.1-0.1-0.1-0.2-0.2C-522-1406.8-522.8-1409-522.7-1411.4"></path>			<path id="Path_7677_00000152979639366181895780000007140537832109716921_" class="st2" d="M-516.5-1416.2c0.3,0,0.6,0.2,0.8,0.5    c0.2,0.3,0.1,0.7-0.1,1c-0.4,0.5-0.7,1.1-0.9,1.7c-0.5,1.6-0.3,3.5,0.8,4.8c0.1,0.2,0.3,0.4,0.3,0.6c0.1,0.4-0.1,0.8-0.5,1    c-0.4,0.2-0.9,0.1-1.1-0.2c-0.6-0.8-1.1-1.6-1.3-2.6c-0.6-2.1-0.2-4.4,1.1-6.1C-517.2-1416-516.9-1416.2-516.5-1416.2"></path>			<path id="Path_7678_00000013891871486266332130000002632979937921787308_" class="st2" d="M-433.2-1411.2c0,1.5-0.6,2.9-1.5,4.1    c-0.3,0.5-0.8,0.6-1.3,0.3c0,0,0,0-0.1,0c-0.4-0.3-0.5-0.9-0.2-1.3c0,0,0-0.1,0.1-0.1c1.5-1.9,1.5-4.6,0.1-6.5    c-0.4-0.4-0.3-1,0-1.3s1-0.3,1.3,0c0.1,0.1,0.1,0.1,0.1,0.2C-433.6-1414.4-433.1-1412.8-433.2-1411.2"></path>			<path id="Path_7679_00000126293686974789487330000008553547142589394604_" class="st2" d="M-489.1-1415.4c-0.5,0-0.9,0-1.4,0    c-0.3,0-0.3-0.1-0.3-0.3c0-0.4-0.2-1,0.1-1.2c0.2-0.2,0.8-0.1,1.2-0.1c0.6,0,1.2,0,1.8,0c0.2,0,0.4,0,0.3,0.3c0,0.3,0,0.7,0,1    c0,0.2,0,0.3-0.3,0.3C-488.1-1415.4-488.6-1415.4-489.1-1415.4"></path>			<path id="Path_7680_00000116942995833213867800000009296904495574511028_" class="st2" d="M-500.4-1417c0.5,0,0.9,0,1.4,0    c0.2,0,0.3,0,0.3,0.2c0,0.4,0,0.8,0,1.2c0,0.2-0.1,0.2-0.2,0.2c-1,0-2,0-3,0c-0.2,0-0.3-0.1-0.2-0.2c0-0.4,0-0.8,0-1.1    c0-0.2,0.1-0.3,0.3-0.3C-501.4-1417-500.9-1417-500.4-1417"></path>			<path id="Path_7681_00000045584375778545313140000008724120860173579170_" class="st2" d="M-450.8-1399.4    c-0.8,0.1-1.5-0.5-1.5-1.3c0,0,0-0.1,0-0.1c0-0.9,0.7-1.5,1.6-1.5c0.8,0,1.5,0.7,1.5,1.5c0,0.8-0.6,1.5-1.4,1.5    C-450.7-1399.4-450.8-1399.4-450.8-1399.4 M-451.7-1400.9c0,0.5,0.4,0.9,0.9,0.9c0,0,0,0,0,0c0.5,0,0.9-0.4,0.9-0.9    c0-0.5-0.4-0.9-0.9-0.9c0,0,0,0,0,0C-451.3-1401.8-451.7-1401.4-451.7-1400.9C-451.7-1400.9-451.7-1400.9-451.7-1400.9"></path>			<path id="Path_7682_00000010277029504471387630000000360350590735305905_" class="st2" d="M-465-1399.5c-0.4,0.2-0.8,0-1-0.4    c0,0,0,0,0,0c-0.1-0.2-0.2-0.5-0.6-0.5c-0.2,0-0.3,0-0.3,0.2c0,0.1,0,0.2,0,0.4c0,0.3-0.1,0.4-0.3,0.4c-0.3,0-0.3-0.1-0.3-0.4    c0-0.8,0-1.5,0-2.3c0-0.2,0.1-0.3,0.3-0.3c0.4,0,0.8,0,1.2,0c0.4,0,0.8,0.3,0.9,0.6c0.2,0.4,0,0.9-0.4,1.1    c-0.2,0.1-0.2,0.2-0.1,0.3C-465.3-1400-465.2-1399.7-465-1399.5 M-466.4-1400.9c0.1,0,0.2,0,0.3,0c0.3,0,0.4-0.2,0.4-0.4    c0-0.3-0.2-0.4-0.4-0.4c-0.2,0-0.3,0-0.5,0c-0.1,0-0.2,0-0.2,0.1c-0.1,0.2-0.1,0.5,0.2,0.7    C-466.6-1400.9-466.5-1400.9-466.4-1400.9"></path>			<path id="Path_7683_00000135673228829034139610000001806857916702138809_" class="st2" d="M-459-1400.9c0-0.4,0-0.8,0-1.2    c0-0.2,0-0.3,0.3-0.3c0.4,0,0.7,0,1.1,0c0.8,0,1.4,0.7,1.4,1.5c0,0.7-0.5,1.2-1.2,1.3c-0.4,0.1-0.9,0.1-1.3,0.1    c-0.2,0-0.2-0.1-0.2-0.2C-459-1400.1-459-1400.5-459-1400.9 M-458.4-1400.9c0,0.2,0,0.4,0,0.6c0,0.1,0,0.2,0.1,0.2    c0.4,0.1,0.7,0,1-0.3c0.2-0.3,0.3-0.6,0.2-1c-0.1-0.3-0.4-0.5-0.8-0.5c-0.5,0-0.5,0-0.5,0.5L-458.4-1400.9"></path>			<path id="Path_7684_00000062910586096497963150000000947919581014555530_" class="st2" d="M-473.7-1400.9c0-0.4,0-0.8,0-1.2    c0-0.2,0-0.3,0.2-0.2c0.6,0,1.2,0,1.7,0c0.2,0,0.2,0.1,0.2,0.3s0,0.3-0.2,0.3c-0.3,0-0.7,0-1,0c-0.2,0-0.3,0.1-0.3,0.3    c0,0.3,0.1,0.3,0.3,0.3c0.3,0,0.5,0,0.8,0c0.2,0,0.3,0.1,0.3,0.3c0,0.2,0,0.3-0.3,0.3c-0.2,0-0.5,0-0.7,0c-0.2,0-0.4,0-0.4,0.3    c0,0.3,0.1,0.3,0.4,0.3c0.3,0,0.7,0,1,0c0.2,0,0.2,0.1,0.2,0.3c0,0.2,0,0.3-0.2,0.3c-0.6,0-1.2,0-1.8,0c-0.2,0-0.2-0.1-0.2-0.3    C-473.7-1400.1-473.7-1400.5-473.7-1400.9"></path>			<path id="Path_7685_00000051375495561054207860000014774114362664021641_" class="st2" d="M-491.1-1400.9c0-0.4,0-0.8,0-1.2    c0-0.2,0.1-0.2,0.2-0.2c0.6,0,1.2,0,1.7,0c0.2,0,0.2,0.1,0.2,0.3c0,0.2,0,0.3-0.2,0.3c-0.4,0-0.7,0-1.1,0c-0.3,0-0.2,0.1-0.2,0.3    c0,0.2,0,0.3,0.2,0.3c0.3,0,0.6,0,0.9,0c0.2,0,0.2,0.1,0.2,0.3c0,0.2,0,0.3-0.2,0.3c-0.3,0-0.6,0-0.9,0c-0.3,0-0.3,0.1-0.3,0.3    c0,0.2,0,0.3,0.3,0.3c0.4,0,0.7,0,1.1,0c0.2,0,0.3,0.1,0.3,0.3c0,0.2,0,0.3-0.3,0.3c-0.6,0-1.1,0-1.7,0c-0.3,0-0.3-0.1-0.3-0.3    C-491.1-1400.1-491.1-1400.5-491.1-1400.9"></path>			<path id="Path_7686_00000163780699566692551860000014675926609903124398_" class="st2" d="M-496.4-1399.4c-0.2,0.1-0.4,0-0.4-0.2    c0,0,0-0.1,0-0.1c-0.1-0.3-0.3-0.4-0.5-0.3c-0.1,0-0.2,0-0.4,0c-0.3,0-0.6,0-0.7,0.4c-0.1,0.4-0.4,0.2-0.6,0.2    c-0.1,0-0.1-0.1,0-0.2c0.4-0.9,0.7-1.7,1.1-2.6c0.1-0.2,0.3-0.1,0.4-0.1c0.1,0,0.3,0,0.3,0.2c0.4,0.8,0.7,1.7,1.1,2.5    C-496-1399.3-496.2-1399.5-496.4-1399.4 M-497.9-1400.7c0.3,0,0.5,0.1,0.7,0c0.1-0.1-0.1-0.4-0.2-0.6c0-0.1-0.1-0.2-0.2-0.2    L-497.9-1400.7"></path>			<path id="Path_7687_00000029012065400736771400000010333504896874041276_" class="st2" d="M-463.6-1399.4    c0.4-0.9,0.8-1.9,1.2-2.8c0.1-0.2,0.6-0.2,0.7,0c0.4,0.9,0.8,1.8,1.2,2.8c-0.4,0.1-0.7,0.1-0.8-0.4c0-0.1-0.1-0.2-0.2-0.2    c0,0,0,0,0,0c-0.3,0-0.6,0-0.9,0c-0.1,0-0.2,0.1-0.2,0.2c0,0,0,0,0,0C-462.9-1399.4-463.2-1399.4-463.6-1399.4 M-462.1-1401.6    c-0.1,0.3-0.2,0.5-0.3,0.7c0,0.1-0.1,0.2,0.1,0.2c0.2,0,0.4,0,0.6,0c0.1-0.1-0.1-0.2-0.1-0.4    C-461.9-1401.2-462-1401.3-462.1-1401.6"></path>			<path id="Path_7688_00000176040360474267696330000003797345455040205981_" class="st2" d="M-501.6-1399.4c-0.3,0-0.6-0.1-0.8-0.2    c-0.1-0.1-0.4-0.1-0.2-0.3c0.1-0.2,0.2-0.4,0.5-0.2c0.2,0.2,0.5,0.2,0.8,0.2c0.1,0,0.2-0.1,0.2-0.2c0-0.1-0.1-0.2-0.2-0.2    c-0.2-0.1-0.5-0.1-0.7-0.2c-0.5-0.2-0.7-0.4-0.6-0.9c0-0.4,0.4-0.7,0.8-0.8c0.3-0.1,0.7,0,1,0.2c0.1,0.1,0.4,0.1,0.2,0.3    c-0.1,0.1-0.2,0.4-0.5,0.2c-0.2-0.1-0.4-0.2-0.6-0.1c-0.1,0-0.2,0.1-0.3,0.2c0,0.1,0.1,0.2,0.2,0.3c0.2,0.1,0.3,0.1,0.5,0.2    c0.7,0.2,0.9,0.5,0.8,1C-500.5-1399.6-500.9-1399.4-501.6-1399.4"></path>			<path id="Path_7689_00000066498833959952344190000011943880768504487847_" class="st2" d="M-476.4-1402.3c0.3,0,0.6,0,0.9,0    c0.2,0,0.4,0,0.4,0.3c0,0.3-0.1,0.3-0.4,0.3c-0.5,0-0.5,0-0.5,0.5c0,0.5,0,1,0,1.4c0,0.2-0.1,0.3-0.3,0.3c-0.2,0-0.4-0.1-0.3-0.3    c0-0.5,0-1.1,0-1.6c0-0.4-0.1-0.5-0.5-0.4c-0.3,0-0.5,0-0.4-0.4c0-0.2,0.1-0.2,0.2-0.2C-477.1-1402.3-476.8-1402.3-476.4-1402.3"></path>			<path id="Path_7690_00000163059864124898443530000011691500295234013861_" class="st2" d="M-493.9-1402.3c0.3,0,0.7,0,1,0    c0.3,0,0.2,0.1,0.2,0.3c0,0.2,0,0.3-0.2,0.3c-0.7,0-0.7,0-0.7,0.7c0,0.4,0,0.8,0,1.3c0,0.3-0.1,0.4-0.3,0.4s-0.3-0.1-0.3-0.3    c0-0.5,0-1,0-1.5c0-0.5,0-0.5-0.5-0.5c-0.3,0-0.4-0.1-0.4-0.4c0-0.2,0.1-0.2,0.2-0.2C-494.5-1402.3-494.2-1402.3-493.9-1402.3"></path>			<path id="Path_7691_00000016051749236501008200000005604845092330944640_" class="st2" d="M-483.6-1400.9c0-0.4,0-0.8,0-1.2    c0-0.3,0.2-0.2,0.3-0.2c0.2,0,0.3,0,0.3,0.2c0,0.4,0,0.7,0,1.1c0,0.3-0.1,0.7,0.1,0.9c0.2,0.2,0.6,0,0.9,0.1c0.1,0,0.2,0,0.2,0    c0.2,0,0.2,0.1,0.2,0.3c0,0.2,0,0.3-0.2,0.3c-0.6,0-1.1,0-1.7,0c-0.2,0-0.2-0.1-0.2-0.2C-483.6-1400-483.6-1400.5-483.6-1400.9"></path>			<path id="Path_7692_00000101062095421890044710000007601524450160996256_" class="st2" d="M-486.6-1401.1c0,0.3-0.2,0.8,0.1,1    s0.7,0.1,1.1,0.1c0.2,0,0.3,0,0.3,0.3s-0.1,0.3-0.3,0.3c-0.5,0-1,0-1.5,0c-0.2,0-0.3,0-0.3-0.3c0-0.8,0-1.6,0-2.4    c0-0.3,0.2-0.2,0.3-0.2c0.2,0,0.3,0,0.3,0.2C-486.6-1401.8-486.6-1401.5-486.6-1401.1"></path>			<path id="Path_7693_00000059288337194368942600000003113107670625327547_" class="st2" d="M-454-1400.9c0,0.4,0,0.8,0,1.2    c0,0.3-0.2,0.3-0.4,0.3c-0.2,0-0.3,0-0.3-0.3c0-0.8,0-1.6,0-2.4c0-0.3,0.1-0.3,0.3-0.3c0.2,0,0.4,0,0.4,0.3    C-454-1401.7-454-1401.3-454-1400.9"></path>			<path id="Path_7694_00000061460623519029157910000003353340941590641539_" class="st2" d="M-479.2-1400.9c0,0.4,0,0.8,0,1.2    c0,0.3-0.1,0.2-0.3,0.2c-0.2,0-0.3,0.1-0.3-0.2c0-0.8,0-1.7,0-2.5c0-0.3,0.2-0.2,0.3-0.2s0.3-0.1,0.3,0.2    C-479.3-1401.7-479.2-1401.3-479.2-1400.9"></path>			<path id="Path_7695_00000080915346263379265290000013767222935758839428_" class="st2" d="M-437.9-1417l-0.3-0.5    c0,0.3,0,0.4,0,0.6c0,0.1,0,0.2-0.1,0.2c-0.2,0-0.1-0.2-0.1-0.2c0-0.2,0-0.5,0-0.7c0-0.1,0-0.2,0.1-0.2c0.1,0,0.2,0,0.2,0.1    c0,0.1,0.1,0.1,0.1,0.2c0.1,0.3,0.2,0.2,0.4,0c0.1-0.1,0.1-0.3,0.3-0.2c0.2,0.1,0.1,0.2,0.1,0.4c0,0.2,0,0.4,0,0.6    c0,0.1,0,0.1-0.1,0.2c-0.1,0-0.1-0.1-0.1-0.2c0-0.2,0-0.3,0-0.5C-437.7-1417.3-437.7-1417.1-437.9-1417"></path>			<path id="Path_7696_00000021809912227976177440000002340692227458261157_" class="st2" d="M-439.1-1417.9c0.1,0,0.1,0,0.2,0    c0.1,0,0.2,0,0.2,0.1c0,0.1-0.1,0.1-0.2,0.1c-0.3,0-0.1,0.3-0.2,0.4c0,0.2,0.1,0.5-0.1,0.5c-0.2,0-0.1-0.3-0.1-0.5    c0-0.2,0.1-0.4-0.2-0.4c-0.1,0-0.2,0-0.2-0.1c0-0.1,0.1-0.1,0.2-0.1C-439.3-1417.9-439.2-1417.9-439.1-1417.9"></path>		</g>	</g></g><g id="Group_19403_00000125580960147430205270000006214374740923003562_" transform="translate(1308.6 1442.992)">	<g>		<defs>			<rect id="SVGID_00000033367594500605423280000009079922953458839996_" x="-632.4" y="-1421.8" width="213.8" height="15.5"></rect>		</defs>		<clipPath id="SVGID_00000062157200763385711170000000413405084392236710_">			<use xlink:href="#SVGID_00000033367594500605423280000009079922953458839996_" style="overflow:visible;"></use>		</clipPath>					<g id="Group_19402_00000134223614012409323240000017941081608541802938_" transform="translate(0 0.008)" style="clip-path:url(#SVGID_00000062157200763385711170000000413405084392236710_);">			<path id="Path_7768_00000003064028445688438430000005817394088039346351_" class="st2" d="M-561.3-1414.1v-6.5    c0-0.7,0.2-0.9,0.9-0.9h0.8c0.7,0,0.9,0.2,0.9,0.9v3.9c0,0.4,0,0.7,0,1c0,0.2,0.1,0.3,0.3,0.3c1.8,0,3.6,0,5.5,0    c0.3,0,0.3-0.2,0.3-0.4v-4.6c0-1,0.1-1.2,1.2-1.2h0.6c0.4,0,0.7,0.3,0.7,0.7c0,0,0,0,0,0v0c0,0.1,0,0.3,0,0.4v12.6    c0,0.9-0.2,1.1-1.1,1.1h-0.7c-0.6,0-0.8-0.3-0.8-0.8v-5.3c0-0.4-0.2-0.6-0.5-0.6c-1.7,0-3.4,0-5,0c-0.4,0-0.5,0.1-0.5,0.5    c0,1.7,0,3.5,0,5.2c0,0.8-0.2,1-1,1h-0.6c-0.7,0-0.9-0.2-0.9-0.9L-561.3-1414.1L-561.3-1414.1z"></path>			<path id="Path_7769_00000088121538894451808470000007011948684740046245_" class="st2" d="M-615.7-1417.6    c-0.1,0.2-0.1,0.3-0.1,0.5v9.2c0,1.1-0.1,1.2-1.2,1.2h-0.2c-0.4,0-0.7-0.2-0.7-0.6c0,0,0-0.1,0-0.1c0-0.4,0-0.9,0-1.3v-10.2    c0-0.8,0.2-1,1-1c0.5,0,1,0,1.5,0c0.6,0,1.1,0.3,1.3,0.8c1.4,3.2,2.9,6.4,4.3,9.5c0.1,0.1,0.1,0.3,0.2,0.5    c0.1-0.2,0.1-0.3,0.1-0.5v-9.2c0-0.9,0.2-1,1.1-1h0.3c0.6,0,0.8,0.2,0.8,0.8v11.5c0,0.6-0.2,0.9-0.9,0.9c-0.6,0-1.1,0-1.7,0    c-0.5,0-1-0.3-1.2-0.8c-1.4-3.2-2.9-6.4-4.4-9.7C-615.6-1417.3-615.6-1417.4-615.7-1417.6L-615.7-1417.6z"></path>			<path id="Path_7770_00000162313791600392885740000001643813941605640107_" class="st2" d="M-474.7-1410.4c0,0.9,0,1.7,0,2.6    c0,0.3-0.2,0.6-0.5,0.7c-1.7,0.7-3.6,0.9-5.5,0.6c-1.5-0.1-2.9-0.8-3.9-1.9c-0.9-1-1.4-2.2-1.5-3.5c-0.3-1.8-0.2-3.6,0.2-5.4    c0.5-2.4,2.4-4.1,4.8-4.4c1.9-0.4,3.9-0.2,5.7,0.5c0.6,0.3,0.7,0.3,0.5,1c-0.1,0.4-0.2,0.9-0.2,1.3c0,0.2,0,0.4-0.3,0.4    c-0.2,0-0.4,0-0.5-0.2c-0.6-0.7-1.4-1.2-2.3-1.4c-2-0.6-4,0.4-4.7,2.4c0,0,0,0,0,0l0,0c0,0.1,0,0.1-0.1,0.2    c-0.7,2.1-0.7,4.4,0,6.6c0.4,1.7,2,2.8,3.8,2.7c0.5,0,0.9,0,1.4-0.1c0.3-0.1,0.5-0.2,0.5-0.5c0-1.4,0-2.8,0-4.2    c0-0.6,0.1-0.7,0.7-0.7c0.5,0,0.9,0,1.3,0c0.4,0,0.5,0.2,0.5,0.5C-474.7-1412.2-474.7-1411.3-474.7-1410.4L-474.7-1410.4z"></path>			<path id="Path_7771_00000043415152575645879080000018022932022171799688_" class="st2" d="M-629.9-1415.7v4.3    c0,0.5,0,1.1,0.2,1.6c0.2,0.8,0.8,1.4,1.6,1.6c0.7,0.2,1.5,0.2,2.2,0c1.2-0.2,2-1.3,1.9-2.5c0-0.7,0-1.3,0-2v-7.9    c0-0.8,0.2-1.1,1-1.1c1.3,0,1.4,0.1,1.4,1.4c0,3,0,6,0,9.1c0,2.6-1.6,4.3-4.2,4.6c-1.1,0.2-2.2,0.1-3.3-0.1    c-2-0.4-3.5-2.2-3.5-4.2c-0.1-3.3,0-6.6,0-9.9c0-0.4,0.3-0.7,0.6-0.8c0,0,0,0,0,0c0,0,0.1,0,0.1,0c0.3,0,0.6,0,0.9,0    c0.6,0,0.9,0.3,0.9,0.9c0,0.8,0,1.6,0,2.4L-629.9-1415.7L-629.9-1415.7z"></path>			<path id="Path_7772_00000030479303443494346810000011918000068275127980_" class="st2" d="M-502.4-1413.3v-5.7    c0-0.7,0.2-0.9,0.9-0.9h0.8c0.5,0,0.8,0.2,0.8,0.8c0,1.4,0,2.8,0,4.2c0,0.4,0.1,0.5,0.5,0.5c1.4,0,2.8,0,4.2,0    c0.3,0,0.4-0.1,0.4-0.4c0-1.4,0-2.7,0-4.1c0-0.7,0.2-0.9,0.9-0.9h0.9c0.5,0,0.8,0.2,0.8,0.8c0,0.9,0,1.8,0,2.7v8.8    c0,0.7-0.2,0.9-0.9,0.9h-0.8c-0.7,0-0.9-0.2-0.9-0.9v-4.3c0.1-0.4-0.2-0.7-0.6-0.8c-0.1,0-0.1,0-0.2,0c-1.3,0-2.6,0-3.9,0    c-0.3,0-0.4,0.1-0.4,0.4c0,1.5,0,3.1,0,4.6c0,0.7-0.2,0.9-0.9,0.9h-0.8c-0.6,0-0.8-0.2-0.8-0.8L-502.4-1413.3L-502.4-1413.3z"></path>			<path id="Path_7773_00000139986416987722300690000008745163338978502528_" class="st2" d="M-471.6-1413.3v-5.8    c0-0.7,0.2-0.9,0.8-0.9c1.8,0,3.5-0.1,5.3,0.1c1.6,0,2.9,1.2,3.2,2.7c0.5,1.7-0.5,3.6-2.2,4.1l0,0l0,0c-0.3,0.1-0.3,0.2-0.2,0.5    c0.9,1.6,1.7,3.1,2.5,4.7c0.1,0.2,0.2,0.3,0.2,0.5c0.1,0.2,0,0.4-0.2,0.5c-0.1,0-0.1,0-0.2,0c-0.5,0-1,0-1.6,0    c-0.2,0-0.5-0.2-0.5-0.4c-1-2-2.1-4.1-3.1-6.1c-0.3-0.6-0.1-0.8,0.5-0.8c0.1,0,0.3,0,0.4,0c0.8,0.1,1.5-0.3,1.8-1    c0.4-0.8,0.3-1.8-0.2-2.6c-0.3-0.4-0.8-0.7-1.3-0.7c-0.8-0.1-1.7,0-2.5-0.1c-0.3,0-0.3,0.2-0.3,0.4v10.4c0,0.7-0.2,0.9-0.9,0.9    h-0.9c-0.6,0-0.8-0.2-0.8-0.8L-471.6-1413.3L-471.6-1413.3z"></path>			<path id="Path_7774_00000004525773264896055760000013596558619989625255_" class="st2" d="M-438.3-1414.7v-4.3    c0-0.7,0.2-0.9,0.9-0.9c0.3,0,0.5,0,0.8,0c0.3,0,0.7,0.2,0.7,0.6l0,0c0,0,0,0.1,0,0.1c0,3,0,5.9,0,8.9c0,1.7-1.2,3.2-2.8,3.6    c-1.4,0.4-2.9,0.4-4.3,0c-1.6-0.4-2.8-1.9-2.9-3.6c-0.1-2,0-4,0-6c0-0.9,0-1.9,0-2.8c0-0.6,0.2-0.8,0.8-0.8h1    c0.6,0,0.8,0.2,0.8,0.8v5.4c0,1.1,0,2.2,0,3.3c0.1,1.9,0.9,2.6,2.7,2.6c1.2,0.1,2.2-0.8,2.3-2c0,0,0,0,0,0l0,0c0-0.1,0-0.2,0-0.3    C-438.3-1411.7-438.3-1413.2-438.3-1414.7L-438.3-1414.7L-438.3-1414.7z"></path>			<path id="Path_7775_00000075861828739557783490000000141329964587072139_" class="st2" d="M-586.5-1413.3v-5.7    c0-0.7,0.2-0.9,0.9-0.9h6.7c0.3,0,0.6,0,0.8,0.4c0.2,0.4,0.2,0.8,0,1.2c-0.2,0.3-0.5,0.3-0.7,0.3c-1.5,0-3,0-4.4,0    c-0.4,0-0.5,0.1-0.5,0.5c0,0.9,0,1.8,0,2.7c0,0.3,0.1,0.4,0.4,0.4c1.3,0,2.7,0,4,0c0.3,0,0.6,0,0.8,0.3c0.2,0.4,0.2,0.8,0,1.2    c-0.2,0.3-0.5,0.3-0.7,0.3c-1.3,0-2.6,0-3.9,0c-0.4,0-0.5,0.1-0.5,0.5c0,1,0,2.1,0,3.1c0,0.4,0.1,0.5,0.5,0.5c1.6,0,3.2,0,4.8,0    c0.3,0,0.6,0,0.8,0.4c0.2,0.4,0.2,0.8,0,1.2c-0.1,0.3-0.4,0.2-0.7,0.2h-7.1c-0.6,0-0.8-0.2-0.8-0.8L-586.5-1413.3z"></path>			<path id="Path_7776_00000074427708381760163180000009116494790625322903_" class="st2" d="M-546.7-1413.3v-5.8    c0-0.7,0.2-0.9,0.9-0.9h6.6c0.3,0,0.6,0,0.8,0.3c0.2,0.4,0.2,0.8,0,1.2c-0.2,0.3-0.5,0.3-0.7,0.3h-4.5c-0.3,0-0.5,0.2-0.5,0.4    c0,0,0,0.1,0,0.1v2.5c0,0.4,0.2,0.6,0.5,0.6h3.9c0.6,0,0.9,0.2,0.9,0.9c0,0.7-0.2,0.9-0.9,0.9c-1.3,0-2.7,0-4,0    c-0.3,0-0.5,0.1-0.5,0.4c0,1.1,0,2.2,0,3.3c0,0.3,0.1,0.4,0.4,0.4c1.6,0,3.2,0,4.9,0c0.3,0,0.7,0,0.8,0.4    c0.1,0.4,0.1,0.8-0.1,1.2c-0.1,0.2-0.3,0.3-0.5,0.2h-7.4c-0.5,0-0.7-0.2-0.7-0.7L-546.7-1413.3L-546.7-1413.3z"></path>			<path id="Path_7777_00000011750989676505038380000010008963329514638510_" class="st2" d="M-433-1413.3v-5.7    c0-0.7,0.2-0.9,0.9-0.9h4.3c0.4,0,0.8,0,1.3,0.1c1.9,0.4,3,1.9,2.9,4.1c-0.1,2.3-1.4,3.7-3.7,3.8c-0.6,0-1.1,0-1.7-0.1    c-0.1,0-0.3-0.1-0.4-0.1c-0.3-0.1-0.4-0.4-0.4-0.6c0-0.3,0.3-0.5,0.6-0.5c0.4,0,0.8,0,1.3-0.1c1-0.1,1.8-0.8,1.9-1.8    c0.1-0.5,0.1-1,0-1.5c-0.2-1.1-1.1-1.8-2.2-1.8c-0.6,0-1.2,0-1.8,0c-0.4,0-0.4,0.1-0.4,0.5c0,2.9,0,5.8,0,8.7v1.8    c0,0.5-0.2,0.7-0.7,0.7h-0.9c-0.7,0-0.9-0.2-0.9-0.9L-433-1413.3L-433-1413.3z"></path>			<path id="Path_7778_00000139257147346728025180000002928401986944300970_" class="st2" d="M-511.2-1412.6c0-1.7,0-3.3,0-4.9    c0-0.4-0.1-0.5-0.5-0.5c-0.9,0-1.7,0-2.6,0c-0.6,0-0.8-0.2-0.8-0.9c0-0.7,0.2-0.9,0.8-0.9h8.7c0.5,0,0.7,0.2,0.8,0.7v0.4    c0,0.5-0.2,0.7-0.7,0.7c-0.9,0-1.7,0-2.6,0c-0.3,0-0.5,0.1-0.5,0.4c0,0,0,0,0,0c0,0,0,0.1,0,0.1v9.8c0,0.8-0.2,1-1,1h-0.8    c-0.6,0-0.8-0.2-0.8-0.8L-511.2-1412.6z"></path>			<path id="Path_7779_00000010997018084612102070000000397655005459951252_" class="st2" d="M-594.9-1412.6c0-1.7,0-3.4,0-5    c0-0.3-0.1-0.5-0.4-0.5c-0.8,0-1.6,0-2.4,0c-0.5,0-0.8-0.2-0.8-0.8v-0.4c0-0.5,0.2-0.7,0.7-0.7h8.4c0.4,0,0.7,0.2,0.7,0.6    c0,0,0,0.1,0,0.1v0.5c0,0.3-0.2,0.7-0.6,0.7c-0.1,0-0.1,0-0.2,0c-0.8,0-1.7,0-2.5,0c-0.4,0-0.4,0.1-0.4,0.5c0,3.3,0,6.6,0,9.9    c0,0.8-0.2,0.9-0.9,0.9h-0.8c-0.6,0-0.8-0.2-0.8-0.8L-594.9-1412.6z"></path>			<path id="Path_7780_00000115493054104043792570000005116079416805645987_" class="st2" d="M-522.3-1413.3v-5.7    c0-0.7,0.2-0.9,0.9-0.9h0.9c0.6,0,0.8,0.2,0.8,0.8v5c0,1.7,0,3.4,0,5.1c0,0.3,0.1,0.4,0.4,0.4c1.3,0,2.5,0,3.8,0    c0.3,0,0.7,0,0.8,0.4c0.2,0.4,0.1,0.9-0.1,1.2c-0.1,0.2-0.3,0.2-0.5,0.2h-6.3c-0.5,0-0.7-0.3-0.7-0.8L-522.3-1413.3z"></path>			<path id="Path_7781_00000167364541949056138880000013398689651623195542_" class="st2" d="M-600.9-1413.3v5.7    c0,0.7-0.2,0.9-0.9,0.9h-1c-0.5,0-0.7-0.2-0.7-0.8v-11.4c0-0.8,0.2-1,1-1h0.8c0.6,0,0.8,0.2,0.8,0.8V-1413.3z"></path>			<path id="Path_7782_00000118396882704182538430000007318150557032842664_" class="st2" d="M-564.8-1416.2    c-0.4-1.7-1.8-3.1-3.5-3.5c-0.6-0.1-1.2-0.2-1.9-0.2h-4.4c-0.7,0-0.9,0.2-0.9,0.9v11.5c0,0.5,0.2,0.8,0.7,0.8c1.8,0,3.6,0,5.3,0    c2.2,0,4.2-1.5,4.7-3.7C-564.3-1412.3-564.3-1414.3-564.8-1416.2L-564.8-1416.2z M-567.3-1410.6c-0.4,1.4-1.7,2.4-3.1,2.3    c-0.7,0-1.4,0-2.1,0c-0.3,0-0.4-0.1-0.4-0.4c0-1.6,0-3.1,0-4.7c0-1.6,0-3.1,0-4.7c0-0.3,0.1-0.4,0.4-0.4c0.8,0,1.6,0,2.4,0    c1.4,0.1,2.5,1,2.9,2.3C-566.8-1414.2-566.8-1412.4-567.3-1410.6L-567.3-1410.6z"></path>			<path id="Path_7783_00000183238250643153334490000015077036587293062285_" class="st2" d="M-448.9-1416.8c-0.5-1.7-1.9-3-3.7-3.3    c-0.8-0.2-1.6-0.2-2.4-0.1c-2.2,0-4.1,1.5-4.6,3.7c-0.3,1-0.4,2.1-0.4,3.2c0,1.2,0.1,2.4,0.5,3.5c0.5,1.8,2,3,3.9,3.3    c0.8,0.1,1.6,0.2,2.4,0.1c2-0.1,3.7-1.4,4.3-3.3C-448.2-1412.1-448.2-1414.5-448.9-1416.8L-448.9-1416.8z M-451.4-1410.3    c-0.3,1.6-1.8,2.6-3.3,2.4c0,0,0,0,0,0c-0.1,0-0.2,0-0.3-0.1c-0.9-0.2-1.6-0.8-1.9-1.7c-0.4-1.2-0.6-2.4-0.5-3.7    c0-1.1,0.1-2.2,0.3-3.2c0.6-2,2.2-2.4,3.8-2.1c0.8,0.2,1.5,0.8,1.8,1.6c0.3,0.8,0.5,1.6,0.5,2.4    C-450.9-1413.1-451-1411.7-451.4-1410.3"></path>			<path id="Path_7784_00000116941008407384447400000006990180305225918910_" class="st2" d="M-524.8-1407.6    c-1.2-3.9-2.5-7.7-3.7-11.6c-0.1-0.4-0.5-0.8-1-0.7c-0.5,0-1,0-1.5,0c-0.8,0-0.9,0.1-1.2,0.9l-1.7,5.4c-0.7,2.1-1.3,4.1-2,6.1    c-0.2,0.6,0,0.8,0.6,0.8h0.5c0.5,0.1,1-0.2,1.1-0.7l0,0l0,0c0.2-0.7,0.4-1.3,0.6-2c0-0.2,0.2-0.3,0.4-0.3c1.4,0,2.8,0,4.2,0    c0.2,0,0.4,0.1,0.4,0.3c0.1,0.5,0.3,1,0.5,1.5c0.2,0.8,0.9,1.3,1.7,1.2h0.4C-524.8-1406.7-524.6-1406.9-524.8-1407.6    L-524.8-1407.6z M-529.1-1411.4c-1,0-2.1,0-3.1,0c-0.2,0-0.3,0-0.2-0.3c0.6-2,1.2-4,1.8-6c0,0,0.1-0.1,0.1-0.1    c0.4,1.3,0.7,2.5,1.1,3.8c0.2,0.8,0.4,1.5,0.7,2.3C-528.7-1411.5-528.7-1411.4-529.1-1411.4L-529.1-1411.4z"></path>			<path id="Path_7785_00000096051106854632250380000013034522224210170753_" class="st2" d="M-420.5-1420.2c-1,0-1.9,0.8-1.9,1.9    c0,0,0,0,0,0l0,0v0c0,1.1,0.8,1.9,1.9,1.9c1.1,0,1.9-0.8,1.9-1.9C-418.6-1419.3-419.4-1420.2-420.5-1420.2    C-420.5-1420.2-420.5-1420.2-420.5-1420.2L-420.5-1420.2L-420.5-1420.2z M-420.5-1416.7c-0.8,0-1.5-0.7-1.6-1.5v-0.1    c0-0.8,0.6-1.6,1.4-1.6s1.6,0.6,1.6,1.4l0,0v0.1C-418.9-1417.5-419.6-1416.7-420.5-1416.7L-420.5-1416.7"></path>			<path id="Path_7786_00000181077970640547844060000017687967161600925619_" class="st2" d="M-419.9-1417.8    c-0.1-0.2-0.3-0.3,0.1-0.5c0.2-0.1,0.3-0.4,0.2-0.6c0-0.2-0.2-0.4-0.5-0.5c-0.1,0-0.3,0-0.4,0c-0.8,0-0.8-0.1-0.8,0.7    c0,0.4,0,0.8,0,1.2c0,0.1-0.1,0.4,0.2,0.4s0.2-0.2,0.2-0.4c0-0.1,0-0.2,0-0.2c0-0.1-0.1-0.3,0.1-0.3c0.2-0.1,0.2,0.1,0.3,0.2    c0.1,0.2,0.3,0.4,0.4,0.6c0.1,0.1,0.2,0.2,0.3,0.1c0.2-0.1,0-0.2-0.1-0.3C-419.8-1417.6-419.9-1417.7-419.9-1417.8L-419.9-1417.8    z M-420.5-1418.5c-0.3,0-0.4-0.1-0.4-0.4c0-0.2,0.1-0.3,0.3-0.3c0.2,0,0.5,0,0.5,0.3C-420-1418.4-420.3-1418.5-420.5-1418.5    L-420.5-1418.5z"></path>		</g>	</g></g><g>	<path class="st2" d="M13.9,13.2c0.1,0,0.3,0,0.4,0c1.5,0.1,2.8,0.5,4.1,1.1c1.7,0.8,3.3,1.9,4.8,3.1c1.7,1.4,3.3,3,4.8,4.7  c1.3,1.5,2.5,3,3.7,4.6c1,1.3,2,2.7,3.1,3.9c1.7,1.9,3.4,3.7,5.5,5.3c1.4,1.1,2.8,2,4.4,2.7c1.2,0.6,2.4,1,3.8,1.1  c1.7,0.2,3.4,0.1,5-0.5c1.7-0.6,3-1.7,4-3.2c0.8-1.2,1.3-2.6,1.7-4c0.2-1,0.4-2,0.5-3c0.1-0.9,0.1-1.8,0.1-2.7  c-0.1-2-0.4-3.9-1.1-5.8c-0.6-1.5-1.5-2.9-2.8-4c-1.2-1.1-2.6-1.7-4.2-2c-1-0.2-2.1-0.2-3.1-0.2c-2.2,0.2-4.3,0.9-6.2,1.9  c-2.1,1.1-3.8,2.6-5.5,4.3c-0.4,0.4-0.8,0.8-1.1,1.2c0,0,0,0-0.1,0.1c0,0,0,0,0-0.1c1.1-1.5,2.3-2.9,3.6-4.2c1.5-1.4,3.1-2.6,5-3.4  c1.2-0.5,2.4-0.8,3.7-1c0.4,0,0.8-0.1,1.2-0.1c0,0,0.1,0,0.1,0c0.4,0,0.7,0,1.1,0c0.2,0,0.3,0,0.5,0c1.4,0.1,2.7,0.5,4,1.1  c1.6,0.8,2.8,1.9,3.8,3.4c1,1.4,1.6,3,2,4.7c0.3,1.2,0.4,2.4,0.5,3.6c0,1,0,2-0.1,3c-0.2,2.1-0.7,4-1.6,5.9c-0.7,1.5-1.7,2.8-3,3.9  c-1.2,1-2.6,1.6-4.2,1.9c-0.8,0.1-1.5,0.2-2.3,0.2c-1.1,0-2.1-0.2-3.1-0.5c-1.8-0.6-3.5-1.5-5-2.7c-1.8-1.3-3.4-2.8-4.9-4.4  c-1.9-1.9-3.5-4-5.1-6.2c-1-1.4-2.1-2.7-3.3-3.9c-1.6-1.8-3.3-3.4-5.2-4.8c-1.3-1-2.7-1.9-4.1-2.5c-1.1-0.5-2.2-0.9-3.4-1.1  c-0.8-0.1-1.6-0.2-2.5-0.1c-0.9,0.1-1.8,0.3-2.7,0.6c-1.6,0.6-2.9,1.6-3.9,2.9c-1,1.3-1.7,2.8-2.1,4.3c-0.3,1-0.4,2.1-0.5,3.1  c-0.1,1-0.1,1.9,0,2.9c0.1,1.8,0.4,3.7,1.1,5.4c0.6,1.4,1.4,2.7,2.5,3.7c1.2,1.1,2.6,1.8,4.2,2.2c1,0.2,2.1,0.3,3.2,0.2  c2.9-0.2,5.4-1.2,7.8-2.8c1.4-0.9,2.7-2.1,3.8-3.3c0,0,0,0,0.1-0.1c-0.1,0.1-0.1,0.2-0.2,0.3c-1.1,1.4-2.2,2.6-3.6,3.6  c-1.7,1.3-3.5,2.2-5.6,2.7c-1.3,0.3-2.7,0.5-4,0.4c-1.3-0.1-2.6-0.3-3.8-0.8c-1.5-0.6-2.7-1.6-3.7-2.8c-1.2-1.4-1.9-3-2.4-4.7  c-0.3-1-0.5-2-0.6-3.1c-0.1-1.1-0.2-2.3-0.1-3.4c0.1-2.1,0.5-4.2,1.3-6.2c0.6-1.4,1.4-2.7,2.5-3.8c1.3-1.2,2.8-2.1,4.5-2.5  c0.7-0.2,1.5-0.3,2.2-0.3c0,0,0.1,0,0.1,0C13.4,13.2,13.6,13.2,13.9,13.2z"></path>	<path class="st2" d="M15.2,28.1c-0.1,0.1-0.3,0.2-0.4,0.2c-0.8,0.6-1.6,1.3-2.4,1.9c-0.2,0.2-0.4,0.4-0.6,0.6  c-0.2,0.3-0.5,0.5-0.7,0.8c-0.2,0.2-0.4,0.5-0.7,0.7c-0.1,0.1-0.4,0.1-0.6,0c-0.1-0.1-0.2-0.4,0-0.5c0.3-0.3,0.5-0.6,0.8-0.8  c0.5-0.4,1-0.9,1.5-1.3c0.7-0.6,1.5-1.2,2.2-1.7c0.3-0.2,0.6-0.4,0.8-0.6c0,0,0,0,0,0c0-0.1,0-0.3,0-0.4c-0.2,0.1-0.3,0.2-0.5,0.2  c-0.2,0.1-0.4,0.1-0.6,0c-0.2-0.1-0.4-0.2-0.4-0.5c0-0.2,0-0.4,0-0.5c0-0.3,0-0.7,0.1-1c0.1-0.4,0.2-0.7,0.5-1  c0.1-0.2,0.3-0.3,0.5-0.3c0.2,0,0.3,0,0.2,0.2c0,0.1-0.1,0.2-0.2,0.3c-0.1,0.1-0.1,0.2-0.2,0.3c-0.1,0.2-0.2,0.4-0.2,0.6  c0,0.3,0,0.5,0,0.8c0,0.1,0,0.2,0.1,0.2c0,0.1,0.1,0.1,0.2,0.1c0.2,0,0.4-0.2,0.4-0.4c0.1-0.3,0.1-0.7,0.1-1c0-0.4,0.1-0.9,0.1-1.3  c0-0.2,0.2-0.3,0.3-0.3c0.1,0,0.3,0,0.4,0.1c0,0,0,0.1,0,0.2c0,0.6-0.1,1.2-0.1,1.7c0,0.3,0,0.6,0,0.9c0,0.2,0,0.3,0,0.5  c1.3-0.9,2.7-1.6,4-2.4c-0.3-0.2-0.2-0.4-0.2-0.7c0-0.4,0-0.9,0-1.3c0-0.2-0.1-0.2-0.3-0.2c-0.1,0-0.2,0.1-0.2,0.1  c-0.1,0.1-0.2,0.2-0.2,0.3c0,0,0,0.1-0.1,0.2c0,0.1-0.1,0.2-0.1,0.3c0,0,0,0,0,0.1c0,0.1-0.1,0.2,0,0.4c-0.1,0.2-0.1,0.4,0,0.6  c0.1,0.3-0.2,0.7-0.5,0.7c-0.2,0-0.3-0.1-0.3-0.2c0-0.3,0-0.6,0-0.9c0-0.4,0-0.7,0.1-1.1c0-0.3,0.3-0.6,0.6-0.6c0.1,0,0.2,0,0.3,0  c0.1,0,0.2-0.1,0.3-0.2c0.1-0.1,0.3-0.3,0.5-0.4c0.1,0,0.2-0.1,0.4,0c0.2,0,0.3,0.2,0.3,0.3c0,0.1,0,0.2,0,0.3c0,0.1,0,0.1,0,0.2  c0,0.2,0,0.4,0,0.6c0,0.1,0,0.3,0,0.4c0,0.2,0,0.3,0,0.5c0,0.1,0.2,0.2,0.3,0.2c0.2-0.1,0.5-0.2,0.7-0.3c0.2-0.1,0.4-0.1,0.6-0.1  c0.1,0,0.2,0.3,0.1,0.4c-0.1,0.3-0.4,0.4-0.6,0.5c-0.8,0.2-1.5,0.6-2.3,1c-0.8,0.4-1.6,0.9-2.3,1.4c-0.3,0.2-0.5,0.3-0.8,0.5  c-0.1,0.1-0.2,0.1-0.3,0.2c0,0,0,0.1,0,0.1c0,0.4,0,0.9,0,1.3c0,0.3,0,0.6,0,0.9c0,0.1,0,0.2,0,0.3c0,0.1,0,0.2,0,0.4  c0,0.1,0,0.2,0,0.2c0,0,0,0,0,0c0,0.1,0,0.2,0.1,0.4c0,0.1,0,0.1,0,0.2c0,0,0,0.1,0,0.1c0.1,0,0.1,0.2,0.1,0.2c0,0,0,0.1,0,0.1  c-0.1,0.1-0.1,0.1,0,0.2c0,0,0.1,0.1,0,0.2c0,0,0,0.1,0,0.1c0.1,0.1,0,0.1,0,0.2c0,0.2-0.2,0.4-0.4,0.4c-0.3,0-0.5-0.2-0.6-0.6  c0-0.3,0-0.6,0-0.9c0-0.3,0-0.7,0-1c0-0.4,0-0.8,0-1.1C15.2,28.9,15.2,28.5,15.2,28.1z"></path>	<path class="st2" d="M9.5,28.4c0,0.1-0.1,0.2-0.1,0.3c-0.1,0.5-0.1,0.9-0.2,1.4c0,0.3-0.1,0.7-0.2,1c0,0.2-0.1,0.3-0.3,0.3  c-0.2,0-0.3-0.1-0.4-0.2c-0.1-0.3-0.1-0.6-0.2-1c0-0.2-0.1-0.5-0.1-0.7c-0.1-0.4-0.1-0.7-0.2-1.1c-0.1-0.4-0.1-0.9-0.2-1.3  c0-0.3-0.1-0.6-0.2-1c0-0.1-0.1-0.2-0.1-0.3c0-0.1-0.1-0.1-0.1-0.2c-0.2,0.3-0.3,0.5-0.4,0.8c-0.1,0.2-0.2,0.5-0.3,0.7  c-0.1,0.1-0.3,0.2-0.4,0.1c-0.2-0.1-0.2-0.2-0.2-0.4c0.1-0.2,0.2-0.5,0.3-0.7c0.1-0.4,0.3-0.8,0.4-1.2c0.1-0.4,0.2-0.7,0.4-1.1  c0.1-0.2,0.2-0.3,0.4-0.3c0.2,0,0.3,0.1,0.3,0.3C8,24.2,8,24.4,8,24.7c0,0.2,0.1,0.5,0.1,0.7c0,0.2,0.1,0.4,0.1,0.6  c0,0.1,0,0.2,0.1,0.2c0,0.2,0.1,0.4,0.1,0.6c0,0,0,0.1,0,0.1c0,0.1,0.1,0.2,0,0.3c0,0,0,0.1,0,0.1c0.1,0.2,0.1,0.4,0.1,0.6  c0,0.1,0,0.1,0,0.2c0,0,0,0,0.1,0.1c0,0,0,0,0,0c0-0.2,0-0.3,0.1-0.5C8.9,27,9,26.2,9.2,25.5c0.1-0.5,0.3-1.1,0.4-1.6  c0.1-0.3,0.2-0.7,0.3-1c0.1-0.3,0.2-0.7,0.3-1c0.3-0.8,0.6-1.6,0.9-2.4c0.1-0.2,0.2-0.4,0.3-0.6c0.1-0.1,0.1-0.2,0.2-0.3  c0.3-0.2,0.6-0.2,0.8,0c0.2,0.2,0.2,0.5,0.1,0.8c-0.1,0.2-0.2,0.3-0.4,0.4c-0.3,0.3-0.5,0.6-0.6,0.9c-0.1,0.2-0.2,0.4-0.3,0.6  c-0.2,0.4-0.3,0.8-0.5,1.3c-0.1,0.2-0.1,0.3-0.1,0.5c0,0.1-0.1,0.2-0.1,0.4c0,0.2-0.1,0.3-0.1,0.5c0,0.1-0.1,0.1-0.1,0.2  c0,0.1,0,0.2-0.1,0.2c-0.2,0.3-0.2,0.6-0.3,1c0,0.2-0.1,0.4-0.1,0.6c0,0.2-0.1,0.3-0.1,0.5c0,0.1,0,0.2-0.1,0.3  c0,0.2-0.1,0.4-0.1,0.5c0,0.1,0,0.1,0,0.2c0,0.1,0,0.2-0.1,0.3C9.4,28.1,9.4,28.3,9.5,28.4z"></path>	<path class="st2" d="M17.4,28.7c0.4-0.4,1-0.4,1.3,0.1c0,0,0,0,0-0.1c0.2-0.3,0.6-0.4,0.9-0.3c0.3,0.1,0.4,0.3,0.5,0.6  c0,0.5,0,0.9,0,1.4c0,0.1-0.1,0.1-0.1,0.1c-0.1,0-0.2,0-0.2,0c-0.1,0-0.2,0-0.2-0.2c0-0.4,0-0.7,0-1.1c0-0.2-0.1-0.4-0.4-0.4  c-0.2,0-0.4,0.2-0.4,0.4c0,0.4,0,0.7,0,1.1c0,0.2,0,0.2-0.2,0.2c-0.1,0-0.1,0-0.2,0c-0.1,0-0.2,0-0.2-0.2c0-0.4,0-0.7,0-1.1  c0-0.2-0.1-0.4-0.3-0.4c-0.2,0-0.4,0.1-0.4,0.3c0,0.1,0,0.3,0,0.4c0,0.3,0,0.5,0,0.8c0,0.1,0,0.2-0.2,0.2c-0.1,0-0.2,0-0.2,0  c-0.1,0-0.1,0-0.1-0.1c0-0.6,0-1.2,0-1.8c0-0.1,0-0.1,0.1-0.1c0.1,0,0.1,0,0.2,0C17.4,28.5,17.4,28.5,17.4,28.7  C17.4,28.6,17.4,28.7,17.4,28.7z"></path>	<path class="st2" d="M24.3,30.4C24.3,30.4,24.3,30.4,24.3,30.4c-0.3,0.4-1.1,0.3-1.4-0.2c-0.3-0.5-0.2-1.1,0.1-1.5  c0.3-0.3,0.6-0.3,1-0.2c0.1,0,0.2,0.1,0.3,0.2c0,0,0-0.1,0-0.1c0-0.3,0-0.6,0-0.9c0-0.2,0-0.2,0.2-0.2c0.1,0,0.1,0,0.2,0  c0.2,0,0.2,0,0.2,0.2c0,0.3,0,0.6,0,0.9c0,0.6,0,1.2,0,1.8c0,0.1,0,0.2-0.1,0.1c-0.1,0-0.2,0-0.2,0C24.4,30.6,24.3,30.6,24.3,30.4  C24.3,30.4,24.3,30.4,24.3,30.4z M24.3,29.5c0-0.1,0-0.2-0.1-0.2c-0.1-0.2-0.3-0.4-0.5-0.4c-0.2,0-0.4,0.1-0.5,0.3  c-0.1,0.2-0.1,0.4,0,0.6c0.1,0.2,0.3,0.4,0.6,0.3C24.2,30,24.3,29.8,24.3,29.5z"></path>	<path class="st2" d="M27.9,28.6c0-0.2,0-0.2,0.2-0.2c0.1,0,0.1,0,0.2,0c0.2,0,0.2,0,0.2,0.2c0,0.4,0,0.7,0,1.1c0,0.2,0,0.5,0,0.7  c0,0.1,0,0.1-0.1,0.1c-0.1,0-0.2,0-0.3,0c-0.1,0-0.2,0-0.1-0.1c0,0,0,0,0,0c-0.1,0.1-0.2,0.2-0.4,0.2c-0.4,0.1-0.7,0-1-0.3  c-0.4-0.4-0.3-1.2,0.1-1.6c0.3-0.3,0.6-0.3,1-0.2C27.7,28.5,27.8,28.6,27.9,28.6z M27.9,29.5c0,0,0-0.1,0-0.1  c0-0.3-0.2-0.4-0.5-0.5c-0.3,0-0.5,0.1-0.5,0.4c0,0.1,0,0.3,0,0.4c0,0.2,0.2,0.3,0.4,0.4c0.2,0,0.4,0,0.5-0.2  C27.9,29.8,27.9,29.7,27.9,29.5z"></path>	<path class="st2" d="M20.9,29.7c0,0.2,0.1,0.4,0.3,0.5c0.2,0.1,0.5,0,0.6-0.2c0.1-0.1,0.2-0.1,0.3-0.1c0,0,0,0,0.1,0  c0.2,0.1,0.2,0.1,0.1,0.3c-0.4,0.5-1.1,0.6-1.6,0.1c-0.3-0.3-0.4-0.7-0.3-1.2c0.2-0.4,0.5-0.7,1-0.7c0.5,0,0.9,0.3,1,0.8  c0,0.1,0,0.2,0,0.4c0,0.1,0,0.1-0.2,0.1c-0.4,0-0.8,0-1.2,0C21,29.7,21,29.7,20.9,29.7z M21.9,29.3c0-0.2-0.2-0.4-0.5-0.4  c-0.3,0-0.5,0.2-0.5,0.4C21.3,29.3,21.6,29.3,21.9,29.3z"></path>	<path class="st2" d="M11.8,27.6c0-0.3,0-0.6,0-0.9c0-0.4,0.1-0.8,0.1-1.2c0-0.3,0.2-0.5,0.6-0.5c0.2,0,0.3-0.1,0.5-0.2  c0.1,0,0.2-0.1,0.3,0c0.1,0.1,0.1,0.3,0.1,0.4c-0.1,0.1-0.2,0.2-0.3,0.3c-0.2,0.2-0.4,0.4-0.4,0.7c0,0.3,0,0.7-0.1,1  c0,0.2,0,0.4-0.2,0.6c-0.1,0.1-0.2,0.2-0.4,0.2c-0.1,0-0.2-0.1-0.3-0.2C11.8,27.7,11.8,27.6,11.8,27.6  C11.8,27.6,11.8,27.6,11.8,27.6z"></path>	<path class="st2" d="M11.1,28.5c-0.1,0.1-0.2,0.2-0.4,0.3c-0.2,0.1-0.3,0-0.3-0.2c0-0.3,0-0.7,0-1c0-0.3,0-0.6,0.1-0.8  c0-0.3,0-0.5,0.1-0.8c0.1-0.2,0.3-0.3,0.5-0.4c0.1,0,0.2,0,0.2,0.1c0,0.1,0,0.1,0,0.2c0,0.1,0,0.1,0,0.2c0,0.1,0,0.3-0.1,0.4  c0,0.2-0.1,0.4-0.1,0.6c0,0.2,0,0.3-0.1,0.5c0,0.2,0,0.4,0,0.6c0,0,0,0.1,0,0.1C11.1,28.4,11.1,28.4,11.1,28.5z"></path>	<path class="st2" d="M17.4,24.5C17.4,24.5,17.3,24.5,17.4,24.5c-0.1,0.2-0.1,0.5-0.1,0.7c0,0.2-0.1,0.3-0.2,0.4  c-0.1,0.1-0.2,0.1-0.3,0.2c-0.2,0.1-0.3,0-0.3-0.2c0-0.4,0.1-0.9,0.1-1.3c0-0.3,0.1-0.6,0.1-0.9c0-0.2,0.1-0.4,0.3-0.5  c0.1-0.1,0.2-0.1,0.3-0.1c0,0,0.1,0,0.1,0c0,0.1,0.1,0.2,0.1,0.3c-0.1,0.3-0.1,0.7-0.1,1.1c0,0.1,0,0.1,0,0.2  C17.3,24.4,17.3,24.5,17.4,24.5z"></path>	<path class="st2" d="M25.4,29.5c0-0.3,0-0.6,0-0.8c0-0.2,0-0.2,0.2-0.2c0.1,0,0.1,0,0.2,0c0.1,0,0.2,0,0.2,0.1c0,0.6,0,1.2,0,1.8  c0,0.1-0.1,0.1-0.2,0.1c-0.1,0-0.2,0-0.3,0c-0.1,0-0.2,0-0.2-0.2C25.4,30.1,25.4,29.8,25.4,29.5z"></path>	<path class="st2" d="M17.3,22.1c-0.2,0-0.2-0.1-0.3-0.2c0-0.3,0.3-0.6,0.6-0.6c0.1,0,0.2,0.1,0.2,0.2  C17.9,21.7,17.6,22.1,17.3,22.1C17.4,22.1,17.4,22.1,17.3,22.1z"></path>	<path class="st2" d="M11.6,24.2c0,0.1-0.1,0.2-0.1,0.2c-0.1,0.1-0.3,0.2-0.4,0.3c-0.1,0.1-0.3,0-0.3-0.2c0-0.3,0.4-0.6,0.6-0.6  C11.5,23.9,11.6,24.1,11.6,24.2z"></path>	<path class="st2" d="M26,27.7c0,0.2-0.2,0.4-0.3,0.3c-0.2,0-0.3-0.2-0.3-0.4c0-0.2,0.2-0.3,0.3-0.3C25.8,27.4,26,27.5,26,27.7z"></path>	<path class="st2" d="M45.5,18.9c1.5,0,2.7,0.3,3.8,1c1.3,0.8,2.2,2.1,2.6,3.6c0.5,1.7,0.4,3.4-0.3,5.1c-0.8,1.9-2.3,3.1-4.2,3.6  c-2,0.5-3.9,0.2-5.6-1.1c-1.2-0.9-2-2.2-2.3-3.7c-0.4-1.7-0.2-3.4,0.6-5c0.9-1.8,2.3-2.8,4.3-3.2C44.8,18.9,45.3,18.8,45.5,18.9z   M41.7,25.6c0,0.1,0,0.2,0,0.4c0.1,0.9,0.3,1.7,0.7,2.5c1.2,2.1,3.5,2.3,4.9,1.6c0.9-0.4,1.4-1.1,1.8-2c0.5-1,0.6-2.1,0.5-3.3  c-0.1-0.9-0.4-1.8-1-2.5c-0.9-1.1-2-1.6-3.4-1.5c-1.1,0.1-1.9,0.6-2.6,1.5C42,23.3,41.8,24.4,41.7,25.6z"></path>	<path class="st2" d="M53.5,33.8c0.7,0,1.5,0,2.2,0c0,0.3,0,0.6,0,0.9c-1.2,0-2.4,0-3.6,0c0-0.2,0-0.4,0-0.6c0-0.3,0.1-0.4,0.3-0.6  c0.6-0.5,1.1-1,1.6-1.7c0.2-0.3,0.4-0.6,0.5-0.9c0.1-0.5-0.1-1-0.7-1c-0.5,0-0.9,0.1-1.3,0.4c0,0-0.1,0-0.1,0.1  c0-0.2,0-0.4-0.1-0.6c0,0,0-0.1,0-0.1c0-0.3,0-0.2,0.2-0.3c0.6-0.3,1.2-0.4,1.8-0.3c0.8,0.1,1.3,0.6,1.3,1.4c0,0.7-0.2,1.2-0.6,1.7  c-0.4,0.5-0.9,1-1.3,1.5C53.6,33.7,53.5,33.8,53.5,33.8C53.5,33.8,53.5,33.8,53.5,33.8z"></path></g><g>	<path class="st2" d="M117.9,15.1c0.2-0.3,0.6-0.5,1-0.5c4.3,0,8.7,0,13,0c0.8,0,1,0.2,1,1c0,1.9,0,4,0,5.9c0,0.8-0.2,0.9-1,0.9  c-1.5,0-3.1,0-4.6,0c-0.7,0-0.9,0.2-0.9,0.9c0,2.8,0,5.4,0,8.2c0,0.7,0.2,0.9,0.9,0.9c2.3,0,4.4,0,6.6,0c0.7,0,0.9,0.2,0.9,0.9  c0,2,0,4,0,6c0,0.7-0.2,0.9-0.9,0.9c-5,0-10,0-15,0c-0.4,0-0.6-0.2-0.9-0.4C117.9,31.8,117.9,23.4,117.9,15.1z"></path>	<path class="st2" d="M290.9,33.2c-0.1,0.2-0.2,0.4-0.2,0.7c-0.4,1-1.3,1.3-2.4,1.3c-1.5,0-3,0-4.5,0c-1.6-0.1-2.6-1-2.7-2.6  c-0.2-2.4-0.3-4.7,0.1-7.1c0.2-1.4,1.1-2.1,2.6-2.1s2.9,0,4.3,0c1.5,0,2.5,0.8,2.7,2.4c0,0.1,0,0.2,0.1,0.3c0,1.3,0,2.7,0,3.9  c-0.2,0.2-0.5,0.2-0.7,0.2c-1.6,0-3.3,0-4.8,0c-0.8,0-0.9-0.1-0.9-1c0-0.2,0-0.3,0-0.5c0-0.5,0.2-0.7,0.7-0.7c0.9,0,1.7,0,2.7,0  c0.7,0,0.7-0.1,0.7-0.8c0-0.1,0-0.2,0-0.4c-0.1-1.1-0.3-1.3-1.4-1.3c-0.8,0-1.6,0-2.6,0c-0.7,0-1,0.2-1,1c0,1.7-0.1,3.6,0,5.3  c0,1,0.3,1.1,1.2,1.1c0.9,0,1.8,0,2.9,0c0.7,0,0.8-0.1,0.9-0.8c0.1-0.7,0.2-0.9,1-0.9c0.4,0,0.9-0.1,1.3,0.2  C290.9,32.1,290.9,32.6,290.9,33.2z"></path>	<path class="st2" d="M144.9,27.6c0,3.8,0,7.7,0,11.5c0,0.3,0,0.5,0,0.8c0,0.5-0.2,0.7-0.7,0.7c-2.4,0-4.7,0-7.1,0  c-0.5,0-0.7-0.3-0.7-0.7c0-0.3,0-0.5,0-0.8c0-5.1,0-10.2,0-15.4c0-0.9-0.1-1-1-1c-0.6,0-0.9-0.2-0.9-0.9c0-2,0-4.1,0-6.1  c0-0.6,0.2-0.9,0.9-0.9c2.9,0,5.7,0,8.6,0c0.7,0,0.9,0.2,0.9,1C144.9,19.6,144.9,23.6,144.9,27.6L144.9,27.6z"></path>	<path class="st2" d="M156.6,27.5c0,1.4,0,2.9,0.1,4.2c0.1,1.2,0.3,1.4,1.5,1.4c1.3,0,2.7,0,4,0c0.6,0,0.9-0.3,1-0.8  c0.2-0.6,0.1-1.3,0.2-1.9c0-0.3,0.2-0.4,0.5-0.4c0.5,0,1,0,1.5,0c0.3,0,0.5,0.1,0.5,0.4c0,0.9-0.1,1.8-0.3,2.7  c-0.6,1.7-1.3,2.3-3.3,2.3c-1.8,0-3.7,0.1-5.5-0.1c-1.1-0.1-1.9-0.8-2.3-2c-0.3-1.2-0.4-2.5-0.4-3.8c-0.1-2.3-0.1-4.6,0.3-6.9  c0.3-1.8,1.3-2.7,3.2-2.7c1.6,0,3.3,0.1,4.9,0c2.4-0.1,3.2,1.2,3.4,3.2c0.1,0.5,0.1,0.9,0.1,1.4c0,0.4-0.1,0.5-0.5,0.5  c-0.3,0-0.6,0-0.9,0c-1.1,0-1.1,0-1.1-1.1c0-0.1,0-0.3,0-0.4c-0.1-1.1-0.4-1.4-1.5-1.4c-1.3,0-2.6,0-3.9,0c-0.8,0-1,0.2-1.2,1  C156.5,24.5,156.6,26.1,156.6,27.5z"></path>	<path class="st2" d="M212.6,30c-0.9,0-1.8,0-2.7,0c-0.4,0-0.5-0.1-0.5-0.5c0-1.3,0-1.3,1.3-1.3c0.8,0,1.6,0,2.5,0  c0.3,0,0.5-0.1,0.5-0.4c0-0.5,0-1.1-0.1-1.6s-0.3-0.7-0.8-0.7c-1.1,0-2.4,0-3.5,0c-0.6,0-0.9,0.3-0.9,0.8c-0.1,2-0.2,4.2,0.1,6.2  c0.1,0.5,0.4,0.7,0.9,0.7c1.1,0,2.3,0,3.4,0c0.8,0,1-0.2,1-0.9c0-0.6,0.2-0.8,0.7-0.7c0.1,0,0.1,0,0.2,0c1.4,0,1.4,0,1.2,1.4  c-0.1,1.5-0.9,2.3-2.6,2.4c-1.5,0.1-3,0-4.5,0c-1.5-0.1-2.6-0.8-2.7-2.6c-0.2-2.4-0.3-4.7,0.1-7.1c0.2-1.3,1.1-2.1,2.5-2.1  c1.5,0,3,0,4.5,0c1.4,0,2.4,0.8,2.6,2.3c0.2,1.2,0.1,2.6,0.2,3.8c0,0.5-0.2,0.6-0.6,0.6C214.3,30,213.5,30,212.6,30z"></path>	<path class="st2" d="M246.6,30c-0.9,0-1.8,0-2.8,0c-0.3,0-0.4-0.1-0.4-0.4c-0.1-1.4-0.1-1.4,1.3-1.4c0.8,0,1.6,0,2.6,0  c0.4,0,0.4-0.1,0.4-0.5c-0.1-0.5,0-1-0.1-1.4c-0.1-0.5-0.3-0.9-0.9-0.9c-1.1,0-2.3,0-3.4,0c-0.7,0-0.9,0.3-0.9,0.9  c-0.2,1.9-0.1,4,0,5.9c0.1,0.8,0.3,1,1,1c1,0,2,0,3.1,0c1,0,1.1-0.1,1.2-1.1c0-0.6,0.2-0.7,0.7-0.6c0.3,0,0.6,0,0.9,0  c0.5-0.1,0.6,0.2,0.6,0.6c-0.1,0.5-0.1,0.9-0.2,1.4c-0.3,1.1-1,1.7-2.6,1.7c-1.6,0-3.2,0.1-4.8-0.1c-1.1-0.1-2-0.9-2.3-2.3  c-0.3-2.5-0.3-4.8,0-7.3c0.2-1.5,1.1-2.3,2.7-2.3c1.3,0,2.8,0,4.1,0c1.6,0,2.5,0.7,2.8,2.3c0.2,1.3,0.2,2.7,0.2,4  c0,0.4-0.2,0.4-0.5,0.4C248.5,30,247.6,30,246.6,30z"></path>	<path class="st2" d="M181.9,29.3c0-1.8,0-3.6,0-5.4c0-0.4,0.1-0.6,0.5-0.5c0.4,0,0.7,0,1.1,0c0.5-0.1,0.6,0.2,0.6,0.6  c0,0.2-0.1,0.5,0.1,0.6s0.3-0.2,0.5-0.3c1.3-1.2,2.9-1.1,4.5-0.9c1.9,0.2,2.5,0.9,2.5,2.9c0,2.9,0,5.6,0,8.5c0,0.4-0.1,0.6-0.6,0.6  c-1.6,0-1.6,0-1.6-1.6c0-2.3,0-4.4,0-6.6c0-1.2-0.3-1.6-1.6-1.6c-1.1,0-2.1-0.1-3.2,0.4c-0.4,0.2-0.6,0.4-0.6,0.8c0,2.7,0,5.3,0,8  c0,0.5-0.1,0.7-0.7,0.7c-1.5,0-1.5,0-1.5-1.5C181.9,32.2,181.9,30.8,181.9,29.3z"></path>	<path class="st2" d="M268.6,29.3c0-1.7,0-3.5,0-5.2c0-0.5,0.2-0.7,0.7-0.6c0.2,0,0.3,0,0.5,0c0.9,0,0.9,0,1,0.9  c0,0.3,0.1,0.3,0.4,0.2l0,0c1.5-1.5,3.5-1.2,5.4-1c1,0.1,1.7,1,1.7,2.4c0,2.3,0,4.5,0,6.8c0,0.8,0,1.5,0,2.4c0,0.3-0.1,0.4-0.4,0.5  c-1.8,0.1-1.8,0.1-1.8-1.7c0-2.3,0-4.4,0-6.6c0-1.2-0.4-1.6-1.6-1.6c-1.1,0-2.1-0.1-3.2,0.4c-0.4,0.2-0.6,0.4-0.5,0.9  c0,2.7,0,5.2,0,7.9c0,0.5-0.1,0.7-0.7,0.7c-1.5,0-1.5,0-1.5-1.5C268.6,32.2,268.6,30.8,268.6,29.3z"></path>	<path class="st2" d="M194.8,23.4c1.2,0,1.2,0,1.5,1.1c0.8,2.5,1.5,5,2.4,7.5c0.1,0.2,0,0.5,0.3,0.5c0.3,0,0.3-0.3,0.3-0.5  c0.8-2.6,1.6-5.2,2.4-7.9c0.2-0.6,0.4-0.9,1.1-0.8c0.3,0.1,0.6,0,1,0c0.5,0,0.5,0.1,0.4,0.5c-0.6,1.7-1.2,3.5-1.8,5.2  c-0.6,1.8-1.2,3.6-1.8,5.4c-0.2,0.6-0.5,0.8-1.1,0.8c-2.1,0-1.7,0.2-2.5-1.7c-1.1-3.1-2.1-6.2-3.3-9.3c-0.3-1-0.2-0.8,0.6-0.8  C194.5,23.4,194.6,23.4,194.8,23.4z"></path>	<path class="st2" d="M221.1,24.9c0.4-0.4,0.8-0.7,1.2-1.1c0.7-0.6,1.6-0.6,2.6-0.5c0.2,0,0.3,0.1,0.3,0.3c0,0.1,0,0.1,0,0.2  c0,0.6,0.2,1.3-0.1,1.7c-0.3,0.4-1.1,0.1-1.7,0.1c-0.6,0-1.2,0.1-1.8,0.2c-0.4,0.1-0.5,0.3-0.5,0.7c0,2.7,0,5.3,0,8  c0,0.5-0.1,0.6-0.6,0.6c-1.6,0-1.6,0-1.6-1.7c0-3.2,0-6.3,0-9.5c0-0.5,0.1-0.7,0.6-0.6c0.5,0,1.1-0.1,1.5,0.1  C221.3,23.7,221,24.4,221.1,24.9z"></path>	<path class="st2" d="M265.8,24.9c0-0.9-0.1-1.7-0.3-2.6c-0.3-1.5-1.3-2.5-3-2.5c-1.9,0-3.8,0-5.7,0c-0.8,0-1.5,0.3-2,0.9  c-0.5,0.7-0.7,1.6-0.8,2.6c-0.3,2.8-0.3,5.5,0,8.4c0.1,0.6,0.2,1.2,0.4,1.8c0.4,1,1.1,1.5,2.3,1.6c1,0.1,2.1,0,3,0.1  c0.9,0,1.6,0,2.5,0c2.4,0,3.2-0.7,3.6-2.9C266,29.9,265.9,27.4,265.8,24.9z M263.2,31.7c-0.1,1.1-0.3,1.3-1.4,1.3  c-1.4,0-2.8,0-4.2,0c-0.7,0-1-0.2-1.1-0.9c-0.2-1.1-0.2-2.1-0.2-3.3c0-1.9-0.1-4,0.2-5.9c0.1-0.6,0.5-0.9,1-0.9c1.5,0,3.1,0,4.6,0  c0.5,0,0.9,0.3,1,0.8c0.1,0.6,0.2,1.1,0.2,1.7c0,1,0,2,0,3.1C263.2,28.9,263.3,30.4,263.2,31.7z"></path>	<path class="st2" d="M237.3,24.4c0-1,0-1-1-1c-1.2,0-1.2,0-1.2,1.1c0,0,0,0.1-0.1,0.1c-0.8-0.6-1.6-1.3-2.8-1.3  c-0.8,0-1.6,0-2.5,0.1c-1.2,0.1-2,0.7-2.3,1.9c-0.4,2.1-0.4,4.3,0,6.4c0.2,1.1,0.9,1.9,2.1,2c1.8,0.2,3.7,0.4,5.2-1.1  c0.1,0,0.1-0.1,0.3-0.2c0,1.2,0,2.3,0,3.4c0,0.4-0.3,0.6-0.6,0.6c-1.3,0-2.6,0-3.9,0c-0.3,0-0.6-0.1-0.6-0.4c0-0.7-0.5-0.6-1-0.6  c-0.3,0-0.6,0-1,0c-0.2,0-0.3,0-0.4,0.2c-0.4,1.1,0.5,2.6,1.7,2.7c1.7,0.2,3.5,0.1,5.2,0.1c1.9-0.1,2.6-0.6,2.8-2.4  c0-0.3,0-0.6,0-0.9C237.3,31.7,237.3,28,237.3,24.4z M234.5,31.5c-0.6,0.3-1.3,0.4-1.9,0.3c-0.6,0-1.2,0-1.8,0  c-0.7,0-1.1-0.3-1.1-1c-0.1-1.4-0.1-3,0-4.4c0-0.5,0.3-0.9,0.8-1c1.4-0.1,2.9-0.3,4.2,0.4c0.4,0.2,0.5,0.4,0.5,0.8c0,0.7,0,1.4,0,2  c0,0.7,0,1.3,0,2C235.1,31.2,234.9,31.4,234.5,31.5z"></path>	<path class="st2" d="M178.9,25.7c-0.2-1.4-1.1-2.3-2.7-2.3c-0.7,0-1.5,0-2.3,0l0,0c-0.7,0-1.3,0-2,0c-1.8,0-2.8,0.9-3,2.8  c-0.2,2-0.2,4.2,0,6.2c0.1,1.4,0.8,2.7,2.7,2.8c1.5,0.1,3.2,0.1,4.7,0c1.4-0.1,2.4-0.8,2.6-2.3C179.2,30.5,179.2,28.1,178.9,25.7z   M176.7,32.2c0,0.6-0.3,0.9-0.9,0.9c-0.6,0-1.2,0-1.8,0c-0.6,0-1.1,0-1.7,0c-0.5,0-0.8-0.2-0.9-0.8c-0.2-1.4-0.1-2.9-0.1-4.3  c0-0.6,0-1.3,0.1-1.9c0.1-0.5,0.4-0.7,0.8-0.7c1.2,0,2.5,0,3.7,0c0.6,0,0.9,0.3,0.9,0.9C176.9,28.3,176.9,30.3,176.7,32.2z"></path></g><g>	<g>		<path class="st2" d="M1046.9,15.7c0.7,0,1.4,0,2.1,0c-2.1,4.5-4.3,9.1-6.4,13.7c-0.6,0-1.2,0-1.7,0c-1-2.2-2.1-4.5-3.2-6.8   c0.7,0,1.4,0,2.1,0c0.6,1.4,1.3,2.8,1.9,4.2C1043.4,23.1,1045.1,19.4,1046.9,15.7z"></path>	</g>	<g>		<path class="st2" d="M992.2,17.6c1.4,0,2.8,0,4.2,0c0,1.2,0,2.5,0,3.8c-1.4,0-2.8,0-4.2,0C992.2,20.2,992.1,18.9,992.2,17.6z"></path>		<g>			<path class="st2" d="M971,23.1c2.9-1.6,7.1-1,9,1.7c1.2,1.6,1.5,3.8,1.5,5.7c-3.3,0-6.5,0-9.8,0c0.1,1,0.6,2,1.5,2.7    c1.3,0.8,3.5,0.5,4.1-1c1.3,0,2.7,0,4.1,0c-0.4,1.5-1.5,2.9-3,3.6c-1.5,0.8-3.4,1-5.1,0.7c-1.7-0.3-3.5-1.3-4.5-2.9    c-1.1-1.6-1.4-3.7-1.1-5.5C967.9,26,969.2,24,971,23.1z M973.3,25.4c-0.9,0.4-1.4,1.4-1.6,2.5c1.8,0,3.8,0,5.6,0    c-0.1-0.7-0.4-1.5-0.9-2C975.5,25,974.2,25,973.3,25.4z"></path>		</g>		<g>			<path class="st2" d="M1015.1,22.2c2.2-0.4,4.8,0.1,6.5,1.6c3,2.7,3.1,7.8,0.3,10.5c-2.1,2.2-5.8,2.7-8.6,1.4    c-2.1-1-3.6-3.2-3.9-5.5c-0.1-1.3,0-2.8,0.5-4C1010.8,24.2,1012.7,22.6,1015.1,22.2z M1015.5,25.4c-1.2,0.4-1.7,1.7-1.9,2.9    c-0.1,1.4-0.1,3.1,0.8,4.3c1,1.3,3.3,1.3,4.3,0c0.8-1,0.9-2.5,0.9-3.8c-0.1-1.1-0.4-2.4-1.4-3.1    C1017.4,25.2,1016.4,25.1,1015.5,25.4z"></path>		</g>		<path class="st2" d="M1030,23.1c1.4-1.1,3.4-1.2,5-0.5c1.1,0.5,2,1.5,2.4,2.7c0.4,1.2,0.3,2.6,0.3,3.8c0,2.5,0,4.8,0,7.3   c-1.4,0-2.8,0-4.2,0c0-2.8,0-5.5,0-8.3c0-0.7-0.3-1.4-0.8-1.9c-0.9-0.6-2.2-0.5-3,0.3c-0.6,0.6-0.9,1.5-0.8,2.4c0,2.6,0,5,0,7.6   c-1.4,0-2.8,0-4.2,0c0-4.5,0-9.1,0-13.6c1.3,0,2.7,0,4.1,0c0,0.6,0,1.2,0,1.8C1029.2,24,1029.5,23.5,1030,23.1z"></path>		<path class="st2" d="M954.5,22.5c1.4,0,2.9,0,4.4,0c0.9,3,1.8,5.8,2.7,8.8c1-2.9,1.7-5.8,2.8-8.8c1.4,0,2.8,0,4.2,0   c-1.6,4.5-3.2,9.1-4.7,13.6c-1.4,0-2.9,0-4.4,0C957.6,31.6,956.1,27,954.5,22.5z"></path>		<path class="st2" d="M982.4,22.5c1.3,0,2.7,0,4,0c0,0.7,0,1.5,0,2.2c0.3-0.4,0.6-0.8,0.9-1.2c0.9-1,2.4-1.4,3.7-1   c0,1.2,0,2.4,0,3.6c-1-0.1-2.1-0.1-3.1,0.5c-0.9,0.6-1.3,1.8-1.3,3c0,2.1,0,4.4,0,6.5c-1.4,0-2.8,0-4.2,0   C982.5,31.6,982.5,27,982.4,22.5z"></path>		<path class="st2" d="M992.2,22.5c1.4,0,2.9,0,4.2,0c0,4.5,0,9.1,0,13.6c-1.4,0-2.8,0-4.2,0C992.2,31.6,992.2,27,992.2,22.5z"></path>		<path class="st2" d="M997.5,22.5c3.8,0,7.6,0,11.3,0c0,1,0,2,0,3.2c-0.1,0.3-0.4,0.4-0.5,0.7c-1.9,2.1-3.9,4.4-5.8,6.5   c2.2,0,4.5,0,6.7,0c0,1.1,0,2.1,0,3.3c-3.9,0-7.8,0-11.6,0c0-1,0-2.1,0-3.2c2-2.2,4.1-4.6,6.1-6.8c0.1-0.1,0.3-0.2,0.2-0.4   c-2.1,0.1-4.2,0-6.3,0C997.5,24.7,997.5,23.7,997.5,22.5z"></path>	</g></g></svg>