<svg xmlns="http://www.w3.org/2000/svg" xmlns:xlink="http://www.w3.org/1999/xlink" id="Layer_1" x="0px" y="0px" viewBox="0 0 1137 45" style="enable-background:new 0 0 1137 45;" xml:space="preserve"><style type="text/css">	.st0{fill:#0A2133;}	.st1{clip-path:url(#SVGID_00000008125703910395297380000005311949779342984380_);}	.st2{fill:#FFFFFF;}	.st3{clip-path:url(#SVGID_00000121261461407411329100000001727855668215227021_);}	.st4{clip-path:url(#SVGID_00000012462740615117003450000014124214487533834118_);}	.st5{clip-path:url(#SVGID_00000112633225256904170330000002097240058042551968_);}	.st6{clip-path:url(#SVGID_00000047778988587604096520000008927014258633247892_);}	.st7{clip-path:url(#SVGID_00000019674379351610983470000003939433941314131902_);}	.st8{clip-path:url(#SVGID_00000088852911959294350360000006390591670424938637_);}	.st9{clip-path:url(#SVGID_00000129887389604367548570000006707614631087266493_);}	.st10{fill-rule:evenodd;clip-rule:evenodd;fill:#FFFFFF;}</style><rect id="Rectangle_7269_00000108996530936668664250000017114022757851150477_" x="0" class="st0" width="1137" height="45"></rect><g id="Group_19391_00000092427341639109724300000008592152979651953288_" transform="translate(503.938 14)">	<g>		<defs>			<rect id="SVGID_1_" x="-160" y="1.5" width="45.1" height="27.5"></rect>		</defs>		<clipPath id="SVGID_00000083788811177451304800000017902708793911621532_">			<use xlink:href="#SVGID_1_" style="overflow:visible;"></use>		</clipPath>					<g id="Group_19390_00000084525156257948337720000008055944184416045491_" transform="translate(0 0)" style="clip-path:url(#SVGID_00000083788811177451304800000017902708793911621532_);">			<path id="Path_7711_00000026880751141105713110000005129585941223053461_" class="st2" d="M-140.9,13.3c0.1-0.3,0.1-0.5,0.2-0.8    c0.7-2.9,1.4-5.8,2-8.7c0.1-0.3,0.2-0.8,0.3-1.1c0-0.1,0-0.2,0.1-0.2c0.1-0.3,0.4-0.5,0.7-0.5h1.7c0.3,0,0.6,0.2,0.7,0.5    c0.1,0.3,0.2,0.6,0.2,0.8c0.6,2.4,1.1,4.9,1.7,7.2c0.2,0.9,0.4,1.8,0.7,2.6v0.1c0-0.1,0.1-0.2,0.1-0.3c0.8-3.5,1.8-6.8,2.6-10.3    c0-0.1,0.1-0.2,0.2-0.3c0.1-0.3,0.3-0.3,0.6-0.3h1.7c0.3,0,0.3,0.1,0.3,0.3c0,0.2,0,0.4-0.1,0.6c-0.8,2.8-1.8,5.6-2.6,8.4    c-0.3,1.3-0.8,2.7-1.2,4c0,0.1-0.1,0.1-0.1,0.2c-0.1,0.4-0.4,0.6-0.8,0.6h-1.6c-0.5,0-0.7-0.2-0.8-0.6c-0.1-0.5-0.3-1.1-0.3-1.6    c-0.7-2.7-1.4-5.3-1.9-8c-0.1-0.2-0.1-0.5-0.2-0.7V5.4c-0.1,0.2-0.1,0.5-0.2,0.7c-0.8,3.2-1.5,6.3-2.3,9.5c0,0.1-0.1,0.2-0.1,0.3    c-0.1,0.3-0.4,0.5-0.7,0.5h-1.7c-0.3,0-0.6-0.2-0.7-0.5c-0.1-0.3-0.2-0.7-0.3-0.9c-1.2-3.8-2.4-7.8-3.5-11.5    c-0.1-0.2-0.1-0.4-0.1-0.6V2.6c0-0.2,0.2-0.3,0.3-0.3h1.8c0.2,0,0.5,0.1,0.6,0.3c0.1,0.3,0.2,0.7,0.3,0.9    C-142.5,6.8-141.7,10-140.9,13.3"></path>			<path id="Path_7712_00000067922263290847172850000001896591704538461079_" class="st2" d="M-137.5,29h-1.4c-0.5,0-1-0.1-1.5-0.1    c-0.5,0-1-0.1-1.4-0.2c-1.1-0.1-2.1-0.3-3.1-0.6c-1.4-0.3-2.7-0.7-4-1.2c-2.7-1-5.3-2.4-7.7-4c-1.1-0.8-2.1-1.6-3.1-2.4    c-0.1-0.1-0.2-0.2-0.2-0.3c-0.1-0.3,0.2-0.5,0.5-0.5c0.2,0,0.3,0.1,0.5,0.2c1.2,0.7,2.4,1.3,3.6,1.9c1.5,0.7,3,1.2,4.5,1.8    c1.5,0.5,3.1,0.9,4.7,1.2c0.8,0.1,1.6,0.3,2.4,0.5c0.5,0.1,1.1,0.1,1.6,0.2c0.5,0.1,1,0.1,1.5,0.2c0.3,0,0.8,0.1,1,0.1    c0.5,0,0.9,0,1.3,0.1h1.9c0.5,0,1,0,1.5-0.1c0.5,0,0.8-0.1,1.3-0.1c0.7-0.1,1.3-0.2,2-0.2c1-0.1,2-0.3,2.9-0.5    c1.2-0.3,2.5-0.6,3.7-0.9c0.9-0.3,1.7-0.5,2.6-0.9c0.4-0.2,0.9-0.3,1.3-0.5c0.3-0.2,0.6-0.3,1-0.4c0.3-0.1,0.6,0,0.8,0.3    c0.3,0.3-0.1,0.8-0.4,1c-0.6,0.6-1.4,1-2.1,1.4c-0.8,0.5-1.7,0.9-2.5,1.3c0,0-0.1,0-0.1,0c-1.8,0.8-3.6,1.4-5.5,1.9    c-0.9,0.2-1.8,0.3-2.7,0.6c-0.5,0.1-1.1,0.2-1.6,0.2c-0.4,0.1-0.8,0.1-1.2,0.1C-136,29-136.7,29-137.5,29"></path>			<path id="Path_7713_00000152949541409639518000000005280550050662849935_" class="st2" d="M-150.4,14.3l-0.3,0.3    c-0.9,1-2.1,1.6-3.4,1.8c-0.9,0.1-1.8,0.1-2.7-0.2c-1.2-0.4-2.2-1.4-2.5-2.7c-0.2-1-0.2-2.1,0.2-3.1c0.3-0.9,1-1.6,1.9-2    c0.6-0.3,1.3-0.6,2-0.7c0.9-0.1,1.8-0.1,2.6,0.1c0.6,0.1,1.2,0.2,1.8,0.3h0.1V6.4c0-0.4-0.1-0.8-0.3-1.2    c-0.2-0.6-0.8-1.1-1.4-1.3c-0.6-0.2-1.3-0.3-1.9-0.2c-1.1,0-2.2,0.3-3.3,0.8c-0.2,0.1-0.4,0.2-0.6,0.2c-0.3,0.1-0.3,0-0.5-0.3    V3.2c0-0.2,0.1-0.4,0.3-0.5c0.2-0.1,0.4-0.3,0.7-0.3c0.8-0.3,1.7-0.6,2.6-0.8c0.8-0.1,1.6-0.1,2.4-0.1c0.7,0,1.4,0.2,2.1,0.5    c1,0.4,1.8,1.4,2,2.4c0.2,0.5,0.3,1.1,0.3,1.7v5.5c0,0.3,0.1,0.8,0.1,1.1c0.1,0.6,0.3,1.1,0.6,1.6c0,0.1,0.1,0.2,0.1,0.3    c0,0.2,0,0.3-0.1,0.3l-0.2,0.2c-0.3,0.2-0.7,0.5-1,0.7c-0.3,0.2-0.6,0.1-0.8-0.1l-0.1-0.1c-0.4-0.4-0.7-0.9-0.9-1.4    C-150.3,14.5-150.3,14.4-150.4,14.3 M-150.5,10.7v-0.5c0-0.1,0-0.1-0.1-0.1c-0.9-0.2-1.8-0.3-2.8-0.3c-0.6,0-1.1,0-1.7,0.3    c-0.7,0.2-1.2,0.8-1.4,1.4c-0.1,0.4-0.1,0.9-0.1,1.3c0.1,0.8,0.7,1.5,1.5,1.7c0.6,0.1,1.2,0.1,1.8,0c0.6-0.1,1.2-0.4,1.7-0.8    c0.5-0.4,0.8-0.9,0.9-1.5C-150.5,11.7-150.4,11.2-150.5,10.7"></path>			<path id="Path_7714_00000113318353280063381270000008630011303816984504_" class="st2" d="M-121.2,16.6c-1.4,0-2.7-0.2-4-0.8    c-0.2-0.1-0.4-0.2-0.6-0.3c-0.2-0.1-0.4-0.4-0.3-0.7v-1c0-0.3,0.2-0.5,0.5-0.3c0.2,0.1,0.5,0.2,0.7,0.3c0.8,0.3,1.6,0.5,2.4,0.7    c0.6,0.1,1.2,0.1,1.8,0c0.6,0,1.2-0.2,1.7-0.6c0.6-0.5,0.9-1.3,0.7-2c-0.1-0.3-0.4-0.6-0.8-0.8c-0.5-0.3-0.9-0.3-1.4-0.6    l-2.5-0.8c-0.7-0.2-1.3-0.5-1.8-1c-0.6-0.6-1-1.5-1.1-2.4c-0.1-1.3,0.5-2.6,1.6-3.5c0.7-0.5,1.6-0.9,2.4-1c1-0.1,2-0.1,2.9,0.1    c0.6,0.1,1.1,0.3,1.7,0.5c0.2,0.1,0.3,0.2,0.5,0.3c0.2,0.2,0.3,0.4,0.3,0.7v0.9c0,0.3-0.2,0.5-0.6,0.3c-0.2-0.1-0.5-0.2-0.7-0.3    c-0.7-0.3-1.5-0.5-2.3-0.5c-0.6,0-1.2,0-1.8,0.1c-0.3,0-0.5,0.1-0.8,0.3c-0.5,0.2-0.8,0.7-0.8,1.2c-0.1,0.6,0.1,1.3,0.7,1.6    c0.2,0.1,0.4,0.2,0.6,0.3c0.5,0.3,1.1,0.5,1.7,0.6c0.7,0.2,1.4,0.5,2,0.7c0.5,0.2,1.1,0.5,1.5,0.8c0.6,0.6,1,1.3,1.2,2.1    c0.1,0.8,0,1.7-0.3,2.4c-0.5,0.8-1.2,1.5-2,1.9c-0.7,0.4-1.5,0.6-2.4,0.7L-121.2,16.6"></path>			<path id="Path_7715_00000049913556543091394560000007187294708063725703_" class="st2" d="M-119.4,20.6c-1.2,0-2.3,0.1-3.5,0.2    c-0.1,0-0.2,0-0.3,0c-0.2-0.1-0.1-0.3,0-0.4c0.3-0.2,0.6-0.4,0.9-0.6c0.3-0.2,0.7-0.3,1-0.4c0.6-0.2,1.2-0.3,1.8-0.3    c0.6-0.1,1.2-0.1,1.8-0.1c0.5,0,1.1,0,1.6,0.2c0.4,0,0.8,0.3,1,0.6c0.1,0.4,0.2,0.7,0.1,1.1c-0.1,0.7-0.2,1.4-0.4,2    c-0.4,1.6-1.2,3-2.4,4c-0.2,0.1-0.7,0.5-0.7,0c0-0.2,0.1-0.3,0.2-0.5c0.3-0.8,0.6-1.5,0.8-2.3c0.1-0.4,0.2-0.9,0.3-1.4    c0-0.2,0.1-0.5,0.1-0.7c0-0.2,0-0.4,0-0.7c-0.1-0.3-0.3-0.6-0.7-0.6c-0.3-0.1-0.6-0.1-1-0.1C-118.9,20.6-119.1,20.6-119.4,20.6"></path>		</g>	</g></g><g id="Group_19393_00000145016314661306275520000008456181034559285170_" transform="translate(287.963 11)">	<g>		<defs>			<rect id="SVGID_00000109732995023027408130000016040828846412895633_" x="-93" y="1.5" width="77" height="30.8"></rect>		</defs>		<clipPath id="SVGID_00000109726343966943513730000007024276001380114329_">			<use xlink:href="#SVGID_00000109732995023027408130000016040828846412895633_" style="overflow:visible;"></use>		</clipPath>					<g id="Group_19392_00000123438815680200083830000007172181890330367120_" transform="translate(0 0)" style="clip-path:url(#SVGID_00000109726343966943513730000007024276001380114329_);">			<path id="Path_7716_00000170256833865137308900000015216360653128563644_" class="st2" d="M-92.9,16.9c1.3,3.2,4.1,4.7,7.3,5.6    c2.5,0.6,5.1,0.8,7.6,0.5c3.7-0.3,7.3-1.3,10.7-2.8c1.3-0.6,2.6-1.3,3.7-2.2c0.6-0.5,1-1,1.3-1.7c0.1,1.2,0,2.3-0.2,3.5    c-0.2,1.2-0.8,2.2-1.8,2.9c-0.8,0.7-1.7,1.2-2.7,1.5c-1.7,0.7-3.6,1.1-5.4,1.3c-2.1,0.2-4.2,0.3-6.3,0.2c-3.6-0.1-7.2-1-10.4-2.6    c-0.8-0.5-1.6-1-2.4-1.6c-0.9-0.7-1.4-1.8-1.4-2.9c0-0.2,0-0.4-0.1-0.5C-92.9,17.6-92.9,17.2-92.9,16.9"></path>			<path id="Path_7717_00000000204700535291504520000007937501010171243433_" class="st2" d="M-76.4,1.5c0.6,0.1,1.2,0.2,1.8,0.3    c1.8,0.3,3.6,1,5.2,2.1c0.8,0.5,0.8,1,0.2,1.7c-0.7,0.5-1.4,0.9-2.2,1.2c-2.6,0.8-5.4,1.1-8.1,0.9c-1.6,0-3.1-0.3-4.6-0.8    c-0.6-0.2-1.1-0.5-1.6-0.8c-0.2-0.2-0.5-0.4-0.6-0.6c-0.2-0.3-0.1-0.7,0.2-1c0.3-0.3,0.6-0.5,0.9-0.7c2-1.2,4.2-1.9,6.6-2.1    c0.1,0,0.2,0,0.2-0.1C-77.9,1.5-77.2,1.5-76.4,1.5"></path>			<path id="Path_7718_00000093877673229337388090000000738299170728051875_" class="st2" d="M-16,13.3c-0.2,0.1-0.4,0.1-0.6,0.2    h-2.9c-0.3,0-0.4,0.1-0.4,0.4v9.8c0,0.7,0,0.7-0.7,0.7h-1.1c-0.5,0-0.5-0.1-0.5-0.5V14c0-0.4-0.1-0.5-0.5-0.5h-2.9    c-0.5,0-0.5-0.1-0.5-0.5v-1.2c0-0.2,0.1-0.4,0.3-0.5c0,0,0.1,0,0.1,0h9.3c0.2,0,0.3,0.1,0.5,0.2C-16,12.1-15.9,12.7-16,13.3"></path>			<path id="Path_7719_00000007393870725203744630000003004278500442097552_" class="st2" d="M-79,32.2c-0.5-0.2-1.1-0.2-1.6-0.3    c-2.2-0.4-4.3-1.3-6.1-2.6c6.4,2.4,12.7,2.4,18.8-0.6c-0.8,0.7-1.7,1.2-2.5,1.8c-1.8,1-3.8,1.6-5.8,1.8c-0.1,0-0.2,0-0.2,0.1    C-77.3,32.2-78.1,32.2-79,32.2"></path>			<path id="Path_7720_00000168799713828001709460000016439710025640589724_" class="st2" d="M-91.5,10.5c-0.3,1.3,0.3,2.7,1.4,3.4    c1.4,1.1,3,1.9,4.8,2.2c2.6,0.6,5.2,0.7,7.9,0.4c3-0.3,5.9-1,8.7-2.1c1.2-0.4,2.4-1,3.4-1.9c0.7-0.5,1.1-1.2,1.4-1.9    c0.1-0.2,0.1-0.4,0.1-0.5c0.5,0.9,0.8,1.9,1.1,2.9c0.1,0.5,0.1,1,0,1.5c-0.2,0.8-0.7,1.6-1.3,2.1c-1.3,0.9-2.7,1.6-4.2,2    c-2.8,0.6-5.6,0.9-8.4,0.8c-3.3,0-6.7-0.5-9.9-1.4c-1.7-0.5-3.2-1.3-4.6-2.3c-0.5-0.4-0.9-0.8-1.2-1.3c-0.2-0.3-0.2-0.7-0.2-1    C-92.3,12.4-92,11.4-91.5,10.5"></path>			<path id="Path_7721_00000164483553455469024230000008739156906178882958_" class="st2" d="M-87.8,5.4c-0.3,0.6-0.4,1.2-0.3,1.9    c0.1,0.8,0.6,1.5,1.3,1.9c0.9,0.6,1.9,1,3,1.1c4.5,0.6,9.1,0,13.3-1.7c0.8-0.3,1.6-0.8,2.3-1.4c0.3-0.3,0.6-0.7,0.8-1.1    c0.1-0.2,0-0.4,0-0.6c0.8,0.7,1.5,1.5,2.1,2.3c0.5,0.8,0.5,1.8-0.1,2.5c-0.7,0.9-1.5,1.5-2.5,1.9c-1.5,0.7-3,1-4.6,1.2    c-3.8,0.4-7.6,0.1-11.3-0.8c-1.5-0.3-2.9-0.9-4.2-1.6c-0.6-0.4-1.2-0.8-1.6-1.3c-0.6-0.6-0.6-1.5-0.1-2.1c0,0,0,0,0.1-0.1    c0.5-0.6,1-1.2,1.5-1.7C-88.1,5.6-87.9,5.5-87.8,5.4"></path>			<path id="Path_7722_00000049211340440034389060000002162120477044644280_" class="st2" d="M-42.7,18.7v-4.9    c0-0.3-0.1-0.5-0.4-0.5H-46c-0.5,0-0.6-0.1-0.6-0.6v-1c0-0.5,0.1-0.5,0.5-0.5h9.1c0.5,0,0.5,0.1,0.6,0.6v0.9    c0,0.6-0.1,0.6-0.7,0.6h-2.9c-0.3,0-0.5,0.1-0.5,0.5v9.8c0,0.5-0.1,0.6-0.6,0.6h-1.2c-0.5,0-0.5-0.1-0.5-0.5    C-42.7,22.1-42.7,20.4-42.7,18.7"></path>			<path id="Path_7723_00000074432114552059486070000014809909890244139439_" class="st2" d="M-91.2,23.8c0.4,0.5,0.8,0.9,1.3,1.2    c1.4,1,2.9,1.7,4.6,2.2c3,0.8,6.1,1,9.2,0.7c2.7-0.2,5.4-0.8,8-1.9c1.5-0.6,2.9-1.5,4.1-2.6c0.3-0.2,0.5-0.5,0.7-0.8    c0.1,0.2-0.1,0.2-0.1,0.4c-1.1,2.7-3.4,4.8-6.2,5.6c-2.4,0.8-5,1.2-7.6,1.2c-2.6,0-5.1-0.4-7.6-1.2c-1.9-0.6-3.7-1.6-5.1-3    c-0.5-0.5-0.8-1-1.2-1.5C-91.2,24-91.3,23.9-91.2,23.8"></path>			<path id="Path_7724_00000100382331207780812570000018403308008922714250_" class="st2" d="M-24.5,23.7c-0.8-0.8-1.6-1.8-2.5-2.6    c-0.1-0.1-0.2-0.3-0.1-0.5c0.5-0.9,1.1-1.9,1.6-2.7c0.2-0.5,0.2-0.6-0.4-0.6h-1.2c-0.3,0-0.6,0.2-0.8,0.5l-0.9,1.6    c-0.6-0.7-1.2-1.3-1.9-1.9c0.5-0.3,0.9-0.6,1.3-0.9c0.9-0.7,1.3-2,1-3.1c-0.2-1.1-1-1.9-2.1-2.2c-0.6-0.2-1.2-0.3-1.9-0.2    c-1.2,0.1-2.3,0.8-2.8,2c-0.5,1.3-0.3,2.7,0.6,3.7c0.2,0.2,0.2,0.3-0.1,0.4c-2,0.9-2.8,3.3-1.9,5.3c0.2,0.4,0.4,0.7,0.7,1    c1.1,1,2.7,1.4,4.2,1.1c1.2-0.2,2.2-0.9,2.9-1.9c0.5,0.5,0.8,0.9,1.2,1.4c0.2,0.2,0.4,0.3,0.7,0.3h1.9c0.2,0,0.4,0.1,0.5-0.2    C-24.3,23.9-24.5,23.8-24.5,23.7 M-31.4,13c0.4,0,0.8,0.3,0.9,0.7c0.2,0.5,0.2,1-0.2,1.4c-0.3,0.3-0.7,0.6-1.2,0.8    c0,0.1-0.1,0.1-0.2,0c0,0,0,0,0,0c-0.5-0.4-0.8-1-0.9-1.6C-33,13.5-32.5,12.9-31.4,13 M-30.2,21.4c-0.5,0.7-1.3,1.1-2.1,1.1    c-0.8,0-1.5-0.4-1.8-1.1c-0.4-0.7-0.3-1.5,0.2-2.2l0.2-0.2c0.8-0.8,0.9-0.8,1.7,0c0.5,0.6,1.2,1.2,1.8,1.9    C-30.1,21.1-30.1,21.3-30.2,21.4"></path>			<path id="Path_7725_00000000904017672176898250000009826563722570526135_" class="st2" d="M-45.1,23.7c-0.4-1-0.8-2.1-1.1-3.1    c-1.1-2.9-2.1-5.9-3.2-8.9c-0.2-0.3-0.3-0.5-0.7-0.5h-2c-0.3,0-0.6,0.2-0.6,0.5c-0.4,1.1-0.8,2.2-1.2,3.3c-1,2.9-2.1,5.7-3.1,8.6    c-0.2,0.5-0.1,0.6,0.5,0.6h1.2c0.3,0,0.6-0.2,0.6-0.5c0,0,0,0,0,0c0.2-0.8,0.5-1.6,0.8-2.4c0.1-0.2,0.2-0.3,0.4-0.2h4.7    c0.2,0,0.3,0.1,0.4,0.2c0.2,0.8,0.5,1.5,0.8,2.4c0.1,0.3,0.4,0.5,0.7,0.5h1.3C-45,24.3-44.9,24.1-45.1,23.7 M-49.5,19H-53    c0.6-1.8,1.2-3.6,1.9-5.4c0.6,1.9,1.2,3.6,1.9,5.4H-49.5z"></path>		</g>	</g></g><g id="Group_19395_00000000925229161402999300000015087328458785166004_" transform="translate(677 12)">	<g>		<defs>			<rect id="SVGID_00000005978131453026967560000009469955275152370311_" x="-217" y="-1.6" width="59.7" height="29"></rect>		</defs>		<clipPath id="SVGID_00000019637749228623185650000003592134894496392593_">			<use xlink:href="#SVGID_00000005978131453026967560000009469955275152370311_" style="overflow:visible;"></use>		</clipPath>					<g id="Group_19394_00000168077098360628235290000012478515133112670903_" transform="translate(0 0.001)" style="clip-path:url(#SVGID_00000019637749228623185650000003592134894496392593_);">			<path id="Path_7726_00000054245021481204800010000015756354387332254890_" class="st2" d="M-179,27.3c-0.3-0.1-0.6-0.1-0.9-0.1    c-1.8-0.3-3.4-1.5-4.1-3.2c-0.3-0.8-0.4-1.6-0.3-2.5c0-1.1,0.4-2.1,1.1-3c0.8-1,1.9-1.6,3.1-1.8c1.2-0.2,2.4-0.2,3.6,0.2    c0.1,0,0.1,0,0.1,0.1v2.6c-0.2-0.1-0.5-0.2-0.7-0.3c-0.8-0.3-1.6-0.3-2.4-0.1c-1.1,0.3-1.9,1.3-1.9,2.4c-0.2,1.5,0.9,2.8,2.4,3    c0.1,0,0.1,0,0.2,0c0.8,0.1,1.7-0.1,2.4-0.5h0.1v2.6c0,0.1,0,0.2-0.1,0.2c-0.6,0.2-1.3,0.3-1.9,0.3h-0.1    C-178.6,27.4-178.8,27.3-179,27.3"></path>			<path id="Path_7727_00000073723732446887449260000013160379997547042945_" class="st2" d="M-201.3-1.5h0.2c0.6,0.1,1.1,0.7,1,1.3    v13.7c0,0.7-0.5,1.3-1.3,1.3c-0.7,0-1.3-0.5-1.3-1.3c0,0,0,0,0-0.1V-0.2c-0.1-0.7,0.4-1.3,1.1-1.4c0,0,0.1,0,0.1,0    C-201.4-1.5-201.4-1.5-201.3-1.5"></path>			<path id="Path_7728_00000177475031777307333870000016955889157234301629_" class="st2" d="M-172.7-1.5c0.2,0.1,0.4,0.1,0.6,0.2    c0.4,0.2,0.6,0.6,0.6,1v13.7c0,0.4-0.1,0.8-0.4,1c-0.3,0.4-0.9,0.5-1.4,0.2c-0.5-0.2-0.8-0.6-0.8-1.1V-0.1c0-0.3,0-0.6,0.2-0.8    c0.2-0.4,0.5-0.6,1-0.6H-172.7"></path>			<path id="Path_7729_00000068636721867813746750000010286253653016827820_" class="st2" d="M-190.8,27.3h-0.9c0,0,0.1-0.1,0.2-0.1    L-190.8,27.3L-190.8,27.3z"></path>			<path id="Path_7730_00000052086979321206164080000017530230777336882052_" class="st2" d="M-206.5,27.3L-206.5,27.3    c0.2-0.1,0.4-0.1,0.6-0.1c0,0,0.1,0,0.1,0.1c0,0,0,0,0,0H-206.5z"></path>			<path id="Path_7731_00000103961834107707063010000013344854575697307828_" class="st2" d="M-168.5,27.3L-168.5,27.3    C-168.5,27.3-168.5,27.3-168.5,27.3C-168.4,27.3-168.4,27.3-168.5,27.3l0.6-0.1c0,0,0.1,0,0.1,0.1c0,0,0,0,0,0H-168.5z"></path>			<path id="Path_7732_00000033331615447154151510000001043884592337981593_" class="st2" d="M-190.8,27.3h-0.9    c-0.7,0-1.5-0.1-2.2-0.2c-0.1,0-0.1-0.1-0.1-0.2v-2.2c0-0.1,0-0.1,0.1-0.1c0.5,0.1,1.1,0.3,1.6,0.3c0.6,0.1,1.2,0.1,1.8-0.1    l0.5-0.2c0.3-0.2,0.4-0.7,0.2-1c0,0-0.1-0.1-0.1-0.1c-0.2-0.2-0.5-0.4-0.8-0.5l-1.4-0.5c-0.6-0.3-1.1-0.6-1.5-1.1    c-0.4-0.6-0.6-1.3-0.5-2c0.2-1.4,1.3-2.5,2.6-2.7c0.7-0.1,1.5-0.2,2.2-0.1l1.4,0.2c0.1,0,0.1,0.1,0.1,0.2V19c0,0.1,0,0.2-0.2,0.1    c-0.7-0.2-1.4-0.3-2.1-0.3c-0.4,0-0.7,0.1-1,0.2c-0.4,0.1-0.6,0.5-0.4,0.9c0.1,0.2,0.2,0.3,0.3,0.4c0.2,0.1,0.5,0.2,0.7,0.3    c0.5,0.1,1,0.3,1.4,0.5c0.8,0.3,1.4,1,1.7,1.8c0.6,1.5-0.1,3.2-1.5,3.9C-189.3,27.2-190,27.4-190.8,27.3"></path>			<path id="Path_7733_00000028315596192504769990000013245298514310673841_" class="st2" d="M-205.7,27.3h-0.7    c-1.7-0.1-3.3-0.9-4.3-2.3c-0.5-0.7-0.7-1.4-0.8-2.2c-0.1-1,0-2.1,0.4-3c0.6-1.4,1.8-2.4,3.2-2.8c1.1-0.3,2.2-0.3,3.3-0.2    c0.3,0.1,0.6,0.2,0.9,0.2c0.1,0,0.1,0.1,0.1,0.2v2.7l-0.5-0.2c-0.8-0.3-1.8-0.4-2.6-0.2c-1.3,0.3-2.1,1.6-1.9,2.9    c0.1,1.2,1,2.2,2.2,2.4c0.9,0.1,1.8,0,2.6-0.4h0.1c0.1-0.1,0.2-0.1,0.2,0.1v2.3c0,0.4,0,0.4-0.3,0.5    C-204.6,27.3-205.2,27.3-205.7,27.3"></path>			<path id="Path_7734_00000166635457467085143410000005223413486248609710_" class="st2" d="M-200.1,22v-5c0-0.2,0-0.2,0.2-0.2h2.3    c0.1,0,0.2,0,0.2,0.2V27c0,0.1,0,0.2-0.2,0.2h-2.3c-0.1,0-0.2,0-0.2-0.2L-200.1,22z"></path>			<path id="Path_7735_00000032647095046583523300000005226780337666250912_" class="st2" d="M-164.4,7.8v3.1c0,0.6-0.4,1.1-1,1.3    c-0.7,0.2-1.4-0.2-1.6-0.8c0-0.1-0.1-0.3,0-0.4V4.8c-0.1-0.7,0.5-1.4,1.2-1.4c0.7-0.1,1.4,0.5,1.4,1.2c0,0,0,0.1,0,0.1    C-164.4,5.7-164.4,6.8-164.4,7.8"></path>			<path id="Path_7736_00000107587841462566076830000018290783486321821103_" class="st2" d="M-193,7.8v3.1c0,0.6-0.4,1.1-1,1.3    c-0.7,0.2-1.5-0.3-1.6-1c0-0.1,0-0.1,0-0.2V4.8c0-0.5,0.3-1,0.8-1.3c0.7-0.3,1.4,0,1.7,0.7c0.1,0.1,0.1,0.3,0.1,0.4    C-193,5.7-193,6.8-193,7.8"></path>			<path id="Path_7737_00000101823227714865458130000004061360831610352024_" class="st2" d="M-209.8,7.8V4.7c0-0.6,0.4-1.1,1-1.3    c0.7-0.2,1.4,0.2,1.6,0.9c0,0.1,0,0.2,0,0.3v6.3c0,0.6-0.4,1.2-1,1.3c-0.7,0.2-1.4-0.3-1.6-1c0-0.1,0-0.2,0-0.2V7.8"></path>			<path id="Path_7738_00000019674719256093610100000018142959455052738466_" class="st2" d="M-181.3,7.8V4.7c0-0.6,0.5-1.2,1.1-1.3    c0.7-0.1,1.4,0.4,1.5,1.2c0,0,0,0,0,0v6.2c0,0.6-0.4,1.1-1,1.3c-0.7,0.2-1.4-0.2-1.6-0.9c0-0.1,0-0.2,0-0.4    C-181.3,10-181.3,8.8-181.3,7.8"></path>			<path id="Path_7739_00000127011480341978000650000012622476420148659367_" class="st2" d="M-217,11.2v-3c0.1-0.6,0.6-1.1,1.3-1.1    c0.6,0,1.2,0.5,1.3,1.1v2.8c0,0.6-0.4,1.2-1,1.3c-0.6,0.2-1.3-0.2-1.5-0.8C-216.9,11.3-216.9,11.2-217,11.2"></path>			<path id="Path_7740_00000102532220308354186960000016210487408080977794_" class="st2" d="M-157.3,8.1v3c0,0.6-0.6,1.1-1.2,1.1    c-0.6,0-1.2-0.4-1.3-1v-3c0-0.7,0.6-1.3,1.4-1.3C-157.8,7.1-157.3,7.5-157.3,8.1"></path>			<path id="Path_7741_00000127032707782378048460000002820722164229451445_" class="st2" d="M-185.9,9.6V11c0,0.6-0.4,1.1-1,1.2    c-0.7,0.1-1.5-0.4-1.6-1.1c0,0,0-0.1,0-0.1V8.1c0-0.7,0.7-1.2,1.4-1.2c0.6,0,1.2,0.6,1.2,1.2C-185.9,8.6-185.9,9.1-185.9,9.6"></path>			<path id="Path_7742_00000119826218511617743030000010231793423850944405_" class="st2" d="M-162.7,21.1c-0.3-1.7-1.4-3.2-3-3.9    c-1-0.5-2.2-0.6-3.4-0.4c-1,0.1-2,0.6-2.7,1.4c-2.2,2-2.3,5.4-0.2,7.6c1,1,2.3,1.6,3.7,1.7h0.7c0.2,0,0.5-0.1,0.7-0.1    c1.3-0.2,2.4-0.9,3.2-1.9C-162.8,24.2-162.5,22.6-162.7,21.1 M-168.2,24.7c-1.5,0-2.7-1.2-2.7-2.7s1.2-2.7,2.7-2.7    c1.5,0,2.7,1.2,2.7,2.7C-165.4,23.5-166.6,24.7-168.2,24.7C-168.1,24.7-168.2,24.7-168.2,24.7"></path>		</g>	</g></g><g id="Group_19399_00000127766663198115929710000010492821600345210761_" transform="translate(1 8)">	<g>		<defs>			<rect id="SVGID_00000045615848505172029030000017123226693769411491_" x="1" y="-3.3" width="117" height="32.3"></rect>		</defs>		<clipPath id="SVGID_00000062149897193864474350000014305641786541883549_">			<use xlink:href="#SVGID_00000045615848505172029030000017123226693769411491_" style="overflow:visible;"></use>		</clipPath>					<g id="Group_19398_00000063605752282847064390000009641013623165344957_" style="clip-path:url(#SVGID_00000062149897193864474350000014305641786541883549_);">			<path id="Path_7754_00000154403828619629208760000014863069304381235344_" class="st2" d="M67.9,6.7l6.8-2.5l-6.8-2.7V-2    l11.5,4.7v2.9l-11.5,4.7V6.7z M5.4,29C3,29,1,27.7,1,25v-0.2c0-3.3,2.9-4.4,6.3-4.4H9v-0.6c0-1.3-0.6-2.2-2-2.2    c-1-0.1-1.9,0.6-2,1.7c0,0,0,0.1,0,0.1H1.4c0.3-3,2.7-4.4,5.8-4.4s5.6,1.4,5.6,4.8v9H9.1v-1.6C8.3,28.4,6.9,29.1,5.4,29z M9,24.2    V23H7.5c-1.8,0-2.8,0.5-2.8,1.8v0.2c0,0.9,0.6,1.6,1.8,1.6C7.8,26.3,9,25.7,9,24.2 M21.4,29c-3.8,0-6.4-2.3-6.4-6.9v-0.2    c0-4.6,2.9-7,6.5-7c3.1,0,5.6,1.6,5.9,5.1h-3.6c-0.3-1.3-0.9-2.2-2.3-2.2c-1.6,0-2.7,1.3-2.7,3.9v0.4c0,2.8,1,4,2.8,4    c1.3,0,2.4-1.1,2.4-2.4h3.4C27.1,26.7,25,29,21.4,29L21.4,29z M35.4,29c-3.8,0-6.4-2.3-6.4-6.9v-0.2c0-4.6,2.9-7,6.5-7    c3.1,0,5.6,1.6,5.9,5.1h-3.6c-0.3-1.3-0.9-2.2-2.3-2.2c-1.6,0-2.7,1.3-2.7,3.9v0.4c0,2.8,1,4,2.8,4c1.3,0,2.4-1.1,2.4-2.4h3.4    C41.1,26.7,39,29,35.4,29L35.4,29z M49.5,29c-3.9,0-6.6-2.3-6.6-6.8v-0.3c0-4.5,2.8-7,6.4-7c3.3,0,6.2,1.9,6.2,6.3v1.6h-8.7    c0.2,2.4,1.2,3.3,2.8,3.3c1.2,0.1,2.2-0.6,2.5-1.8h3.5C55.2,27.1,53.1,29,49.5,29L49.5,29z M46.8,20.4h5.1c-0.1-2-1-2.8-2.5-2.8    C48.2,17.6,47.1,18.1,46.8,20.4L46.8,20.4z M57.9,15.2h3.8v2c0.8-1.5,2.4-2.4,4.1-2.3c2.4,0,4.1,1.5,4.1,4.8v9h-3.8v-8.4    c0-1.6-0.7-2.3-2-2.3c-1.3,0-2.3,0.8-2.3,2.5v8.3H58L57.9,15.2z M76.9,11.1v4.1h2.6v2.8h-2.6v6.4c0,1,0.5,1.5,1.3,1.5    c0.5,0,0.9-0.1,1.3-0.3v2.9c-0.7,0.2-1.4,0.3-2.1,0.3c-2.9,0-4.3-1.3-4.3-4.1v-6.8h-1.6v-2.8h1.6v-2.5L76.9,11.1z M93.6,28.7    h-3.8v-2c-0.8,1.5-2.3,2.3-3.9,2.3c-2.4,0-4.2-1.5-4.2-4.7v-9h3.8v8.6c0,1.6,0.6,2.3,1.9,2.3s2.3-0.8,2.3-2.5v-8.3h3.8L93.6,28.7    z M96.4,15.2h3.8v2.5c0.6-1.7,2.3-2.8,4.1-2.7v3.8c-2.6,0-4.1,0.8-4.1,3v6.9h-3.8V15.2z M111.9,29c-3.9,0-6.6-2.3-6.6-6.8v-0.3    c0-4.5,2.8-7,6.4-7c3.3,0,6.2,1.9,6.2,6.3v1.6h-8.8c0.2,2.4,1.2,3.3,2.8,3.3c1.2,0.1,2.2-0.6,2.5-1.8h3.5    C117.5,27.1,115.4,29,111.9,29z M109.2,20.4h5.1c-0.1-2-1-2.8-2.5-2.8C110.6,17.6,109.6,18.1,109.2,20.4L109.2,20.4z"></path>		</g>	</g></g><g id="Group_19405_00000136387116174596801410000015915374447762998973_" transform="translate(874 18.999)">	<g>		<defs>			<rect id="SVGID_00000039108387872863025270000016345981600611810975_" x="-282" y="1" width="94.7" height="17.2"></rect>		</defs>		<clipPath id="SVGID_00000035489447033159110370000002915457718459928968_">			<use xlink:href="#SVGID_00000039108387872863025270000016345981600611810975_" style="overflow:visible;"></use>		</clipPath>					<g id="Group_19404_00000128472239069657483520000010852439811922708615_" transform="translate(0 0.001)" style="clip-path:url(#SVGID_00000035489447033159110370000002915457718459928968_);">			<path id="Path_7787_00000029025917487413575640000000985693028677173919_" class="st2" d="M-282,1.1h6.4c0.7,0,1.4,0.1,2.1,0.3    c0.6,0.2,1.1,0.4,1.6,0.7c0.4,0.2,0.7,0.5,1,0.9c0.7,0.7,1.2,1.7,1.3,2.7c0.1,0.4,0.1,0.8,0.1,1.1c0.1,1,0,1.9,0.1,2.9V10    c-1.1,0.3-2.3,0.6-3.4,0.9v-1c0-0.3,0-0.6,0-0.9V8.4c0-0.3,0-0.6,0-0.9c0-0.6-0.1-1.2-0.3-1.7c-0.2-0.4-0.4-0.8-0.8-1    c-0.2-0.2-0.5-0.4-0.8-0.5c-0.3-0.1-0.6-0.2-0.9-0.2l-2.9,0h-0.1v8.5c-0.6,0.2-1.1,0.3-1.6,0.5c-0.6,0.2-1.2,0.4-1.8,0.6h0V1.1z"></path>			<path id="Path_7788_00000090980797172097182980000017824765977073334201_" class="st2" d="M-223,1c0,0,0.1,0,0.1,0    c0.6,0,1.1,0.1,1.7,0.2c0.4,0.1,0.8,0.3,1.2,0.5c1.4,0.7,2.5,2,2.9,3.6c0.1,0.3,0.2,0.5,0.2,0.8c-0.2,0-0.3,0-0.5-0.1l-0.9-0.1    c-0.3,0-0.6-0.1-0.9-0.1c-0.3,0-0.6-0.1-0.9-0.1c-0.2,0-0.3,0-0.5-0.1c0,0-0.1,0-0.1-0.1c-0.2-0.4-0.4-0.7-0.7-0.9    c-0.3-0.3-0.7-0.5-1.1-0.6c-0.4-0.1-0.7-0.1-1.1-0.1c-0.6,0-1.3,0.3-1.7,0.7c-0.2,0.1-0.3,0.3-0.4,0.5c0,0.1-0.1,0.1-0.2,0.1    c-0.4,0-0.9,0-1.4,0c-0.2,0-0.4,0-0.6,0l-1,0c-0.2,0-0.4,0-0.7,0c0.1-0.2,0.1-0.4,0.2-0.6c0.2-0.4,0.4-0.8,0.7-1.1    c0.2-0.3,0.5-0.5,0.8-0.8c0.3-0.3,0.7-0.5,1-0.7c0.5-0.3,1.1-0.5,1.7-0.7c0.4-0.1,0.9-0.2,1.3-0.2c0,0,0,0,0.1,0H-223z"></path>			<path id="Path_7789_00000142889093333718342970000010244977677362894727_" class="st2" d="M-201.4,1.2h3.4c0.1,0,0.1,0,0.2,0.1    c0.2,0.8,0.5,1.6,0.7,2.4c0.1,0.4,0.3,0.8,0.4,1.2c0.3,0.8,0.5,1.6,0.8,2.4c0.1,0.4,0.3,0.8,0.4,1.3c0.2,0.8,0.5,1.5,0.7,2.3    c0.1,0.4,0.3,0.8,0.4,1.2c0,0,0,0.1,0,0.1c0,0,0-0.1,0.1-0.1c0.2-0.5,0.3-1.1,0.5-1.6l0.8-2.6c0.2-0.5,0.3-1,0.5-1.5    c0.3-0.8,0.5-1.6,0.8-2.4c0.2-0.5,0.3-1,0.5-1.5l0.4-1.2c0-0.1,0.1-0.1,0.1-0.1c0,0,0,0,0,0h3.4c0,0,0,0,0,0    c0,0.1-0.1,0.2-0.1,0.4c-0.2,0.6-0.4,1.2-0.6,1.8c-0.3,1-0.7,1.9-1,2.9c-0.3,1-0.7,1.9-1,2.9c-0.3,1-0.7,1.9-1,2.9    c-0.3,1-0.7,2-1,3l-1,2.9c-0.1,0.2-0.2,0.3-0.4,0.3h-2.1c-0.1,0-0.2,0-0.2-0.1c-0.3-0.8-0.6-1.7-0.9-2.5l-0.8-2.3    c-0.3-0.8-0.5-1.6-0.8-2.4l-0.8-2.3c-0.3-0.8-0.5-1.5-0.8-2.3l-0.8-2.3c-0.3-0.8-0.5-1.6-0.8-2.4C-201.3,1.5-201.4,1.3-201.4,1.2    L-201.4,1.2z"></path>			<path id="Path_7790_00000011743540226063338370000009995029997379789247_" class="st2" d="M-211,4.1h-4.4c-0.1,0-0.2,0-0.2-0.1    V1.3c0-0.1,0-0.1,0.1-0.1h12.3c0.1,0,0.2,0,0.2,0.1V4c0,0.1,0,0.1-0.1,0.1h-4.5v13.8c0,0.1-0.1,0.2-0.2,0.2h-3    c-0.1,0-0.2-0.1-0.2-0.2L-211,4.1"></path>			<path id="Path_7791_00000075881957197446940540000015909466943538217397_" class="st2" d="M-239.8,11v4.1h8    c0.1,0,0.2,0.1,0.2,0.2V18c0,0.1,0,0.1-0.1,0.1h-11.3c-0.1,0-0.1,0-0.1-0.1V7.5c0-0.1,0.1-0.2,0.2-0.2c0.4,0,0.8-0.1,1.1-0.1    l1.4-0.2c0.2,0,0.4,0,0.7-0.1v1.1h6.8c0.1,0,0.2,0,0.2,0.1v2.6c0,0.1,0,0.1-0.2,0.1L-239.8,11L-239.8,11z"></path>			<path id="Path_7792_00000064349192580011149550000006561491145163087505_" class="st2" d="M-255.5,11.3v6.6c0,0.1,0,0.2-0.1,0.2    c0,0,0,0,0,0h-3.1c-0.1,0-0.2,0-0.2-0.1v-7.8c0-0.1,0-0.1,0.1-0.2c0,0,0,0,0,0c0.7-0.2,1.4-0.3,2.2-0.5c0.7-0.2,1.5-0.3,2.2-0.4    c0.5-0.1,1-0.2,1.6-0.3c0.7-0.1,1.3-0.2,2-0.3c0.6-0.1,1.2-0.2,1.8-0.3c0.6-0.1,1.3-0.2,1.9-0.3c0.2,0,0.3,0,0.5-0.1h0.1    c-0.5,1.4-1.6,2.6-3,3c1.3,2.4,2.6,4.9,3.9,7.3c0,0-0.1,0-0.1,0h-3.7c-0.1,0-0.1,0-0.2-0.1c-0.2-0.5-0.5-1-0.7-1.4    c-0.4-0.8-0.8-1.6-1.2-2.3c-0.2-0.5-0.5-1-0.7-1.4c-0.2-0.5-0.5-0.9-0.7-1.4c0-0.1-0.1-0.1-0.2-0.1L-255.5,11.3L-255.5,11.3z"></path>			<path id="Path_7793_00000110442643426588224880000007362839167373764483_" class="st2" d="M-216.8,12.9c-0.1,0.3-0.1,0.6-0.2,0.9    c-0.1,0.5-0.3,0.9-0.5,1.3c-0.2,0.4-0.5,0.8-0.8,1.1c-0.5,0.5-1,0.9-1.6,1.3c-0.6,0.3-1.3,0.5-2,0.6c-0.3,0-0.7,0.1-1,0.1    c-0.9,0.1-1.8-0.1-2.6-0.3c-0.7-0.2-1.3-0.6-1.9-1c-0.5-0.4-0.9-0.8-1.3-1.4c-0.3-0.5-0.6-1.1-0.7-1.7c-0.1-0.3-0.1-0.6-0.2-0.9    c0-0.2,0-0.4-0.1-0.6c0-0.3,0-0.6,0-0.9c0-1,0-2.1,0-3.1c0-0.4,0-0.8,0-1.3c0-0.1,0-0.2,0-0.3c0-0.1,0-0.1,0.1-0.1    c0.4,0,0.8,0,1.3,0.1c0.3,0,0.7,0,1,0.1c0.3,0,0.6,0,0.9,0.1c0,0,0.1,0,0.1,0.1c0,0.2,0,0.4-0.1,0.6v0c0,0.3,0,0.5,0,0.8    c0,0.5,0,1,0,1.5c0,0.5,0,1,0,1.4c0,0.4,0,0.8,0.1,1.1c0,0.4,0.1,0.9,0.3,1.3c0.1,0.3,0.3,0.5,0.5,0.7c0.2,0.3,0.5,0.5,0.8,0.6    c0.3,0.1,0.7,0.2,1,0.3c0.5,0,1,0,1.4-0.1c0.6-0.2,1.2-0.6,1.5-1.2c0.2-0.3,0.3-0.6,0.4-0.9c0-0.1,0.1-0.1,0.1-0.1L-216.8,12.9    L-216.8,12.9z"></path>			<path id="Path_7794_00000147192089183297101850000010508884572266808481_" class="st2" d="M-246.4,5.9c-1.1,0.1-2.3,0.3-3.4,0.4    c-0.1-0.3-0.1-0.6-0.2-0.8c-0.2-0.6-0.7-1.1-1.3-1.2c-0.4-0.1-0.7-0.2-1.1-0.2h-3.2v3c0,0.1-0.1,0.1-0.1,0.2    c-0.4,0.1-0.8,0.1-1.2,0.2c-0.6,0.1-1.1,0.2-1.7,0.3c-0.1,0-0.3,0.1-0.4,0.1c0,0,0-0.1,0-0.1V1.3c0-0.1,0-0.1,0.1-0.1h6.9    c0.8,0,1.5,0.1,2.3,0.4c0.5,0.2,1,0.5,1.4,0.8C-247.2,3.2-246.5,4.5-246.4,5.9L-246.4,5.9z"></path>			<path id="Path_7795_00000100369549578084876490000013988147792489507241_" class="st2" d="M-243.2,1.1h11.6v2.9h-8.1v1.2    c-0.1,0-0.3,0-0.4,0c-0.4,0-0.8,0-1.1,0.1s-0.8,0.1-1.1,0.1c-0.2,0-0.5,0-0.8,0.1L-243.2,1.1L-243.2,1.1z"></path>			<path id="Path_7796_00000119810493510235384620000014727350708397508763_" class="st2" d="M-265.9,1.2h3.4v7.4    c-1.1,0.2-2.3,0.5-3.4,0.7V1.2z"></path>			<path id="Path_7797_00000104689658096866485790000015567895787964393891_" class="st2" d="M-269.4,13.1c0,0.1,0,0.3-0.1,0.4    c-0.1,0.6-0.3,1.1-0.6,1.7c-0.6,1-1.5,1.9-2.6,2.3c-0.5,0.2-1.1,0.4-1.6,0.5c-0.4,0-0.7,0.1-1.1,0.1c-0.9,0-1.9,0-2.8,0h-2.4    C-277,16.1-273.3,14.4-269.4,13.1L-269.4,13.1z"></path>			<path id="Path_7798_00000085246389123680474790000012219244845748504223_" class="st2" d="M-262.5,11v7c0,0.1-0.1,0.2-0.2,0.2    h-3.1c-0.1,0-0.1,0-0.1-0.1v-5.9c0-0.1,0-0.1,0.1-0.2c0.7-0.2,1.4-0.4,2.1-0.6c0.4-0.1,0.7-0.2,1.1-0.3    C-262.6,11-262.6,11-262.5,11L-262.5,11z"></path>		</g>	</g></g><g>	<path class="st2" d="M777,16.9c0,0.7-0.1,1.4-0.1,2.1c0,0.3,0.1,0.4,0.4,0.4c0.9,0.2,0.9,0.2,1.2-0.7c0.1-0.4,0.3-0.8,0.4-1.2  c0,0,0-0.1,0.1-0.2c0.8,0.3,1.6,0.6,2.4,1c-0.3,0.7-0.7,1.4-1,2.2c0.3,0.2,0.7,0.5,1.1,0.7c0.5-0.6,1.1-1.2,1.6-1.8  c0.6,0.6,1.2,1.2,1.8,1.9c-0.6,0.5-1.1,1-1.7,1.6c0.2,0.3,0.4,0.6,0.6,0.9c0.1,0.1,0.3,0.1,0.4,0c0.6-0.3,1.2-0.6,1.9-0.9  c0.3,0.8,0.7,1.6,1,2.4c-0.8,0.3-1.5,0.5-2.3,0.8c0.1,0.3,0.1,0.7,0.2,1c0,0.1,0.3,0.3,0.4,0.3c0.6,0,1.1,0,1.7-0.1  c0.3,0,0.4,0.1,0.4,0.4c0,0.6,0,1.1,0,1.7c0,0.3-0.1,0.4-0.4,0.4c-0.5-0.1-1.1-0.1-1.6-0.1c-0.3,0-0.5,0.1-0.5,0.4  c0,0.3-0.1,0.5-0.2,0.9c0.7,0.3,1.5,0.5,2.3,0.8c-0.3,0.8-0.7,1.6-1,2.4c-0.6-0.3-1.2-0.5-1.8-0.8c-0.3-0.2-0.5-0.2-0.7,0.2  c-0.1,0.2-0.3,0.4-0.5,0.7c0.6,0.5,1.2,1.1,1.7,1.6c-0.6,0.6-1.2,1.2-1.8,1.9c-0.5-0.6-1.1-1.2-1.6-1.8c-0.4,0.2-0.7,0.5-1.1,0.7  c0.3,0.7,0.7,1.4,1.1,2.2c-0.8,0.3-1.6,0.7-2.4,1c-0.2-0.7-0.5-1.3-0.7-1.9c-0.1-0.3-0.2-0.4-0.5-0.3c-0.9,0.2-0.9,0.2-0.9,1.2  c0,0.5,0,1,0.1,1.5h-2.7c0-0.5,0.1-1.1,0.1-1.6c0-0.8,0-0.8-0.8-1c-0.4-0.1-0.5,0-0.6,0.4c-0.2,0.6-0.4,1.2-0.7,1.8  c-0.8-0.3-1.6-0.7-2.4-1c0.4-0.7,0.7-1.4,1-2.2c-0.4-0.2-0.7-0.5-1.1-0.7c-0.6,0.6-1.1,1.2-1.6,1.7c-0.6-0.6-1.2-1.2-1.8-1.8  c0,0,0,0,0-0.1c0.3-0.3,0.7-0.6,1-0.9c0.7-0.6,0.7-0.6,0.2-1.3c-0.2-0.3-0.4-0.3-0.7-0.2c-0.6,0.3-1.2,0.6-1.8,0.8  c-0.3-0.8-0.7-1.6-1-2.4c0.7-0.2,1.3-0.4,1.9-0.7c0.1-0.1,0.3-0.2,0.3-0.3c0-0.4-0.1-0.7-0.2-1.1c-0.9,0-1.7,0.1-2.5,0.1  c0-0.9,0-1.7,0-2.6c0.5,0,1,0,1.5,0.1c0.9,0.1,0.9,0.1,1.1-0.8c0.1-0.3,0-0.4-0.3-0.5c-0.6-0.2-1.2-0.4-1.9-0.7  c0.3-0.8,0.7-1.6,1-2.4c0.5,0.2,0.9,0.4,1.4,0.7c0.8,0.4,0.8,0.4,1.3-0.3c0.2-0.3,0.2-0.4-0.1-0.7c-0.5-0.4-1-0.8-1.4-1.3  c0.6-0.6,1.2-1.2,1.8-1.8c0.5,0.6,1.1,1.2,1.6,1.8c0.4-0.3,0.7-0.5,1.1-0.7c-0.4-0.7-0.7-1.4-1-2.2c0.8-0.3,1.6-0.7,2.4-1  c0.3,0.8,0.6,1.5,0.8,2.3c0.4-0.1,0.7-0.1,1-0.2c0.1,0,0.2-0.2,0.2-0.3c0-0.7-0.1-1.4-0.1-2.2L777,16.9L777,16.9z M770,28.6  c0,3.2,2.5,5.8,5.7,5.8c3.2,0,5.7-2.5,5.8-5.7c0.1-3.2-2.6-5.8-5.8-5.8C772.5,22.9,770,25.4,770,28.6L770,28.6z"></path>	<path class="st2" d="M830.1,23.5h6.7v2.1c-0.5,0-0.9,0-1.4,0c-0.8,0-1.5,0-2.3,0c-0.4,0-0.6,0.1-0.5,0.5c0,0.8,0,1.6,0,2.5h4.1  c0,0.6,0,1.2,0,1.8c0,0.1-0.3,0.3-0.4,0.3c-1,0-2,0-3,0c-0.5,0-0.7,0.1-0.6,0.6c0,1,0,1.9,0,3h4.3c0,0.7,0,1.3,0,1.9  c0,0.1-0.2,0.3-0.4,0.3c-2,0-3.9,0-5.9,0c-0.4,0-0.4-0.2-0.4-0.6c0-4,0-8,0-11.9C830.1,23.8,830.1,23.6,830.1,23.5L830.1,23.5z"></path>	<path class="st2" d="M915.9,23c3.6,3.5,7.1,7,10.7,10.6V23.5h1.4v13.4c-3.6-3.5-7.1-7-10.7-10.6c0,0.4,0,0.6,0,0.8  c0,2.9,0,5.8,0,8.7c0,0.6-0.3,0.6-0.7,0.5c-0.4,0-0.8,0.1-0.8-0.6c0-4.2,0-8.3,0-12.4C915.8,23.3,915.8,23.2,915.9,23L915.9,23z"></path>	<path class="st2" d="M819.3,30.8c0.2-0.4,0.3-0.8,0.5-1.2c0.8-2,1.6-3.9,2.4-5.9c0.2-0.4,0.4-0.6,0.8-0.5c0.7,0,1.3,0,2.1,0  c-2,4.6-3.9,9-5.8,13.6c-1.9-4.6-3.8-9-5.7-13.6c0.9,0,1.7,0,2.5,0c0.1,0,0.3,0.3,0.3,0.5c0.8,2.1,1.6,4.3,2.5,6.4  c0.1,0.2,0.2,0.5,0.3,0.7L819.3,30.8L819.3,30.8z"></path>	<path class="st2" d="M902.8,36.7c-2.9-0.2-5.1-1.2-6.5-3.6c-1.6-2.7-0.9-6.2,1.6-8.2c3-2.4,7.4-2.2,9.9,0.4c3.6,3.8,2,9.6-3.1,11  C904,36.5,903.3,36.6,902.8,36.7L902.8,36.7z M902.6,24.5c-3.1,0-5.7,2.4-5.7,5.4c0,3,2.6,5.4,5.6,5.5c3.1,0,5.7-2.4,5.7-5.4  C908.3,26.9,905.8,24.5,902.6,24.5L902.6,24.5z"></path>	<path class="st2" d="M873.1,30.6c1.5,1.9,2.8,3.8,4.2,5.7c-0.9,0.4-1.6,0.2-2.2-0.5c-1.1-1.6-2.3-3.1-3.4-4.7  c-0.1-0.2-0.4-0.3-0.7-0.5c0,0.4,0,0.6,0,0.8c0,1.5-0.1,3,0,4.5c0,0.7-0.4,0.6-0.8,0.6c-0.5,0-0.7-0.1-0.7-0.6c0-3.9,0-7.8,0-11.8  c0-0.2,0-0.4,0-0.6c1.6,0,3.1-0.1,4.6,0.3c1.6,0.5,2.4,1.6,2.4,3.3c0,1.6-1,2.9-2.5,3.3C873.8,30.4,873.5,30.5,873.1,30.6  L873.1,30.6z M871.1,24.6v4.9c1.1,0,2.1,0,3-0.5c0.9-0.5,1-1.4,0.9-2.3c-0.1-0.8-0.5-1.5-1.3-1.7C872.9,24.8,872,24.7,871.1,24.6  L871.1,24.6z"></path>	<path class="st2" d="M797.5,34.3h3.6c0,0.7,0,1.3,0,1.9c0,0.1-0.2,0.3-0.3,0.3c-1.8,0-3.6,0-5.5,0c-0.4,0-0.3-0.3-0.3-0.6  c0-2.3,0-4.7,0-7c0-1.8,0-3.6,0-5.4h2.5V34.3z"></path>	<path class="st2" d="M863.5,35.2c0.1,1.5,0.1,1.2-1.1,1.3c-1.8,0-3.5,0-5.3,0c-0.5,0-0.7-0.1-0.7-0.7c0-3.9,0-7.8,0-11.7  c0-0.2,0-0.4,0-0.6h7c0,0.1,0.1,0.1,0.1,0.1c0,1.3,0.1,1.1-1,1.1c-1.3,0-2.6,0-3.9,0c-0.2,0-0.4,0-0.7,0v3.9c0.3,0,0.5,0,0.7,0  c1.4,0,2.7,0,4.1,0c0.6,0,0.6,0.3,0.6,0.7c0,0.5-0.2,0.6-0.6,0.6c-1.4,0-2.9,0-4.3,0c-0.4,0-0.6,0.1-0.6,0.5c0,1.4,0,2.8,0,4.2  c0,0.4,0.2,0.5,0.6,0.5c1.5,0,2.9,0,4.4,0C863.1,35.2,863.3,35.2,863.5,35.2L863.5,35.2z"></path>	<path class="st2" d="M890.2,25.2c-0.4,0.2-0.8,0.4-1.2,0.7c-0.7-1.1-1.6-1.5-2.8-1.4c-0.7,0.1-1.3,0.5-1.7,1.1  c-0.4,0.8-0.3,1.7,0.4,2.2c0.6,0.4,1.3,0.7,2,1c0.6,0.3,1.2,0.5,1.7,0.8c2.9,1.4,2.3,4.8,0.4,6.2c-2.4,1.7-5.8,0.7-6.7-1.9  c-0.2-0.4-0.1-0.6,0.4-0.7c0.8-0.2,0.8-0.2,1.1,0.5c0.6,1.3,2,2,3.5,1.6c1.3-0.4,2.2-1.5,2-2.8c-0.1-0.7-0.5-1.2-1.1-1.6  c-0.6-0.4-1.3-0.6-2-0.9c-0.7-0.3-1.4-0.6-2-1c-1.5-1.1-1.7-3.1-0.4-4.5C885.5,22.6,888.8,22.9,890.2,25.2L890.2,25.2z"></path>	<path class="st2" d="M845.3,30.7c0,1.7,0,3.4,0,5c0,0.6-0.2,0.7-0.7,0.7c-0.5,0-0.8,0-0.8-0.7c0-3.9,0-7.8,0-11.7  c0-0.5,0.1-0.6,0.6-0.6c1.3,0.1,2.6,0,3.9,0.3c1.6,0.3,2.6,1.6,2.6,3.3c0,1.7-0.8,3-2.4,3.4c-0.8,0.2-1.6,0.2-2.3,0.3  C845.9,30.7,845.6,30.7,845.3,30.7L845.3,30.7z M845.3,29.5c1-0.1,1.9-0.2,2.8-0.4c0.8-0.2,1.3-0.8,1.4-1.7  c0.1-0.9,0.1-1.7-0.8-2.3c-1.1-0.7-2.2-0.5-3.4-0.6L845.3,29.5L845.3,29.5z"></path>	<path class="st2" d="M806.2,23.5h2.4c0,0.2,0,0.4,0,0.6c0,3.9,0,7.8,0,11.7c0,0.5-0.1,0.7-0.7,0.7c-0.4,0-0.8,0-1.1,0  c-0.5,0.1-0.7-0.1-0.7-0.7c0-3.3,0-6.5,0-9.8C806.2,25.2,806.2,24.3,806.2,23.5L806.2,23.5z"></path></g><g>	<polygon class="st10" points="1055.2,33 1059.7,33 1060.5,34.8 1054.3,34.8 1053.3,36.9 1050.6,36.9 1057.3,23.1 1059.2,23.1   1066,36.9 1063.2,36.9 1058.3,26.2  "></polygon>	<polygon class="st10" points="1003.7,33.1 1008.2,33.1 1009,34.9 1002.8,34.9 1001.8,37 999.1,37 1005.8,23.2 1007.7,23.2   1014.5,37 1011.8,37 1006.8,26.3  "></polygon>	<polygon class="st10" points="1029.3,33.1 1033.9,33.1 1034.6,34.9 1028.5,34.9 1027.5,37 1024.8,37 1031.5,23.2 1033.4,23.2   1040.1,37 1037.4,37 1032.4,26.3  "></polygon>	<polygon class="st10" points="1011.9,23.1 1018.7,36.9 1018.8,36.9 1020.4,36.9 1020.6,36.9 1027.3,23.1 1024.6,23.1 1019.6,34   1014.6,23.1  "></polygon>	<polygon class="st10" points="1043.9,42.1 1053.2,23.1 1050.5,23.1 1045.3,34.2 1040.5,23.1 1037.8,23.1 1044,36.9 1041.3,42.1    "></polygon></g></svg>